999
dxflib 3.7.0.0
  0
SECTION
  2
HEADER
  9
$ACADVER
  1
AC1015
  9
$HANDSEED
  5
FFFF
  9
$ANGBASE
 50
0.0
  9
$ATTMODE
 70
1
  9
$AUNITS
 70
0
  9
$AUPREC
 70
0
  9
$CELTSCALE
 40
1.0
  9
$CHAMFERA
 40
0.0
  9
$CHAMFERB
 40
0.0
  9
$CHAMFERC
 40
0.0
  9
$CHAMFERD
 40
0.0
  9
$CMLJUST
 70
0
  9
$CMLSCALE
 40
1.0
  9
$DIMADEC
 70
0
  9
$DIMALTD
 70
2
  9
$DIMALTF
 40
25.399999999999999
  9
$DIMALTRND
 40
0.0
  9
$DIMALTTD
 70
2
  9
$DIMALTTZ
 70
0
  9
$DIMALTU
 70
2
  9
$DIMALTZ
 70
0
  9
$DIMAPOST
  1

  9
$DIMASZ
 40
2.5
  9
$DIMATFIT
 70
3
  9
$DIMAUNIT
 70
0
  9
$DIMAZIN
 70
2
  9
$DIMCEN
 40
0.09
  9
$DIMDEC
 70
4
  9
$DIMDLE
 40
0.0
  9
$DIMDLI
 40
0.38
  9
$DIMDSEP
 70
46
  9
$DIMEXE
 40
1.25
  9
$DIMEXO
 40
0.625
  9
$DIMFRAC
 70
0
  9
$DIMGAP
 40
0.625
  9
$DIMJUST
 70
0
  9
$DIMLFAC
 40
1.0
  9
$DIMLUNIT
 70
2
  9
$DIMLWD
 70
-2
  9
$DIMLWE
 70
-2
  9
$DIMPOST
  1

  9
$DIMRND
 40
0.0
  9
$DIMSCALE
 40
1.0
  9
$DIMTAD
 70
0
  9
$DIMTDEC
 70
4
  9
$DIMTFAC
 40
1.0
  9
$DIMTM
 40
0.0
  9
$DIMTOLJ
 70
1
  9
$DIMTP
 40
0.0
  9
$DIMTSZ
 40
0.0
  9
$DIMTVP
 40
0.0
  9
$DIMTXT
 40
2.5
  9
$DIMTZIN
 70
0
  9
$DIMZIN
 70
8
  9
$DWGCODEPAGE
  3
ANSI_1252
  9
$ELEVATION
 40
0.0
  9
$EXTMAX
 10
-100000000000000000000.0
 20
-100000000000000000000.0
 30
-100000000000000000000.0
  9
$EXTMIN
 10
100000000000000000000.0
 20
100000000000000000000.0
 30
100000000000000000000.0
  9
$FILLETRAD
 40
0.5
  9
$INSBASE
 10
0.0
 20
0.0
 30
0.0
  9
$INSUNITS
 70
6
  9
$LIMMAX
 10
12.0
 20
9.0
  9
$LIMMIN
 10
0.0
 20
0.0
  9
$LTSCALE
 40
1.0
  9
$LUNITS
 70
2
  9
$LUPREC
 70
4
  9
$MAXACTVP
 70
2
  9
$PDMODE
 70
0
  9
$PDSIZE
 40
0.0
  9
$PELEVATION
 40
0.0
  9
$PEXTMAX
 10
-100000000000000000000.0
 20
-100000000000000000000.0
 30
-100000000000000000000.0
  9
$PEXTMIN
 10
100000000000000000000.0
 20
100000000000000000000.0
 30
100000000000000000000.0
  9
$PINSBASE
 10
0.0
 20
0.0
 30
0.0
  9
$PLIMMAX
 10
12.0
 20
9.0
  9
$PLIMMIN
 10
0.0
 20
0.0
  9
$PLINEWID
 40
0.0
  9
$PROXYGRAPHICS
 70
1
  9
$PUCSORG
 10
0.0
 20
0.0
 30
0.0
  9
$PUCSXDIR
 10
1.0
 20
0.0
 30
0.0
  9
$PUCSYDIR
 10
0.0
 20
1.0
 30
0.0
  9
$SHADEDGE
 70
3
  9
$SHADEDIF
 70
70
  9
$SKETCHINC
 40
0.1
  9
$SPLINESEGS
 70
8
  9
$SPLINETYPE
 70
6
  9
$SURFTAB1
 70
6
  9
$SURFTAB2
 70
6
  9
$SURFTYPE
 70
6
  9
$SURFU
 70
6
  9
$SURFV
 70
6
  9
$TEXTSIZE
 40
2.5
  9
$THICKNESS
 40
0.0
  9
$TRACEWID
 40
0.05
  9
$TREEDEPTH
 70
3020
  9
$UCSORG
 10
0.0
 20
0.0
 30
0.0
  9
$UCSXDIR
 10
1.0
 20
0.0
 30
0.0
  9
$UCSYDIR
 10
0.0
 20
1.0
 30
0.0
  9
$UNITMODE
 70
0
  9
$USERI1
 70
0
  9
$USERI2
 70
0
  9
$USERI3
 70
0
  9
$USERI4
 70
0
  9
$USERI5
 70
0
  9
$USERR1
 40
0.0
  9
$USERR2
 40
0.0
  9
$USERR3
 40
0.0
  9
$USERR4
 40
0.0
  9
$USERR5
 40
0.0
  0
ENDSEC
  0
SECTION
  2
TABLES
  0
TABLE
  2
VPORT
  5
8
100
AcDbSymbolTable
 70
1
  0
VPORT
  5
30
100
AcDbSymbolTableRecord
100
AcDbViewportTableRecord
  2
*Active
 70
0
 10
0.0
 20
0.0
 11
1.0
 21
1.0
 12
286.30555555555549
 22
148.5
 13
0.0
 23
0.0
 14
10.0
 24
10.0
 15
10.0
 25
10.0
 16
0.0
 26
0.0
 36
1.0
 17
0.0
 27
0.0
 37
0.0
 40
297.0
 41
1.92798353909465
 42
50.0
 43
0.0
 44
0.0
 50
0.0
 51
0.0
 71
0
 72
100
 73
1
 74
3
 75
1
 76
1
 77
0
 78
0
281
0
 65
1
110
0.0
120
0.0
130
0.0
111
1.0
121
0.0
131
0.0
112
0.0
122
1.0
132
0.0
 79
0
146
0.0
  0
ENDTAB
  0
TABLE
  2
LTYPE
  5
5
100
AcDbSymbolTable
 70
50
  0
LTYPE
  5
16
100
AcDbSymbolTableRecord
100
AcDbLinetypeTableRecord
  2
Continuous
 70
0
  3
Solid line
 72
65
 73
0
 40
0.0
  0
LTYPE
  5
31
100
AcDbSymbolTableRecord
100
AcDbLinetypeTableRecord
  2
ACAD_ISO15W100
 70
0
  3
ISO double-dash triple-dot __ __ . . . __ __ . .
 72
65
 73
10
 40
39.000000000000007
 49
12.0
 74
0
 49
-3.0
 74
0
 49
12.0
 74
0
 49
-2.9500000000000002
 74
0
 49
0.1
 74
0
 49
-2.8999999999999999
 74
0
 49
0.1
 74
0
 49
-2.8999999999999999
 74
0
 49
0.1
 74
0
 49
-2.9500000000000002
 74
0
  0
LTYPE
  5
32
100
AcDbSymbolTableRecord
100
AcDbLinetypeTableRecord
  2
HOT_WATER_SUPPLY
 70
0
  3
Hot water supply ---- HW ---- HW ---- HW ----
 72
65
 73
3
 40
22.859999999999999
 49
12.699999999999999
 74
0
 49
-5.0800000000000001
 74
0
 49
-5.0800000000000001
 74
0
  0
LTYPE
  5
33
100
AcDbSymbolTableRecord
100
AcDbLinetypeTableRecord
  2
DIVIDE
 70
0
  3
Divide ____ . . ____ . . ____ . . ____ . . ____
 72
65
 73
6
 40
31.750000000000004
 49
12.699999999999999
 74
0
 49
-6.2999999999999998
 74
0
 49
0.1
 74
0
 49
-6.25
 74
0
 49
0.1
 74
0
 49
-6.2999999999999998
 74
0
  0
LTYPE
  5
34
100
AcDbSymbolTableRecord
100
AcDbLinetypeTableRecord
  2
ACAD_ISO10W100
 70
0
  3
ISO dash dot __ . __ . __ . __ . __ . __ . __ .
 72
65
 73
4
 40
18.0
 49
12.0
 74
0
 49
-2.9500000000000002
 74
0
 49
0.1
 74
0
 49
-2.9500000000000002
 74
0
  0
LTYPE
  5
35
100
AcDbSymbolTableRecord
100
AcDbLinetypeTableRecord
  2
GAS_LINE
 70
0
  3
Gas line ----GAS----GAS----GAS----GAS----GAS----GAS--
 72
65
 73
3
 40
24.130000000000003
 49
12.699999999999999
 74
0
 49
-5.0800000000000001
 74
0
 49
-6.3499999999999996
 74
0
  0
LTYPE
  5
36
100
AcDbSymbolTableRecord
100
AcDbLinetypeTableRecord
  2
ACAD_ISO04W100
 70
0
  3
ISO long-dash dot ____ . ____ . ____ . ____ . _
 72
65
 73
4
 40
30.0
 49
24.0
 74
0
 49
-2.9500000000000002
 74
0
 49
0.1
 74
0
 49
-2.9500000000000002
 74
0
  0
LTYPE
  5
14
100
AcDbSymbolTableRecord
100
AcDbLinetypeTableRecord
  2
ByBlock
 70
0
  3

 72
65
 73
0
 40
0.0
  0
LTYPE
  5
37
100
AcDbSymbolTableRecord
100
AcDbLinetypeTableRecord
  2
CENTER2
 70
0
  3
Center (.5x) ___ _ ___ _ ___ _ ___ _ ___ _ ___
 72
65
 73
4
 40
28.575000000000003
 49
19.050000000000001
 74
0
 49
-3.1749999999999998
 74
0
 49
3.1749999999999998
 74
0
 49
-3.1749999999999998
 74
0
  0
LTYPE
  5
38
100
AcDbSymbolTableRecord
100
AcDbLinetypeTableRecord
  2
ACAD_ISO11W100
 70
0
  3
ISO double-dash dot __ __ . __ __ . __ __ . __ _
 72
65
 73
6
 40
33.0
 49
12.0
 74
0
 49
-3.0
 74
0
 49
12.0
 74
0
 49
-2.9500000000000002
 74
0
 49
0.1
 74
0
 49
-2.9500000000000002
 74
0
  0
LTYPE
  5
39
100
AcDbSymbolTableRecord
100
AcDbLinetypeTableRecord
  2
HIDDEN2
 70
0
  3
Hidden (.5x) _ _ _ _ _ _ _ _ _ _ _ _ _ _ _ _ _
 72
65
 73
2
 40
4.7624999999999993
 49
3.1749999999999998
 74
0
 49
-1.5874999999999999
 74
0
  0
LTYPE
  5
3A
100
AcDbSymbolTableRecord
100
AcDbLinetypeTableRecord
  2
BORDERX2
 70
0
  3
Border (2x) ____  ____  .  ____  ____  .  ___
 72
65
 73
6
 40
88.899999999999991
 49
25.399999999999999
 74
0
 49
-12.699999999999999
 74
0
 49
25.399999999999999
 74
0
 49
-12.65
 74
0
 49
0.1
 74
0
 49
-12.65
 74
0
  0
LTYPE
  5
3B
100
AcDbSymbolTableRecord
100
AcDbLinetypeTableRecord
  2
ACAD_ISO05W100
 70
0
  3
ISO long-dash double-dot ____ .. ____ .. ____ .
 72
65
 73
6
 40
33.0
 49
24.0
 74
0
 49
-2.9500000000000002
 74
0
 49
0.1
 74
0
 49
-2.8999999999999999
 74
0
 49
0.1
 74
0
 49
-2.9500000000000002
 74
0
  0
LTYPE
  5
3C
100
AcDbSymbolTableRecord
100
AcDbLinetypeTableRecord
  2
DASHDOTX2
 70
0
  3
Dash dot (2x) ____  .  ____  .  ____  .  ___
 72
65
 73
4
 40
50.799999999999997
 49
25.399999999999999
 74
0
 49
-12.65
 74
0
 49
0.1
 74
0
 49
-12.65
 74
0
  0
LTYPE
  5
3D
100
AcDbSymbolTableRecord
100
AcDbLinetypeTableRecord
  2
HIDDENX2
 70
0
  3
Hidden (2x) ____ ____ ____ ____ ____ ____ ____
 72
65
 73
2
 40
19.049999999999997
 49
12.699999999999999
 74
0
 49
-6.3499999999999996
 74
0
  0
LTYPE
  5
3E
100
AcDbSymbolTableRecord
100
AcDbLinetypeTableRecord
  2
CENTERX2
 70
0
  3
Center (2x) ________  __  ________  __  _____
 72
65
 73
4
 40
101.60000000000001
 49
63.5
 74
0
 49
-12.699999999999999
 74
0
 49
12.699999999999999
 74
0
 49
-12.699999999999999
 74
0
  0
LTYPE
  5
3F
100
AcDbSymbolTableRecord
100
AcDbLinetypeTableRecord
  2
BORDER2
 70
0
  3
Border (.5x) __.__.__.__.__.__.__.__.__.__.__.
 72
65
 73
6
 40
22.225000000000001
 49
6.3499999999999996
 74
0
 49
-3.1749999999999998
 74
0
 49
6.3499999999999996
 74
0
 49
-3.125
 74
0
 49
0.1
 74
0
 49
-3.125
 74
0
  0
LTYPE
  5
40
100
AcDbSymbolTableRecord
100
AcDbLinetypeTableRecord
  2
DASHDOT2
 70
0
  3
Dash dot (.5x) _._._._._._._._._._._._._._._.
 72
65
 73
4
 40
12.699999999999999
 49
6.3499999999999996
 74
0
 49
-3.125
 74
0
 49
0.1
 74
0
 49
-3.125
 74
0
  0
LTYPE
  5
41
100
AcDbSymbolTableRecord
100
AcDbLinetypeTableRecord
  2
ACAD_ISO12W100
 70
0
  3
ISO dash double-dot __ . . __ . . __ . . __ . .
 72
65
 73
6
 40
21.0
 49
12.0
 74
0
 49
-2.9500000000000002
 74
0
 49
0.1
 74
0
 49
-2.8999999999999999
 74
0
 49
0.1
 74
0
 49
-2.9500000000000002
 74
0
  0
LTYPE
  5
42
100
AcDbSymbolTableRecord
100
AcDbLinetypeTableRecord
  2
ACAD_ISO07W100
 70
0
  3
ISO dot . . . . . . . . . . . . . . . . . . . .
 72
65
 73
2
 40
3.0
 49
0.1
 74
0
 49
-2.8999999999999999
 74
0
  0
LTYPE
  5
43
100
AcDbSymbolTableRecord
100
AcDbLinetypeTableRecord
  2
ACAD_ISO06W100
 70
0
  3
ISO long-dash triple-dot ____ ... ____ ... ____
 72
65
 73
8
 40
36.000000000000007
 49
24.0
 74
0
 49
-2.9500000000000002
 74
0
 49
0.1
 74
0
 49
-2.8999999999999999
 74
0
 49
0.1
 74
0
 49
-2.8999999999999999
 74
0
 49
0.1
 74
0
 49
-2.9500000000000002
 74
0
  0
LTYPE
  5
44
100
AcDbSymbolTableRecord
100
AcDbLinetypeTableRecord
  2
CENTER
 70
0
  3
Center ____ _ ____ _ ____ _ ____ _ ____ _ ____
 72
65
 73
4
 40
50.800000000000004
 49
31.75
 74
0
 49
-6.3499999999999996
 74
0
 49
6.3499999999999996
 74
0
 49
-6.3499999999999996
 74
0
  0
LTYPE
  5
45
100
AcDbSymbolTableRecord
100
AcDbLinetypeTableRecord
  2
HIDDEN
 70
0
  3
Hidden __ __ __ __ __ __ __ __ __ __ __ __ __ __
 72
65
 73
2
 40
9.5249999999999986
 49
6.3499999999999996
 74
0
 49
-3.1749999999999998
 74
0
  0
LTYPE
  5
46
100
AcDbSymbolTableRecord
100
AcDbLinetypeTableRecord
  2
DOTX2
 70
0
  3
Dot (2x) .  .  .  .  .  .  .  .  .  .  .  .  .  .
 72
65
 73
2
 40
12.699999999999999
 49
0.1
 74
0
 49
-12.6
 74
0
  0
LTYPE
  5
47
100
AcDbSymbolTableRecord
100
AcDbLinetypeTableRecord
  2
PHANTOM
 70
0
  3
Phantom ______  __  __  ______  __  __  ______
 72
65
 73
6
 40
63.500000000000007
 49
31.75
 74
0
 49
-6.3499999999999996
 74
0
 49
6.3499999999999996
 74
0
 49
-6.3499999999999996
 74
0
 49
6.3499999999999996
 74
0
 49
-6.3499999999999996
 74
0
  0
LTYPE
  5
48
100
AcDbSymbolTableRecord
100
AcDbLinetypeTableRecord
  2
ACAD_ISO08W100
 70
0
  3
ISO long-dash short-dash ____ __ ____ __ ____ _
 72
65
 73
4
 40
36.0
 49
24.0
 74
0
 49
-3.0
 74
0
 49
6.0
 74
0
 49
-3.0
 74
0
  0
LTYPE
  5
49
100
AcDbSymbolTableRecord
100
AcDbLinetypeTableRecord
  2
DASHEDX2
 70
0
  3
Dashed (2x) ____  ____  ____  ____  ____  ___
 72
65
 73
2
 40
38.099999999999994
 49
25.399999999999999
 74
0
 49
-12.699999999999999
 74
0
  0
LTYPE
  5
4A
100
AcDbSymbolTableRecord
100
AcDbLinetypeTableRecord
  2
DRAINAGE
 70
0
  3
Drainage ---->---->---->----
 72
65
 73
2
 40
10.16
 49
5.0800000000000001
 74
0
 49
5.0800000000000001
 74
0
  0
LTYPE
  5
4B
100
AcDbSymbolTableRecord
100
AcDbLinetypeTableRecord
  2
ACAD_ISO02W100
 70
0
  3
ISO dash __ __ __ __ __ __ __ __ __ __ __ __ __
 72
65
 73
2
 40
15.0
 49
12.0
 74
0
 49
-3.0
 74
0
  0
LTYPE
  5
4C
100
AcDbSymbolTableRecord
100
AcDbLinetypeTableRecord
  2
PHANTOM2
 70
0
  3
Phantom (.5x) ___ _ _ ___ _ _ ___ _ _ ___ _ _
 72
65
 73
6
 40
31.750000000000004
 49
15.875
 74
0
 49
-3.1749999999999998
 74
0
 49
3.1749999999999998
 74
0
 49
-3.1749999999999998
 74
0
 49
3.1749999999999998
 74
0
 49
-3.1749999999999998
 74
0
  0
LTYPE
  5
4D
100
AcDbSymbolTableRecord
100
AcDbLinetypeTableRecord
  2
DASHED2
 70
0
  3
Dashed (.5x) _ _ _ _ _ _ _ _ _ _ _ _ _ _ _ _ _
 72
65
 73
2
 40
9.5249999999999986
 49
6.3499999999999996
 74
0
 49
-3.1749999999999998
 74
0
  0
LTYPE
  5
4E
100
AcDbSymbolTableRecord
100
AcDbLinetypeTableRecord
  2
ACAD_ISO09W100
 70
0
  3
ISO long-dash double-short-dash ____ __ __ ____
 72
65
 73
6
 40
45.0
 49
24.0
 74
0
 49
-3.0
 74
0
 49
6.0
 74
0
 49
-3.0
 74
0
 49
6.0
 74
0
 49
-3.0
 74
0
  0
LTYPE
  5
4F
100
AcDbSymbolTableRecord
100
AcDbLinetypeTableRecord
  2
ACAD_ISO13W100
 70
0
  3
ISO double-dash double-dot __ __ . . __ __ . . _
 72
65
 73
8
 40
36.000000000000007
 49
12.0
 74
0
 49
-3.0
 74
0
 49
12.0
 74
0
 49
-2.9500000000000002
 74
0
 49
0.1
 74
0
 49
-2.8999999999999999
 74
0
 49
0.1
 74
0
 49
-2.9500000000000002
 74
0
  0
LTYPE
  5
50
100
AcDbSymbolTableRecord
100
AcDbLinetypeTableRecord
  2
TRACKS
 70
0
  3
Tracks -|-|-|-|-|-|-|-|-|-|-|-|-|-|-|-|-|-|-|-|-|-|-|-|-
 72
65
 73
2
 40
7.6200000000000001
 49
3.8100000000000001
 74
0
 49
3.8100000000000001
 74
0
  0
LTYPE
  5
51
100
AcDbSymbolTableRecord
100
AcDbLinetypeTableRecord
  2
DRAINAGE2
 70
0
  3
Drainage reversed----<----<----<----
 72
65
 73
2
 40
10.16
 49
5.0800000000000001
 74
0
 49
5.0800000000000001
 74
0
  0
LTYPE
  5
52
100
AcDbSymbolTableRecord
100
AcDbLinetypeTableRecord
  2
DOT2
 70
0
  3
Dot (.5x) ........................................
 72
65
 73
2
 40
3.1750000000000003
 49
0.1
 74
0
 49
-3.0750000000000002
 74
0
  0
LTYPE
  5
53
100
AcDbSymbolTableRecord
100
AcDbLinetypeTableRecord
  2
ZIGZAG
 70
0
  3
Zig zag /\/\/\/\/\/\/\/\/\/\/\/\/\/\/\/\/\/\/\/\/\/\/\/
 72
65
 73
4
 40
20.32254
 49
0.00254
 74
0
 49
-5.0800000000000001
 74
0
 49
-10.16
 74
0
 49
-5.0800000000000001
 74
0
  0
LTYPE
  5
54
100
AcDbSymbolTableRecord
100
AcDbLinetypeTableRecord
  2
DASHED
 70
0
  3
Dashed __ __ __ __ __ __ __ __ __ __ __ __ __ _
 72
65
 73
2
 40
19.049999999999997
 49
12.699999999999999
 74
0
 49
-6.3499999999999996
 74
0
  0
LTYPE
  5
55
100
AcDbSymbolTableRecord
100
AcDbLinetypeTableRecord
  2
ACAD_ISO14W100
 70
0
  3
ISO dash triple-dot __ . . . __ . . . __ . . . _
 72
65
 73
8
 40
24.0
 49
12.0
 74
0
 49
-2.9500000000000002
 74
0
 49
0.1
 74
0
 49
-2.8999999999999999
 74
0
 49
0.1
 74
0
 49
-2.8999999999999999
 74
0
 49
0.1
 74
0
 49
-2.9500000000000002
 74
0
  0
LTYPE
  5
56
100
AcDbSymbolTableRecord
100
AcDbLinetypeTableRecord
  2
PHANTOMX2
 70
0
  3
Phantom (2x) ____________    ____    ____   _
 72
65
 73
6
 40
127.00000000000001
 49
63.5
 74
0
 49
-12.699999999999999
 74
0
 49
12.699999999999999
 74
0
 49
-12.699999999999999
 74
0
 49
12.699999999999999
 74
0
 49
-12.699999999999999
 74
0
  0
LTYPE
  5
57
100
AcDbSymbolTableRecord
100
AcDbLinetypeTableRecord
  2
DIVIDEX2
 70
0
  3
Divide (2x) ________  .  .  ________  .  .  _
 72
65
 73
6
 40
63.5
 49
25.399999999999999
 74
0
 49
-12.65
 74
0
 49
0.1
 74
0
 49
-12.6
 74
0
 49
0.1
 74
0
 49
-12.65
 74
0
  0
LTYPE
  5
58
100
AcDbSymbolTableRecord
100
AcDbLinetypeTableRecord
  2
BORDER
 70
0
  3
Border __ __ . __ __ . __ __ . __ __ . __ __ .
 72
65
 73
6
 40
44.449999999999996
 49
12.699999999999999
 74
0
 49
-6.3499999999999996
 74
0
 49
12.699999999999999
 74
0
 49
-6.2999999999999998
 74
0
 49
0.1
 74
0
 49
-6.2999999999999998
 74
0
  0
LTYPE
  5
59
100
AcDbSymbolTableRecord
100
AcDbLinetypeTableRecord
  2
DIVIDE2
 70
0
  3
Divide (.5x) __..__..__..__..__..__..__..__.._
 72
65
 73
6
 40
15.874999999999998
 49
6.3499999999999996
 74
0
 49
-3.125
 74
0
 49
0.1
 74
0
 49
-3.0750000000000002
 74
0
 49
0.1
 74
0
 49
-3.125
 74
0
  0
LTYPE
  5
5A
100
AcDbSymbolTableRecord
100
AcDbLinetypeTableRecord
  2
DOT
 70
0
  3
Dot . . . . . . . . . . . . . . . . . . . . . . . .
 72
65
 73
2
 40
6.3499999999999996
 49
0.1
 74
0
 49
-6.25
 74
0
  0
LTYPE
  5
5B
100
AcDbSymbolTableRecord
100
AcDbLinetypeTableRecord
  2
DASHDOT
 70
0
  3
Dash dot __ . __ . __ . __ . __ . __ . __ . __
 72
65
 73
4
 40
25.400000000000002
 49
12.699999999999999
 74
0
 49
-6.2999999999999998
 74
0
 49
0.1
 74
0
 49
-6.2999999999999998
 74
0
  0
LTYPE
  5
5C
100
AcDbSymbolTableRecord
100
AcDbLinetypeTableRecord
  2
FENCELINE1
 70
0
  3
Fenceline circle ----0-----0----0-----0----0-----0--
 72
65
 73
4
 40
36.829999999999998
 49
6.3499999999999996
 74
0
 49
-2.54
 74
0
 49
-2.54
 74
0
 49
25.399999999999999
 74
0
  0
LTYPE
  5
5D
100
AcDbSymbolTableRecord
100
AcDbLinetypeTableRecord
  2
BATTING
 70
0
  3
Batting SSSSSSSSSSSSSSSSSSSSSSSSSSSSSSSSSSSSSSSSSSSSSSS
 72
65
 73
4
 40
10.16254
 49
0.00254
 74
0
 49
-2.54
 74
0
 49
-5.0800000000000001
 74
0
 49
-2.54
 74
0
  0
LTYPE
  5
5E
100
AcDbSymbolTableRecord
100
AcDbLinetypeTableRecord
  2
ACAD_ISO03W100
 70
0
  3
ISO dash space __    __    __    __    __    __
 72
65
 73
2
 40
30.0
 49
12.0
 74
0
 49
-18.0
 74
0
  0
LTYPE
  5
15
100
AcDbSymbolTableRecord
100
AcDbLinetypeTableRecord
  2
ByLayer
 70
0
  3

 72
65
 73
0
 40
0.0
  0
LTYPE
  5
5F
100
AcDbSymbolTableRecord
100
AcDbLinetypeTableRecord
  2
FENCELINE2
 70
0
  3
Fenceline square ----[]-----[]----[]-----[]----[]---
 72
65
 73
4
 40
36.829999999999998
 49
6.3499999999999996
 74
0
 49
-2.54
 74
0
 49
-2.54
 74
0
 49
25.399999999999999
 74
0
  0
ENDTAB
  0
TABLE
  2
LAYER
  5
2
100
AcDbSymbolTable
 70
60
  0
LAYER
  5
60
100
AcDbSymbolTableRecord
100
AcDbLayerTableRecord
  2
Raum_326
 70
0
 62
1
420
16711680
  6
Continuous
370
25
390
F
  0
LAYER
  5
61
100
AcDbSymbolTableRecord
100
AcDbLayerTableRecord
  2
Raum_327
 70
0
 62
1
420
16711680
  6
Continuous
370
25
390
F
  0
LAYER
  5
62
100
AcDbSymbolTableRecord
100
AcDbLayerTableRecord
  2
Raum_328
 70
0
 62
1
420
16711680
  6
Continuous
370
25
390
F
  0
LAYER
  5
63
100
AcDbSymbolTableRecord
100
AcDbLayerTableRecord
  2
Raum_RT_010
 70
0
 62
6
420
16711935
  6
Continuous
370
25
390
F
  0
LAYER
  5
64
100
AcDbSymbolTableRecord
100
AcDbLayerTableRecord
  2
Raum_RT_011
 70
0
 62
6
420
16711935
  6
Continuous
370
25
390
F
  0
LAYER
  5
65
100
AcDbSymbolTableRecord
100
AcDbLayerTableRecord
  2
Raum_330
 70
0
 62
1
420
16711680
  6
Continuous
370
25
390
F
  0
LAYER
  5
66
100
AcDbSymbolTableRecord
100
AcDbLayerTableRecord
  2
Raum_331
 70
0
 62
1
420
16711680
  6
Continuous
370
25
390
F
  0
LAYER
  5
67
100
AcDbSymbolTableRecord
100
AcDbLayerTableRecord
  2
Raum_332
 70
0
 62
1
420
16711680
  6
Continuous
370
25
390
F
  0
LAYER
  5
68
100
AcDbSymbolTableRecord
100
AcDbLayerTableRecord
  2
Raum_333
 70
0
 62
1
420
16711680
  6
Continuous
370
25
390
F
  0
LAYER
  5
69
100
AcDbSymbolTableRecord
100
AcDbLayerTableRecord
  2
Raum_334
 70
0
 62
1
420
16711680
  6
Continuous
370
25
390
F
  0
LAYER
  5
6A
100
AcDbSymbolTableRecord
100
AcDbLayerTableRecord
  2
Raum_335
 70
0
 62
1
420
16711680
  6
Continuous
370
25
390
F
  0
LAYER
  5
6B
100
AcDbSymbolTableRecord
100
AcDbLayerTableRecord
  2
Raum_336
 70
0
 62
1
420
16711680
  6
Continuous
370
25
390
F
  0
LAYER
  5
6C
100
AcDbSymbolTableRecord
100
AcDbLayerTableRecord
  2
Raum_337
 70
0
 62
1
420
16711680
  6
Continuous
370
25
390
F
  0
LAYER
  5
6D
100
AcDbSymbolTableRecord
100
AcDbLayerTableRecord
  2
Raum_338
 70
0
 62
1
420
16711680
  6
Continuous
370
25
390
F
  0
LAYER
  5
6E
100
AcDbSymbolTableRecord
100
AcDbLayerTableRecord
  2
Raum_339
 70
0
 62
1
420
16711680
  6
Continuous
370
25
390
F
  0
LAYER
  5
6F
100
AcDbSymbolTableRecord
100
AcDbLayerTableRecord
  2
Raum_001
 70
0
 62
1
420
16711680
  6
Continuous
370
25
390
F
  0
LAYER
  5
70
100
AcDbSymbolTableRecord
100
AcDbLayerTableRecord
  2
Rolltreppen
 70
0
 62
2
420
16776960
  6
Continuous
370
25
390
F
  0
LAYER
  5
71
100
AcDbSymbolTableRecord
100
AcDbLayerTableRecord
  2
Raum_002
 70
0
 62
1
420
16711680
  6
Continuous
370
25
390
F
  0
LAYER
  5
72
100
AcDbSymbolTableRecord
100
AcDbLayerTableRecord
  2
Raum_003
 70
0
 62
1
420
16711680
  6
Continuous
370
25
390
F
  0
LAYER
  5
73
100
AcDbSymbolTableRecord
100
AcDbLayerTableRecord
  2
Raum_340
 70
0
 62
1
420
16711680
  6
Continuous
370
25
390
F
  0
LAYER
  5
74
100
AcDbSymbolTableRecord
100
AcDbLayerTableRecord
  2
Raum_004
 70
0
 62
1
420
16711680
  6
Continuous
370
25
390
F
  0
LAYER
  5
75
100
AcDbSymbolTableRecord
100
AcDbLayerTableRecord
  2
Raum_341
 70
0
 62
1
420
16711680
  6
Continuous
370
25
390
F
  0
LAYER
  5
76
100
AcDbSymbolTableRecord
100
AcDbLayerTableRecord
  2
Raum_005
 70
0
 62
1
420
16711680
  6
Continuous
370
25
390
F
  0
LAYER
  5
77
100
AcDbSymbolTableRecord
100
AcDbLayerTableRecord
  2
Raum_342
 70
0
 62
1
420
16711680
  6
Continuous
370
25
390
F
  0
LAYER
  5
78
100
AcDbSymbolTableRecord
100
AcDbLayerTableRecord
  2
Raum_343
 70
0
 62
1
420
16711680
  6
Continuous
370
25
390
F
  0
LAYER
  5
79
100
AcDbSymbolTableRecord
100
AcDbLayerTableRecord
  2
Raum_344
 70
0
 62
1
420
16711680
  6
Continuous
370
25
390
F
  0
LAYER
  5
7A
100
AcDbSymbolTableRecord
100
AcDbLayerTableRecord
  2
Raum_345
 70
0
 62
1
420
16711680
  6
Continuous
370
25
390
F
  0
LAYER
  5
7B
100
AcDbSymbolTableRecord
100
AcDbLayerTableRecord
  2
Raum_346
 70
0
 62
1
420
16711680
  6
Continuous
370
25
390
F
  0
LAYER
  5
7C
100
AcDbSymbolTableRecord
100
AcDbLayerTableRecord
  2
Raum_348
 70
0
 62
1
420
16711680
  6
Continuous
370
25
390
F
  0
LAYER
  5
7D
100
AcDbSymbolTableRecord
100
AcDbLayerTableRecord
  2
Treppen
 70
0
 62
30
420
16742918
  6
Continuous
370
25
390
F
  0
LAYER
  5
7E
100
AcDbSymbolTableRecord
100
AcDbLayerTableRecord
  2
Raum_T_001
 70
0
 62
5
420
255
  6
Continuous
370
25
390
F
  0
LAYER
  5
7F
100
AcDbSymbolTableRecord
100
AcDbLayerTableRecord
  2
Raum_T_002
 70
0
 62
5
420
255
  6
Continuous
370
25
390
F
  0
LAYER
  5
80
100
AcDbSymbolTableRecord
100
AcDbLayerTableRecord
  2
Raum_T_003
 70
0
 62
5
420
255
  6
Continuous
370
25
390
F
  0
LAYER
  5
81
100
AcDbSymbolTableRecord
100
AcDbLayerTableRecord
  2
Raum_T_004
 70
0
 62
5
420
255
  6
Continuous
370
25
390
F
  0
LAYER
  5
82
100
AcDbSymbolTableRecord
100
AcDbLayerTableRecord
  2
Hintergrundbild
 70
1
 62
-7
420
16777215
  6
Continuous
370
25
390
F
  0
LAYER
  5
83
100
AcDbSymbolTableRecord
100
AcDbLayerTableRecord
  2
Raum_T_005
 70
0
 62
5
420
255
  6
Continuous
370
25
390
F
  0
LAYER
  5
84
100
AcDbSymbolTableRecord
100
AcDbLayerTableRecord
  2
Raum_T_006
 70
0
 62
5
420
255
  6
Continuous
370
25
390
F
  0
LAYER
  5
85
100
AcDbSymbolTableRecord
100
AcDbLayerTableRecord
  2
Raum_T_007
 70
0
 62
5
420
255
  6
Continuous
370
25
390
F
  0
LAYER
  5
10
100
AcDbSymbolTableRecord
100
AcDbLayerTableRecord
  2
0
 70
0
 62
7
420
16777215
  6
Continuous
370
25
390
F
  0
LAYER
  5
86
100
AcDbSymbolTableRecord
100
AcDbLayerTableRecord
  2
Raum_T_008
 70
0
 62
5
420
255
  6
Continuous
370
25
390
F
  0
LAYER
  5
87
100
AcDbSymbolTableRecord
100
AcDbLayerTableRecord
  2
Raum_357
 70
0
 62
1
420
16711680
  6
Continuous
370
25
390
F
  0
LAYER
  5
88
100
AcDbSymbolTableRecord
100
AcDbLayerTableRecord
  2
Raum_T_009
 70
0
 62
5
420
255
  6
Continuous
370
25
390
F
  0
LAYER
  5
89
100
AcDbSymbolTableRecord
100
AcDbLayerTableRecord
  2
Raum_RT_001
 70
0
 62
6
420
16711935
  6
Continuous
370
25
390
F
  0
LAYER
  5
8A
100
AcDbSymbolTableRecord
100
AcDbLayerTableRecord
  2
Raum_RT_002
 70
0
 62
6
420
16711935
  6
Continuous
370
25
390
F
  0
LAYER
  5
8B
100
AcDbSymbolTableRecord
100
AcDbLayerTableRecord
  2
Raum_RT_003
 70
0
 62
6
420
16711935
  6
Continuous
370
25
390
F
  0
LAYER
  5
8C
100
AcDbSymbolTableRecord
100
AcDbLayerTableRecord
  2
Raum_319
 70
0
 62
1
420
16711680
  6
Continuous
370
25
390
F
  0
LAYER
  5
8D
100
AcDbSymbolTableRecord
100
AcDbLayerTableRecord
  2
Raum_RT_004
 70
0
 62
6
420
16711935
  6
Continuous
370
25
390
F
  0
LAYER
  5
8E
100
AcDbSymbolTableRecord
100
AcDbLayerTableRecord
  2
Raum_RT_005
 70
0
 62
6
420
16711935
  6
Continuous
370
25
390
F
  0
LAYER
  5
8F
100
AcDbSymbolTableRecord
100
AcDbLayerTableRecord
  2
Raum_RT_006
 70
0
 62
6
420
16711935
  6
Continuous
370
25
390
F
  0
LAYER
  5
90
100
AcDbSymbolTableRecord
100
AcDbLayerTableRecord
  2
Hilfslinien
 70
0
 62
18
420
2490368
  6
Continuous
370
25
390
F
  0
LAYER
  5
91
100
AcDbSymbolTableRecord
100
AcDbLayerTableRecord
  2
Raum_RT_007
 70
0
 62
6
420
16711935
  6
Continuous
370
25
390
F
  0
LAYER
  5
92
100
AcDbSymbolTableRecord
100
AcDbLayerTableRecord
  2
Raum_360
 70
0
 62
1
420
16711680
  6
Continuous
370
25
390
F
  0
LAYER
  5
93
100
AcDbSymbolTableRecord
100
AcDbLayerTableRecord
  2
Raum_RT_008
 70
0
 62
6
420
16711935
  6
Continuous
370
25
390
F
  0
LAYER
  5
94
100
AcDbSymbolTableRecord
100
AcDbLayerTableRecord
  2
Raum_RT_009
 70
0
 62
6
420
16711935
  6
Continuous
370
25
390
F
  0
LAYER
  5
95
100
AcDbSymbolTableRecord
100
AcDbLayerTableRecord
  2
Raum_320
 70
0
 62
1
420
16711680
  6
Continuous
370
25
390
F
  0
LAYER
  5
96
100
AcDbSymbolTableRecord
100
AcDbLayerTableRecord
  2
Raum_321
 70
0
 62
1
420
16711680
  6
Continuous
370
25
390
F
  0
LAYER
  5
97
100
AcDbSymbolTableRecord
100
AcDbLayerTableRecord
  2
Raum_323
 70
0
 62
1
420
16711680
  6
Continuous
370
25
390
F
  0
LAYER
  5
98
100
AcDbSymbolTableRecord
100
AcDbLayerTableRecord
  2
Raum_324
 70
0
 62
1
420
16711680
  6
Continuous
370
25
390
F
  0
LAYER
  5
99
100
AcDbSymbolTableRecord
100
AcDbLayerTableRecord
  2
Tueren
 70
0
 62
3
420
65280
  6
Continuous
370
25
390
F
  0
LAYER
  5
9A
100
AcDbSymbolTableRecord
100
AcDbLayerTableRecord
  2
Raum_325
 70
0
 62
1
420
16711680
  6
Continuous
370
25
390
F
  0
ENDTAB
  0
TABLE
  2
STYLE
  5
3
100
AcDbSymbolTable
 70
2
  0
STYLE
  5
9B
100
AcDbSymbolTableRecord
100
AcDbTextStyleTableRecord
  2
Standard
 70
0
 40
0.0
 41
1.0
 50
0.0
 71
0
 42
2.5
  3

  4

1001
ACAD
1000
txt
1071
0
  0
STYLE
  5
9C
100
AcDbSymbolTableRecord
100
AcDbTextStyleTableRecord
  2
textstyle0
 70
0
 40
0.0
 41
1.0
 50
0.0
 71
0
 42
15.0
  3

  4

1001
ACAD
1000
Arial
1071
0
  0
ENDTAB
  0
TABLE
  2
VIEW
  5
6
100
AcDbSymbolTable
 70
0
  0
ENDTAB
  0
TABLE
  2
UCS
  5
7
100
AcDbSymbolTable
 70
0
  0
ENDTAB
  0
TABLE
  2
APPID
  5
9
100
AcDbSymbolTable
 70
1
  0
APPID
  5
12
100
AcDbSymbolTableRecord
100
AcDbRegAppTableRecord
  2
ACAD
 70
0
  0
APPID
  5
9D
100
AcDbSymbolTableRecord
100
AcDbRegAppTableRecord
  2
QCAD
 70
0
  0
ENDTAB
  0
TABLE
  2
DIMSTYLE
  5
A
100
AcDbSymbolTable
 70
1
100
AcDbDimStyleTable
 71
0
  0
DIMSTYLE
105
27
100
AcDbSymbolTableRecord
100
AcDbDimStyleTableRecord
  2
Standard
 41
2.5
 42
0.625
 43
3.75
 44
1.25
 70
0
 73
0
 74
0
 77
1
 78
8
140
2.5
141
2.5
143
0.03937007874016
147
0.625
171
3
172
1
271
2
272
2
274
3
278
44
283
0
284
8
340
9B
  0
ENDTAB
  0
TABLE
  2
BLOCK_RECORD
  5
1
100
AcDbSymbolTable
 70
1
  0
BLOCK_RECORD
  5
1F
100
AcDbSymbolTableRecord
100
AcDbBlockTableRecord
  2
*Model_Space
340
22
  0
BLOCK_RECORD
  5
1B
100
AcDbSymbolTableRecord
100
AcDbBlockTableRecord
  2
*Paper_Space
340
1E
  0
BLOCK_RECORD
  5
23
100
AcDbSymbolTableRecord
100
AcDbBlockTableRecord
  2
*Paper_Space0
340
26
  0
ENDTAB
  0
ENDSEC
  0
SECTION
  2
BLOCKS
  0
BLOCK
  5
20
100
AcDbEntity
  8
0
100
AcDbBlockBegin
  2
*Model_Space
 70
0
 10
0.0
 20
0.0
 30
0.0
  3
*Model_Space
  1

  0
ENDBLK
  5
21
100
AcDbEntity
  8
0
100
AcDbBlockEnd
  0
BLOCK
  5
1C
100
AcDbEntity
 67
1
  8
0
100
AcDbBlockBegin
  2
*Paper_Space
 70
0
 10
0.0
 20
0.0
 30
0.0
  3
*Paper_Space
  1

  0
ENDBLK
  5
1D
100
AcDbEntity
 67
1
  8
0
100
AcDbBlockEnd
  0
BLOCK
  5
24
100
AcDbEntity
  8
0
100
AcDbBlockBegin
  2
*Paper_Space0
 70
0
 10
0.0
 20
0.0
 30
0.0
  3
*Paper_Space0
  1

  0
ENDBLK
  5
25
100
AcDbEntity
  8
0
100
AcDbBlockEnd
  0
ENDSEC
  0
SECTION
  2
ENTITIES
  0
IMAGE
  5
9E
  8
Hintergrundbild
 62
256
370
-1
 48
1.0
  6
ByLayer
100
AcDbEntity
100
AcDbRasterImage
 90
0
 10
107.0
 20
572.0
 30
0.0
 11
1.0
 21
0.0
 31
0.0
 12
0.0000000000000001
 22
1.0
 32
0.0
 13
620.0
 23
385.0
340
9F
 70
15
280
0
281
50
282
50
283
0
  0
LINE
  5
A0
100
AcDbEntity
100
AcDbLine
  8
Raum_343
 62
256
370
-1
 48
1.0
  6
ByLayer
 10
582.96683454320987
 20
722.99696439834872
 30
0.0
 11
583.05016787654324
 21
720.99696439834872
 31
0.0
  0
LINE
  5
A1
100
AcDbEntity
100
AcDbLine
  8
Raum_001
 62
256
370
-1
 48
1.0
  6
ByLayer
 10
583.05016787654324
 20
720.99696439834872
 30
0.0
 11
585.71683454320987
 21
712.08029773168198
 31
0.0
  0
LINE
  5
A2
100
AcDbEntity
100
AcDbLine
  8
Raum_343
 62
256
370
-1
 48
1.0
  6
ByLayer
 10
582.96683454320987
 20
722.99696439834872
 30
0.0
 11
599.55871983127554
 21
722.94063723785473
 31
0.0
  0
LINE
  5
A3
100
AcDbEntity
100
AcDbLine
  8
Raum_343
 62
256
370
-1
 48
1.0
  6
ByLayer
 10
599.55871983127554
 20
722.94063723785473
 30
0.0
 11
617.49853464608998
 21
722.96378538600277
 31
0.0
  0
LINE
  5
A4
100
AcDbEntity
100
AcDbLine
  8
Raum_345
 62
256
370
-1
 48
1.0
  6
ByLayer
 10
617.49853464608998
 20
722.96378538600277
 30
0.0
 11
617.56797909053444
 21
712.06100760822494
 31
0.0
  0
LINE
  5
A5
100
AcDbEntity
100
AcDbLine
  8
Raum_001
 62
256
370
-1
 48
1.0
  6
ByLayer
 10
617.56797909053444
 20
712.06100760822494
 30
0.0
 11
612.01242353497889
 21
712.06100760822494
 31
0.0
  0
LINE
  5
A6
100
AcDbEntity
100
AcDbLine
  8
Raum_001
 62
256
370
-1
 48
1.0
  6
ByLayer
 10
617.56797909053444
 20
712.06100760822494
 30
0.0
 11
624.22237905986344
 21
712.07300257108898
 31
0.0
  0
LINE
  5
A7
100
AcDbEntity
100
AcDbLine
  8
Raum_343
 62
256
370
-1
 48
1.0
  6
ByLayer
 10
617.49853464608998
 20
722.96378538600277
 30
0.0
 11
640.54339142559513
 21
722.95447918545381
 31
0.0
  0
LINE
  5
A8
100
AcDbEntity
100
AcDbLine
  8
Raum_346
 62
256
370
-1
 48
1.0
  6
ByLayer
 10
653.94453957203552
 20
716.95010895965868
 30
0.0
 11
653.57518176649694
 21
722.92576693531998
 31
0.0
  0
LINE
  5
A9
100
AcDbEntity
100
AcDbLine
  8
Raum_343
 62
256
370
-1
 48
1.0
  6
ByLayer
 10
653.57518176649694
 20
722.92576693531998
 30
0.0
 11
640.54339142559513
 21
722.95447918545381
 31
0.0
  0
LINE
  5
AA
100
AcDbEntity
100
AcDbLine
  8
Raum_T_001
 62
256
370
-1
 48
1.0
  6
ByLayer
 10
653.57518176649694
 20
722.92576693531998
 30
0.0
 11
653.57518176649694
 21
722.92576693531998
 31
0.0
  0
LINE
  5
AB
100
AcDbEntity
100
AcDbLine
  8
Raum_T_001
 62
256
370
-1
 48
1.0
  6
ByLayer
 10
653.57518176649694
 20
722.92576693531998
 30
0.0
 11
653.57518176649694
 21
722.92576693531998
 31
0.0
  0
LINE
  5
AC
100
AcDbEntity
100
AcDbLine
  8
Raum_T_001
 62
256
370
-1
 48
1.0
  6
ByLayer
 10
653.57518176649694
 20
722.92576693531998
 30
0.0
 11
653.57518176649694
 21
722.92576693531998
 31
0.0
  0
LINE
  5
AD
100
AcDbEntity
100
AcDbLine
  8
Raum_T_001
 62
256
370
-1
 48
1.0
  6
ByLayer
 10
670.87050115670593
 20
776.00891065396229
 30
0.0
 11
675.63153370055124
 21
719.30934126816851
 31
0.0
  0
LINE
  5
AE
100
AcDbEntity
100
AcDbLine
  8
Raum_341
 62
256
370
-1
 48
1.0
  6
ByLayer
 10
569.50257792141997
 20
737.04133721253481
 30
0.0
 11
549.5758844742561
 21
736.92305725841413
 31
0.0
  0
LINE
  5
AF
100
AcDbEntity
100
AcDbLine
  8
Raum_341
 62
256
370
-1
 48
1.0
  6
ByLayer
 10
549.5758844742561
 20
736.92305725841413
 30
0.0
 11
549.5758844742561
 21
736.92305725841413
 31
0.0
  0
LINE
  5
B0
100
AcDbEntity
100
AcDbLine
  8
Raum_341
 62
256
370
-1
 48
1.0
  6
ByLayer
 10
549.5758844742561
 20
736.92305725841413
 30
0.0
 11
546.49617132844492
 21
736.92324279559705
 31
0.0
  0
LINE
  5
B1
100
AcDbEntity
100
AcDbLine
  8
Raum_341
 62
256
370
-1
 48
1.0
  6
ByLayer
 10
569.47348569113569
 20
763.53164970434398
 30
0.0
 11
534.41497332282052
 21
763.53164970434398
 31
0.0
  0
LINE
  5
B2
100
AcDbEntity
100
AcDbLine
  8
Raum_341
 62
256
370
-1
 48
1.0
  6
ByLayer
 10
534.55924703627034
 20
736.98528642957024
 30
0.0
 11
539.03647262823984
 21
736.98393200813484
 31
0.0
  0
LINE
  5
B3
100
AcDbEntity
100
AcDbLine
  8
Raum_343
 62
256
370
-1
 48
1.0
  6
ByLayer
 10
569.47348569113569
 20
763.53164970434398
 30
0.0
 11
569.50257792141997
 21
737.04133721253481
 31
0.0
  0
LINE
  5
B4
100
AcDbEntity
100
AcDbLine
  8
Raum_343
 62
256
370
-1
 48
1.0
  6
ByLayer
 10
569.50257792141997
 20
737.04133721253481
 30
0.0
 11
569.50257792141997
 21
721.11111468577985
 31
0.0
  0
LINE
  5
B5
100
AcDbEntity
100
AcDbLine
  8
Raum_343
 62
256
370
-1
 48
1.0
  6
ByLayer
 10
569.47348569113569
 20
763.53164970434398
 30
0.0
 11
649.60111291915564
 21
763.63186447017074
 31
0.0
  0
LINE
  5
B6
100
AcDbEntity
100
AcDbLine
  8
Raum_343
 62
256
370
-1
 48
1.0
  6
ByLayer
 10
649.60111291915564
 20
763.63186447017074
 30
0.0
 11
653.57518176649694
 21
722.92576693531998
 31
0.0
  0
LINE
  5
B7
100
AcDbEntity
100
AcDbLine
  8
Raum_001
 62
256
370
-1
 48
1.0
  6
ByLayer
 10
583.05016787654324
 20
720.99696439834872
 30
0.0
 11
579.17668622902568
 21
721.13646689464724
 31
0.0
  0
LINE
  5
B8
100
AcDbEntity
100
AcDbLine
  8
Raum_001
 62
256
370
-1
 48
1.0
  6
ByLayer
 10
569.50257792141997
 20
721.11111468577985
 30
0.0
 11
571.52327743297815
 21
721.13646689464724
 31
0.0
  0
LINE
  5
B9
100
AcDbEntity
100
AcDbLine
  8
Raum_001
 62
256
370
-1
 48
1.0
  6
ByLayer
 10
534.45877009392325
 20
720.05924303814197
 30
0.0
 11
538.36618316652357
 21
720.05924303814197
 31
0.0
  0
LINE
  5
BA
100
AcDbEntity
100
AcDbLine
  8
Raum_340
 62
256
370
-1
 48
1.0
  6
ByLayer
 10
549.5758844742561
 20
736.92305725841413
 30
0.0
 11
549.36437208571078
 21
731.13012256424201
 31
0.0
  0
LINE
  5
BB
100
AcDbEntity
100
AcDbLine
  8
Raum_340
 62
256
370
-1
 48
1.0
  6
ByLayer
 10
549.36437208571078
 20
722.91453610390306
 30
0.0
 11
549.36437208571078
 21
721.11111468577985
 31
0.0
  0
LINE
  5
BC
100
AcDbEntity
100
AcDbLine
  8
Raum_340
 62
256
370
-1
 48
1.0
  6
ByLayer
 10
534.51885128250842
 20
730.18033929411547
 30
0.0
 11
534.45877009392325
 21
720.05924303814197
 31
0.0
  0
LINE
  5
BD
100
AcDbEntity
100
AcDbLine
  8
Raum_339
 62
256
370
-1
 48
1.0
  6
ByLayer
 10
534.55924703627034
 20
736.98528642957024
 30
0.0
 11
534.51885128250842
 21
730.18033929411547
 31
0.0
  0
LINE
  5
BE
100
AcDbEntity
100
AcDbLine
  8
Raum_339
 62
256
370
-1
 48
1.0
  6
ByLayer
 10
534.51885128250842
 20
730.18033929411547
 30
0.0
 11
522.6584593542575
 21
730.19203198537332
 31
0.0
  0
LINE
  5
BF
100
AcDbEntity
100
AcDbLine
  8
Raum_339
 62
256
370
-1
 48
1.0
  6
ByLayer
 10
522.6584593542575
 20
730.19203198537332
 30
0.0
 11
522.6584593542575
 21
733.9133147442825
 31
0.0
  0
LINE
  5
C0
100
AcDbEntity
100
AcDbLine
  8
Raum_339
 62
256
370
-1
 48
1.0
  6
ByLayer
 10
522.6584593542575
 20
739.92052834080744
 30
0.0
 11
522.6584593542575
 21
745.92774193733248
 31
0.0
  0
LINE
  5
C1
100
AcDbEntity
100
AcDbLine
  8
Raum_339
 62
256
370
-1
 48
1.0
  6
ByLayer
 10
534.51064673459769
 20
745.92774193733248
 30
0.0
 11
534.55924703627034
 21
736.98528642957024
 31
0.0
  0
LINE
  5
C2
100
AcDbEntity
100
AcDbLine
  8
Raum_338
 62
256
370
-1
 48
1.0
  6
ByLayer
 10
534.41497332282052
 20
763.53164970434398
 30
0.0
 11
534.51064673459769
 21
745.92774193733248
 31
0.0
  0
LINE
  5
C3
100
AcDbEntity
100
AcDbLine
  8
Raum_338
 62
256
370
-1
 48
1.0
  6
ByLayer
 10
534.51064673459769
 20
745.92774193733248
 30
0.0
 11
522.6584593542575
 21
745.92774193733248
 31
0.0
  0
LINE
  5
C4
100
AcDbEntity
100
AcDbLine
  8
Raum_338
 62
256
370
-1
 48
1.0
  6
ByLayer
 10
522.6584593542575
 20
745.92774193733248
 30
0.0
 11
522.58568525865053
 21
751.90189621125296
 31
0.0
  0
LINE
  5
C5
100
AcDbEntity
100
AcDbLine
  8
Raum_338
 62
256
370
-1
 48
1.0
  6
ByLayer
 10
534.41497332282052
 20
763.53164970434398
 30
0.0
 11
522.64947867737465
 21
763.57609183777402
 31
0.0
  0
LINE
  5
C6
100
AcDbEntity
100
AcDbLine
  8
Raum_338
 62
256
370
-1
 48
1.0
  6
ByLayer
 10
522.64947867737465
 20
763.57609183777402
 30
0.0
 11
522.64947867737465
 21
759.11055252708286
 31
0.0
  0
LINE
  5
C7
100
AcDbEntity
100
AcDbLine
  8
Raum_338
 62
256
370
-1
 48
1.0
  6
ByLayer
 10
534.41497332282052
 20
763.53164970434398
 30
0.0
 11
534.51064673459769
 21
745.92774193733248
 31
0.0
  0
LINE
  5
C8
100
AcDbEntity
100
AcDbLine
  8
Raum_337
 62
256
370
-1
 48
1.0
  6
ByLayer
 10
522.64947867737465
 20
763.57609183777402
 30
0.0
 11
499.58065570254894
 21
763.59803677381512
 31
0.0
  0
LINE
  5
C9
100
AcDbEntity
100
AcDbLine
  8
Raum_337
 62
256
370
-1
 48
1.0
  6
ByLayer
 10
522.67377121122445
 20
750.65950662291618
 30
0.0
 11
522.67377121122445
 21
750.65950662291618
 31
0.0
  0
LINE
  5
CA
100
AcDbEntity
100
AcDbLine
  8
Raum_337
 62
256
370
-1
 48
1.0
  6
ByLayer
 10
522.67377121122445
 20
750.65950662291618
 30
0.0
 11
522.67377121122445
 21
750.65950662291618
 31
0.0
  0
LINE
  5
CB
100
AcDbEntity
100
AcDbLine
  8
Raum_337
 62
256
370
-1
 48
1.0
  6
ByLayer
 10
522.67377121122445
 20
750.65950662291618
 30
0.0
 11
522.67377121122445
 21
750.65950662291618
 31
0.0
  0
LINE
  5
CC
100
AcDbEntity
100
AcDbLine
  8
Raum_337
 62
256
370
-1
 48
1.0
  6
ByLayer
 10
522.67377121122445
 20
750.65950662291618
 30
0.0
 11
522.67377121122445
 21
750.65950662291618
 31
0.0
  0
LINE
  5
CD
100
AcDbEntity
100
AcDbLine
  8
Raum_337
 62
256
370
-1
 48
1.0
  6
ByLayer
 10
522.67377121122445
 20
750.65950662291618
 30
0.0
 11
522.67377121122445
 21
750.65950662291618
 31
0.0
  0
LINE
  5
CE
100
AcDbEntity
100
AcDbLine
  8
Raum_337
 62
256
370
-1
 48
1.0
  6
ByLayer
 10
522.67377121122445
 20
750.65950662291618
 30
0.0
 11
522.67377121122445
 21
750.65950662291618
 31
0.0
  0
LINE
  5
CF
100
AcDbEntity
100
AcDbLine
  8
Raum_337
 62
256
370
-1
 48
1.0
  6
ByLayer
 10
522.67377121122445
 20
750.65950662291618
 30
0.0
 11
522.67377121122445
 21
750.65950662291618
 31
0.0
  0
LINE
  5
D0
100
AcDbEntity
100
AcDbLine
  8
Raum_337
 62
256
370
-1
 48
1.0
  6
ByLayer
 10
522.67377121122445
 20
750.65950662291618
 30
0.0
 11
522.67377121122445
 21
750.65950662291618
 31
0.0
  0
LINE
  5
D1
100
AcDbEntity
100
AcDbLine
  8
Raum_337
 62
256
370
-1
 48
1.0
  6
ByLayer
 10
522.67377121122445
 20
750.65950662291618
 30
0.0
 11
522.67377121122445
 21
750.65950662291618
 31
0.0
  0
LINE
  5
D2
100
AcDbEntity
100
AcDbLine
  8
Raum_337
 62
256
370
-1
 48
1.0
  6
ByLayer
 10
522.67377121122445
 20
750.65950662291618
 30
0.0
 11
522.67377121122445
 21
750.65950662291618
 31
0.0
  0
LINE
  5
D3
100
AcDbEntity
100
AcDbLine
  8
Raum_337
 62
256
370
-1
 48
1.0
  6
ByLayer
 10
522.67377121122445
 20
750.65950662291618
 30
0.0
 11
522.67377121122445
 21
750.65950662291618
 31
0.0
  0
LINE
  5
D4
100
AcDbEntity
100
AcDbLine
  8
Raum_336
 62
256
370
-1
 48
1.0
  6
ByLayer
 10
512.08406370301418
 20
750.65950662291618
 30
0.0
 11
522.6008194139697
 21
750.65950662291618
 31
0.0
  0
LINE
  5
D5
100
AcDbEntity
100
AcDbLine
  8
Raum_336
 62
256
370
-1
 48
1.0
  6
ByLayer
 10
522.6584593542575
 20
730.19203198537332
 30
0.0
 11
514.31165423988068
 21
730.17707625675666
 31
0.0
  0
LINE
  5
D6
100
AcDbEntity
100
AcDbLine
  8
Raum_336
 62
256
370
-1
 48
1.0
  6
ByLayer
 10
514.3116542398775
 20
730.17707625675666
 30
0.0
 11
514.45946066619058
 21
717.02230431517467
 31
0.0
  0
LINE
  5
D7
100
AcDbEntity
100
AcDbLine
  8
Raum_336
 62
256
370
-1
 48
1.0
  6
ByLayer
 10
499.58065570254894
 20
750.63439753330636
 30
0.0
 11
504.34280889293996
 21
750.63439753330636
 31
0.0
  0
LINE
  5
D8
100
AcDbEntity
100
AcDbLine
  8
Raum_335
 62
256
370
-1
 48
1.0
  6
ByLayer
 10
499.58065570254894
 20
763.59803677381512
 30
0.0
 11
499.58065570254894
 21
750.63439753330636
 31
0.0
  0
LINE
  5
D9
100
AcDbEntity
100
AcDbLine
  8
Raum_335
 62
256
370
-1
 48
1.0
  6
ByLayer
 10
499.58065570254894
 20
750.63439753330636
 30
0.0
 11
499.61448396449441
 21
717.01079787261222
 31
0.0
  0
LINE
  5
DA
100
AcDbEntity
100
AcDbLine
  8
Raum_335
 62
256
370
-1
 48
1.0
  6
ByLayer
 10
499.58065570254894
 20
763.59803677381512
 30
0.0
 11
476.54679443885414
 21
763.58918731569429
 31
0.0
  0
LINE
  5
DB
100
AcDbEntity
100
AcDbLine
  8
Raum_335
 62
256
370
-1
 48
1.0
  6
ByLayer
 10
499.61448396449441
 20
717.01079787261222
 30
0.0
 11
506.6248372568607
 21
717.02230431517467
 31
0.0
  0
LINE
  5
DC
100
AcDbEntity
100
AcDbLine
  8
Raum_335
 62
256
370
-1
 48
1.0
  6
ByLayer
 10
476.54679443885414
 20
763.58918731569429
 30
0.0
 11
476.54679443885414
 21
703.01459873392116
 31
0.0
  0
LINE
  5
DD
100
AcDbEntity
100
AcDbLine
  8
Raum_001
 62
256
370
-1
 48
1.0
  6
ByLayer
 10
476.54679443885414
 20
703.01459873392116
 30
0.0
 11
463.06289892172651
 21
703.01210617478273
 31
0.0
  0
LINE
  5
DE
100
AcDbEntity
100
AcDbLine
  8
Raum_334
 62
256
370
-1
 48
1.0
  6
ByLayer
 10
476.54679443885414
 20
763.58918731569429
 30
0.0
 11
451.59858364280785
 21
763.63924488293253
 31
0.0
  0
LINE
  5
DF
100
AcDbEntity
100
AcDbLine
  8
Raum_001
 62
256
370
-1
 48
1.0
  6
ByLayer
 10
451.58423267533192
 20
703.04237657725673
 30
0.0
 11
455.92218514857473
 21
703.04237657725673
 31
0.0
  0
LINE
  5
E0
100
AcDbEntity
100
AcDbLine
  8
Raum_001
 62
256
370
-1
 48
1.0
  6
ByLayer
 10
451.58423267533192
 20
703.04237657725673
 30
0.0
 11
443.01911393153978
 21
702.50785917697738
 31
0.0
  0
LINE
  5
E1
100
AcDbEntity
100
AcDbLine
  8
Raum_001
 62
256
370
-1
 48
1.0
  6
ByLayer
 10
435.93702375845828
 20
701.58310977915198
 30
0.0
 11
426.5670464162539
 21
701.58310977915198
 31
0.0
  0
LINE
  5
E2
100
AcDbEntity
100
AcDbLine
  8
Raum_333
 62
256
370
-1
 48
1.0
  6
ByLayer
 10
451.59333767745363
 20
741.48818975418737
 30
0.0
 11
451.58423267533192
 21
703.04237657725673
 31
0.0
  0
LINE
  5
E3
100
AcDbEntity
100
AcDbLine
  8
Raum_328
 62
256
370
-1
 48
1.0
  6
ByLayer
 10
451.59858364280785
 20
763.63924488293253
 30
0.0
 11
439.99367277249507
 21
763.66747729832309
 31
0.0
  0
LINE
  5
E4
100
AcDbEntity
100
AcDbLine
  8
Raum_328
 62
256
370
-1
 48
1.0
  6
ByLayer
 10
439.99367277249507
 20
741.48818975418737
 30
0.0
 11
451.59333767745363
 21
741.48818975418737
 31
0.0
  0
LINE
  5
E5
100
AcDbEntity
100
AcDbLine
  8
Raum_328
 62
256
370
-1
 48
1.0
  6
ByLayer
 10
451.59858364280785
 20
763.63924488293253
 30
0.0
 11
451.59333767745363
 21
741.48818975418737
 31
0.0
  0
LINE
  5
E6
100
AcDbEntity
100
AcDbLine
  8
Raum_332
 62
256
370
-1
 48
1.0
  6
ByLayer
 10
426.5670464162539
 20
741.48818975418737
 30
0.0
 11
426.5670464162539
 21
701.58310977915198
 31
0.0
  0
LINE
  5
E7
100
AcDbEntity
100
AcDbLine
  8
Raum_001
 62
256
370
-1
 48
1.0
  6
ByLayer
 10
411.92898338382201
 20
701.32597759010775
 30
0.0
 11
405.48584809268186
 21
701.32597759010775
 31
0.0
  0
LINE
  5
E8
100
AcDbEntity
100
AcDbLine
  8
Raum_332
 62
256
370
-1
 48
1.0
  6
ByLayer
 10
405.48584809268186
 20
717.0191585962508
 30
0.0
 11
392.95171718175925
 21
717.00129643900812
 31
0.0
  0
LINE
  5
E9
100
AcDbEntity
100
AcDbLine
  8
Raum_332
 62
256
370
-1
 48
1.0
  6
ByLayer
 10
405.48584809268186
 20
717.0191585962508
 30
0.0
 11
405.48584809268186
 21
703.50805043538605
 31
0.0
  0
LINE
  5
EA
100
AcDbEntity
100
AcDbLine
  8
Raum_001
 62
256
370
-1
 48
1.0
  6
ByLayer
 10
382.03716280146728
 20
709.50188903540254
 30
0.0
 11
389.30538743695661
 21
708.42763553132067
 31
0.0
  0
LINE
  5
EB
100
AcDbEntity
100
AcDbLine
  8
Raum_330
 62
256
370
-1
 48
1.0
  6
ByLayer
 10
389.30538743695661
 20
717.03252969681557
 30
0.0
 11
389.30538743695661
 21
708.42763553132067
 31
0.0
  0
LINE
  5
EC
100
AcDbEntity
100
AcDbLine
  8
Raum_330
 62
256
370
-1
 48
1.0
  6
ByLayer
 10
368.57505023814474
 20
717.02295699289164
 30
0.0
 11
368.57505023814474
 21
711.97264467722903
 31
0.0
  0
LINE
  5
ED
100
AcDbEntity
100
AcDbLine
  8
Raum_327
 62
256
370
-1
 48
1.0
  6
ByLayer
 10
426.5670464162539
 20
741.48818975418737
 30
0.0
 11
439.99367277249507
 21
741.48818975418737
 31
0.0
  0
LINE
  5
EE
100
AcDbEntity
100
AcDbLine
  8
Raum_327
 62
256
370
-1
 48
1.0
  6
ByLayer
 10
439.99367277249507
 20
741.48818975418737
 30
0.0
 11
439.99367277249507
 21
748.45504349568523
 31
0.0
  0
LINE
  5
EF
100
AcDbEntity
100
AcDbLine
  8
Raum_327
 62
256
370
-1
 48
1.0
  6
ByLayer
 10
426.5670464162539
 20
741.48818975418737
 30
0.0
 11
426.56009874109304
 21
750.14599757940812
 31
0.0
  0
LINE
  5
F0
100
AcDbEntity
100
AcDbLine
  8
Raum_001
 62
256
370
-1
 48
1.0
  6
ByLayer
 10
351.00060145355644
 20
750.30473601908773
 30
0.0
 11
350.93680803483221
 21
752.40991883698484
 31
0.0
  0
LINE
  5
F1
100
AcDbEntity
100
AcDbLine
  8
Raum_001
 62
256
370
-1
 48
1.0
  6
ByLayer
 10
351.00060145355644
 20
758.0237396847109
 30
0.0
 11
351.57474222207384
 21
762.12948411379762
 31
0.0
  0
LINE
  5
F2
100
AcDbEntity
100
AcDbLine
  8
Raum_327
 62
256
370
-1
 48
1.0
  6
ByLayer
 10
351.57474222207384
 20
762.12948411379762
 30
0.0
 11
439.99367277249507
 21
762.12948411379762
 31
0.0
  0
LINE
  5
F3
100
AcDbEntity
100
AcDbLine
  8
Raum_327
 62
256
370
-1
 48
1.0
  6
ByLayer
 10
439.99367277249507
 20
762.12948411379762
 30
0.0
 11
439.99367277249507
 21
754.80458108287326
 31
0.0
  0
LINE
  5
F4
100
AcDbEntity
100
AcDbLine
  8
Raum_T_002
 62
256
370
-1
 48
1.0
  6
ByLayer
 10
353.52209998231763
 20
716.97957746815916
 30
0.0
 11
368.57505023814474
 21
717.02295699289164
 31
0.0
  0
LINE
  5
F5
100
AcDbEntity
100
AcDbLine
  8
Raum_T_002
 62
256
370
-1
 48
1.0
  6
ByLayer
 10
368.57505023814474
 20
717.02295699289164
 30
0.0
 11
389.30538743695661
 21
717.03252969681557
 31
0.0
  0
LINE
  5
F6
100
AcDbEntity
100
AcDbLine
  8
Raum_T_002
 62
256
370
-1
 48
1.0
  6
ByLayer
 10
389.30538743695661
 20
717.03252969681557
 30
0.0
 11
392.95171718175925
 21
717.00129643900812
 31
0.0
  0
LINE
  5
F7
100
AcDbEntity
100
AcDbLine
  8
Raum_RT_002
 62
256
370
-1
 48
1.0
  6
ByLayer
 10
353.65798905526276
 20
750.29915327202525
 30
0.0
 11
417.83061817641385
 21
750.16433682429192
 31
0.0
  0
LINE
  5
F8
100
AcDbEntity
100
AcDbLine
  8
Raum_325
 62
256
370
-1
 48
1.0
  6
ByLayer
 10
378.0
 20
769.49999999999989
 30
0.0
 11
369.99243252517749
 21
762.12948411379762
 31
0.0
  0
LINE
  5
F9
100
AcDbEntity
100
AcDbLine
  8
Raum_325
 62
256
370
-1
 48
1.0
  6
ByLayer
 10
383.0
 20
772.49999999999989
 30
0.0
 11
388.0
 21
776.49999999999989
 31
0.0
  0
LINE
  5
FA
100
AcDbEntity
100
AcDbLine
  8
Raum_325
 62
256
370
-1
 48
1.0
  6
ByLayer
 10
369.99243252517749
 20
762.12948411379762
 30
0.0
 11
369.97761586247066
 21
764.41392996237903
 31
0.0
  0
LINE
  5
FB
100
AcDbEntity
100
AcDbLine
  8
Raum_001
 62
256
370
-1
 48
1.0
  6
ByLayer
 10
356.1865175746907
 20
771.57022010369928
 30
0.0
 11
356.71805794876298
 21
773.15983982188834
 31
0.0
  0
LINE
  5
FC
100
AcDbEntity
100
AcDbLine
  8
Raum_325
 62
256
370
-1
 48
1.0
  6
ByLayer
 10
370.21082532153741
 20
771.57245542509133
 30
0.0
 11
370.18568009807495
 21
770.45785780548499
 31
0.0
  0
LINE
  5
FD
100
AcDbEntity
100
AcDbLine
  8
Raum_001
 62
256
370
-1
 48
1.0
  6
ByLayer
 10
351.57474222207384
 20
762.12948411379762
 30
0.0
 11
352.0787687721388
 21
764.46708873467549
 31
0.0
  0
LINE
  5
FE
100
AcDbEntity
100
AcDbLine
  8
Raum_324
 62
256
370
-1
 48
1.0
  6
ByLayer
 10
373.70307099449076
 20
794.11331385960852
 30
0.0
 11
376.08414758968627
 21
792.20845258345219
 31
0.0
  0
LINE
  5
FF
100
AcDbEntity
100
AcDbLine
  8
Raum_324
 62
256
370
-1
 48
1.0
  6
ByLayer
 10
376.08414758968627
 20
792.20845258345219
 30
0.0
 11
368.46470248506068
 21
782.36666932331082
 31
0.0
  0
LINE
  5
100
100
AcDbEntity
100
AcDbLine
  8
Raum_324
 62
256
370
-1
 48
1.0
  6
ByLayer
 10
368.46470248506068
 20
782.36666932331082
 30
0.0
 11
366.2423643295449
 21
783.7953152804281
 31
0.0
  0
LINE
  5
101
100
AcDbEntity
100
AcDbLine
  8
Raum_001
 62
256
370
-1
 48
1.0
  6
ByLayer
 10
366.2423643295449
 20
783.7953152804281
 30
0.0
 11
365.0
 21
784.49999999999989
 31
0.0
  0
LINE
  5
102
100
AcDbEntity
100
AcDbLine
  8
Raum_319
 62
256
370
-1
 48
1.0
  6
ByLayer
 10
375.44919383096749
 20
796.33565201512431
 30
0.0
 11
378.78270106424111
 21
794.58952917864769
 31
0.0
  0
LINE
  5
103
100
AcDbEntity
100
AcDbLine
  8
Raum_319
 62
256
370
-1
 48
1.0
  6
ByLayer
 10
378.78270106424111
 20
794.58952917864769
 30
0.0
 11
384.02106957367118
 21
790.30359130729573
 31
0.0
  0
LINE
  5
104
100
AcDbEntity
100
AcDbLine
  8
Raum_319
 62
256
370
-1
 48
1.0
  6
ByLayer
 10
384.02106957367118
 20
790.30359130729573
 30
0.0
 11
387.07267850954997
 21
784.56109658226649
 31
0.0
  0
LINE
  5
105
100
AcDbEntity
100
AcDbLine
  8
Raum_319
 62
256
370
-1
 48
1.0
  6
ByLayer
 10
387.07267850954997
 20
784.56109658226649
 30
0.0
 11
388.0
 21
776.49999999999989
 31
0.0
  0
LINE
  5
106
100
AcDbEntity
100
AcDbLine
  8
Raum_319
 62
256
370
-1
 48
1.0
  6
ByLayer
 10
388.0
 20
776.49999999999989
 30
0.0
 11
383.93910146921348
 21
762.12948411379762
 31
0.0
  0
LINE
  5
107
100
AcDbEntity
100
AcDbLine
  8
Raum_319
 62
256
370
-1
 48
1.0
  6
ByLayer
 10
411.0
 20
765.49999999999989
 30
0.0
 11
411.0
 21
762.12948411379762
 31
0.0
  0
LINE
  5
108
100
AcDbEntity
100
AcDbLine
  8
Raum_319
 62
256
370
-1
 48
1.0
  6
ByLayer
 10
410.0
 20
771.49999999999989
 30
0.0
 11
410.0
 21
773.49999999999989
 31
0.0
  0
LINE
  5
109
100
AcDbEntity
100
AcDbLine
  8
Raum_319
 62
256
370
-1
 48
1.0
  6
ByLayer
 10
410.0
 20
773.49999999999989
 30
0.0
 11
427.0
 21
785.49999999999989
 31
0.0
  0
LINE
  5
10A
100
AcDbEntity
100
AcDbLine
  8
Raum_319
 62
256
370
-1
 48
1.0
  6
ByLayer
 10
427.0
 20
785.49999999999989
 30
0.0
 11
401.0
 21
813.49999999999989
 31
0.0
  0
LINE
  5
10B
100
AcDbEntity
100
AcDbLine
  8
Raum_319
 62
256
370
-1
 48
1.0
  6
ByLayer
 10
391.0
 20
813.49999999999989
 30
0.0
 11
388.0
 21
806.49999999999989
 31
0.0
  0
LINE
  5
10C
100
AcDbEntity
100
AcDbLine
  8
Raum_319
 62
256
370
-1
 48
1.0
  6
ByLayer
 10
388.0
 20
806.49999999999989
 30
0.0
 11
386.0
 21
806.49999999999989
 31
0.0
  0
LINE
  5
10D
100
AcDbEntity
100
AcDbLine
  8
Raum_319
 62
256
370
-1
 48
1.0
  6
ByLayer
 10
386.0
 20
806.49999999999989
 30
0.0
 11
382.0
 21
810.49999999999989
 31
0.0
  0
LINE
  5
10E
100
AcDbEntity
100
AcDbLine
  8
Raum_320
 62
256
370
-1
 48
1.0
  6
ByLayer
 10
427.0
 20
785.49999999999989
 30
0.0
 11
435.0
 21
776.49999999999989
 31
0.0
  0
LINE
  5
10F
100
AcDbEntity
100
AcDbLine
  8
Raum_320
 62
256
370
-1
 48
1.0
  6
ByLayer
 10
435.0
 20
776.49999999999989
 30
0.0
 11
437.0
 21
772.49999999999989
 31
0.0
  0
LINE
  5
110
100
AcDbEntity
100
AcDbLine
  8
Raum_320
 62
256
370
-1
 48
1.0
  6
ByLayer
 10
437.0
 20
772.49999999999989
 30
0.0
 11
437.0
 21
762.12948411379762
 31
0.0
  0
LINE
  5
111
100
AcDbEntity
100
AcDbLine
  8
Raum_T_003
 62
256
370
-1
 48
1.0
  6
ByLayer
 10
423.0
 20
797.49999999999989
 30
0.0
 11
439.0
 21
785.49999999999989
 31
0.0
  0
LINE
  5
112
100
AcDbEntity
100
AcDbLine
  8
Raum_T_003
 62
256
370
-1
 48
1.0
  6
ByLayer
 10
435.0
 20
813.49999999999989
 30
0.0
 11
451.0
 21
802.49999999999989
 31
0.0
  0
LINE
  5
113
100
AcDbEntity
100
AcDbLine
  8
Raum_T_004
 62
256
370
-1
 48
1.0
  6
ByLayer
 10
456.0
 20
804.49999999999989
 30
0.0
 11
485.0
 21
850.49999999999989
 31
0.0
  0
LINE
  5
114
100
AcDbEntity
100
AcDbLine
  8
Raum_T_004
 62
256
370
-1
 48
1.0
  6
ByLayer
 10
504.0
 20
837.49999999999989
 30
0.0
 11
473.0
 21
792.49999999999989
 31
0.0
  0
LINE
  5
115
100
AcDbEntity
100
AcDbLine
  8
Raum_348
 62
256
370
-1
 48
1.0
  6
ByLayer
 10
651.5
 20
682.09999999999991
 30
0.0
 11
651.5
 21
676.99999999999989
 31
0.0
  0
LINE
  5
116
100
AcDbEntity
100
AcDbLine
  8
Raum_348
 62
256
370
-1
 48
1.0
  6
ByLayer
 10
651.5
 20
676.99999999999989
 30
0.0
 11
664.55370524601221
 21
677.00794492185014
 31
0.0
  0
LINE
  5
117
100
AcDbEntity
100
AcDbLine
  8
Raum_348
 62
256
370
-1
 48
1.0
  6
ByLayer
 10
664.55370524601221
 20
677.00794492185014
 30
0.0
 11
664.55370524601233
 21
682.0840994788939
 31
0.0
  0
LINE
  5
118
100
AcDbEntity
100
AcDbLine
  8
Raum_001
 62
256
370
-1
 48
1.0
  6
ByLayer
 10
663.04111373659009
 20
682.0840994788939
 30
0.0
 11
664.55370524601233
 21
682.0840994788939
 31
0.0
  0
LINE
  5
119
100
AcDbEntity
100
AcDbLine
  8
Raum_001
 62
256
370
-1
 48
1.0
  6
ByLayer
 10
664.55370524601233
 20
682.0840994788939
 30
0.0
 11
693.0
 21
684.49999999999989
 31
0.0
  0
LINE
  5
11A
100
AcDbEntity
100
AcDbLine
  8
Raum_001
 62
256
370
-1
 48
1.0
  6
ByLayer
 10
693.0
 20
684.49999999999989
 30
0.0
 11
690.0
 21
720.49999999999989
 31
0.0
  0
LINE
  5
11B
100
AcDbEntity
100
AcDbLine
  8
Raum_001
 62
256
370
-1
 48
1.0
  6
ByLayer
 10
640.55047152449595
 20
717.08134567288369
 30
0.0
 11
653.94453957203552
 21
716.95010895965868
 31
0.0
  0
LINE
  5
11C
100
AcDbEntity
100
AcDbLine
  8
Raum_001
 62
256
370
-1
 48
1.0
  6
ByLayer
 10
640.55047152449595
 20
717.08134567288369
 30
0.0
 11
640.54339142559513
 21
715.71852905100877
 31
0.0
  0
LINE
  5
11D
100
AcDbEntity
100
AcDbLine
  8
Raum_001
 62
256
370
-1
 48
1.0
  6
ByLayer
 10
640.54339142559513
 20
715.71852905100877
 30
0.0
 11
638.59525100478299
 21
712.03097754018586
 31
0.0
  0
LINE
  5
11E
100
AcDbEntity
100
AcDbLine
  8
Raum_001
 62
256
370
-1
 48
1.0
  6
ByLayer
 10
638.59525100478299
 20
712.03097754018586
 30
0.0
 11
632.12464174994284
 21
712.03097754018586
 31
0.0
  0
LINE
  5
11F
100
AcDbEntity
100
AcDbLine
  8
Raum_001
 62
256
370
-1
 48
1.0
  6
ByLayer
 10
603.95686797942335
 20
712.06100760822494
 30
0.0
 11
597.07029390534967
 21
712.06100760822517
 31
0.0
  0
LINE
  5
120
100
AcDbEntity
100
AcDbLine
  8
Raum_001
 62
256
370
-1
 48
1.0
  6
ByLayer
 10
589.07453773251018
 20
712.08029773168198
 30
0.0
 11
585.71683454320987
 21
712.08029773168198
 31
0.0
  0
LINE
  5
121
100
AcDbEntity
100
AcDbLine
  8
Raum_001
 62
256
370
-1
 48
1.0
  6
ByLayer
 10
534.45877009392325
 20
720.05924303814197
 30
0.0
 11
534.47143607920248
 21
716.20809356494317
 31
0.0
  0
LINE
  5
122
100
AcDbEntity
100
AcDbLine
  8
Raum_001
 62
256
370
-1
 48
1.0
  6
ByLayer
 10
534.47143607920248
 20
716.20809356494317
 30
0.0
 11
514.4703926795604
 21
716.04935512526345
 31
0.0
  0
LINE
  5
123
100
AcDbEntity
100
AcDbLine
  8
Raum_001
 62
256
370
-1
 48
1.0
  6
ByLayer
 10
514.4703926795604
 20
716.04935512526345
 30
0.0
 11
514.45946066619058
 21
717.02230431517467
 31
0.0
  0
LINE
  5
124
100
AcDbEntity
100
AcDbLine
  8
Raum_001
 62
256
370
-1
 48
1.0
  6
ByLayer
 10
506.6248372568607
 20
717.02230431517467
 30
0.0
 11
506.6298109753443
 21
703.05198065659886
 31
0.0
  0
LINE
  5
125
100
AcDbEntity
100
AcDbLine
  8
Raum_001
 62
256
370
-1
 48
1.0
  6
ByLayer
 10
506.6298109753443
 20
703.05198065659886
 30
0.0
 11
494.99389140005769
 21
703.05198065659886
 31
0.0
  0
LINE
  5
126
100
AcDbEntity
100
AcDbLine
  8
Raum_335
 62
256
370
-1
 48
1.0
  6
ByLayer
 10
486.9559206408137
 20
703.05198065659897
 30
0.0
 11
476.54679443885414
 21
703.01459873392116
 31
0.0
  0
LINE
  5
127
100
AcDbEntity
100
AcDbLine
  8
Raum_001
 62
256
370
-1
 48
1.0
  6
ByLayer
 10
426.5670464162539
 20
701.58310977915198
 30
0.0
 11
419.966954143066
 21
701.32597759010775
 31
0.0
  0
LINE
  5
128
100
AcDbEntity
100
AcDbLine
  8
Raum_001
 62
256
370
-1
 48
1.0
  6
ByLayer
 10
389.30538743695661
 20
707.08075637584682
 30
0.0
 11
389.30538743695661
 21
708.42763553132067
 31
0.0
  0
LINE
  5
129
100
AcDbEntity
100
AcDbLine
  8
Raum_001
 62
256
370
-1
 48
1.0
  6
ByLayer
 10
374.95439211056078
 20
711.22838812544717
 30
0.0
 11
368.57505023814474
 21
711.97264467722903
 31
0.0
  0
LINE
  5
12A
100
AcDbEntity
100
AcDbLine
  8
Raum_001
 62
256
370
-1
 48
1.0
  6
ByLayer
 10
368.57505023814474
 20
711.97264467722903
 30
0.0
 11
353.52209998231763
 21
716.97957746815916
 31
0.0
  0
LINE
  5
12B
100
AcDbEntity
100
AcDbLine
  8
Raum_001
 62
256
370
-1
 48
1.0
  6
ByLayer
 10
653.04262748786732
 20
682.10973662312153
 30
0.0
 11
651.5
 21
682.09999999999991
 31
0.0
  0
LINE
  5
12C
100
AcDbEntity
100
AcDbLine
  8
Raum_001
 62
256
370
-1
 48
1.0
  6
ByLayer
 10
651.5
 20
682.09999999999991
 30
0.0
 11
402.0
 21
665.49999999999989
 31
0.0
  0
LINE
  5
12D
100
AcDbEntity
100
AcDbLine
  8
Raum_001
 62
256
370
-1
 48
1.0
  6
ByLayer
 10
402.0
 20
665.49999999999989
 30
0.0
 11
386.0
 21
642.49999999999989
 31
0.0
  0
LINE
  5
12E
100
AcDbEntity
100
AcDbLine
  8
Raum_001
 62
256
370
-1
 48
1.0
  6
ByLayer
 10
340.0
 20
688.49999999999989
 30
0.0
 11
338.0
 21
683.49999999999989
 31
0.0
  0
LINE
  5
12F
100
AcDbEntity
100
AcDbLine
  8
Raum_001
 62
256
370
-1
 48
1.0
  6
ByLayer
 10
338.0
 20
683.49999999999989
 30
0.0
 11
334.0
 21
684.49999999999989
 31
0.0
  0
LINE
  5
130
100
AcDbEntity
100
AcDbLine
  8
Raum_001
 62
256
370
-1
 48
1.0
  6
ByLayer
 10
305.0
 20
698.49999999999989
 30
0.0
 11
305.0
 21
700.49999999999989
 31
0.0
  0
LINE
  5
131
100
AcDbEntity
100
AcDbLine
  8
Raum_001
 62
256
370
-1
 48
1.0
  6
ByLayer
 10
305.0
 20
700.49999999999989
 30
0.0
 11
281.0
 21
703.49999999999989
 31
0.0
  0
LINE
  5
132
100
AcDbEntity
100
AcDbLine
  8
Raum_001
 62
256
370
-1
 48
1.0
  6
ByLayer
 10
281.0
 20
703.49999999999989
 30
0.0
 11
282.0
 21
679.49999999999989
 31
0.0
  0
LINE
  5
133
100
AcDbEntity
100
AcDbLine
  8
Raum_001
 62
256
370
-1
 48
1.0
  6
ByLayer
 10
282.0
 20
679.49999999999989
 30
0.0
 11
276.0
 21
669.49999999999989
 31
0.0
  0
LINE
  5
134
100
AcDbEntity
100
AcDbLine
  8
Raum_001
 62
256
370
-1
 48
1.0
  6
ByLayer
 10
230.0
 20
698.49999999999989
 30
0.0
 11
235.0
 21
705.49999999999989
 31
0.0
  0
LINE
  5
135
100
AcDbEntity
100
AcDbLine
  8
Raum_001
 62
256
370
-1
 48
1.0
  6
ByLayer
 10
235.0
 20
705.49999999999989
 30
0.0
 11
225.0
 21
705.49999999999989
 31
0.0
  0
LINE
  5
136
100
AcDbEntity
100
AcDbLine
  8
Raum_001
 62
256
370
-1
 48
1.0
  6
ByLayer
 10
217.0
 20
704.49999999999989
 30
0.0
 11
192.0
 21
700.49999999999989
 31
0.0
  0
LINE
  5
137
100
AcDbEntity
100
AcDbLine
  8
Raum_001
 62
256
370
-1
 48
1.0
  6
ByLayer
 10
192.0
 20
700.49999999999989
 30
0.0
 11
177.0
 21
682.49999999999989
 31
0.0
  0
LINE
  5
138
100
AcDbEntity
100
AcDbLine
  8
Raum_001
 62
256
370
-1
 48
1.0
  6
ByLayer
 10
179.0
 20
715.49999999999989
 30
0.0
 11
196.0
 21
717.49999999999989
 31
0.0
  0
LINE
  5
139
100
AcDbEntity
100
AcDbLine
  8
Raum_001
 62
256
370
-1
 48
1.0
  6
ByLayer
 10
205.0
 20
718.49999999999989
 30
0.0
 11
237.0
 21
722.49999999999989
 31
0.0
  0
LINE
  5
13A
100
AcDbEntity
100
AcDbLine
  8
Raum_001
 62
256
370
-1
 48
1.0
  6
ByLayer
 10
287.0
 20
779.49999999999989
 30
0.0
 11
296.0
 21
792.49999999999989
 31
0.0
  0
LINE
  5
13B
100
AcDbEntity
100
AcDbLine
  8
Raum_001
 62
256
370
-1
 48
1.0
  6
ByLayer
 10
301.0
 20
799.49999999999989
 30
0.0
 11
307.0
 21
809.49999999999989
 31
0.0
  0
LINE
  5
13C
100
AcDbEntity
100
AcDbLine
  8
Raum_001
 62
256
370
-1
 48
1.0
  6
ByLayer
 10
313.0
 20
817.49999999999989
 30
0.0
 11
322.0
 21
830.49999999999989
 31
0.0
  0
LINE
  5
13D
100
AcDbEntity
100
AcDbLine
  8
Raum_001
 62
256
370
-1
 48
1.0
  6
ByLayer
 10
327.0
 20
838.49999999999989
 30
0.0
 11
329.0
 21
841.49999999999989
 31
0.0
  0
LINE
  5
13E
100
AcDbEntity
100
AcDbLine
  8
Raum_001
 62
256
370
-1
 48
1.0
  6
ByLayer
 10
344.0
 20
865.49999999999989
 30
0.0
 11
346.0
 21
866.49999999999989
 31
0.0
  0
LINE
  5
13F
100
AcDbEntity
100
AcDbLine
  8
Raum_001
 62
256
370
-1
 48
1.0
  6
ByLayer
 10
346.0
 20
866.49999999999989
 30
0.0
 11
340.0
 21
882.49999999999989
 31
0.0
  0
LINE
  5
140
100
AcDbEntity
100
AcDbLine
  8
Raum_001
 62
256
370
-1
 48
1.0
  6
ByLayer
 10
379.0
 20
880.49999999999989
 30
0.0
 11
382.0
 21
868.49999999999989
 31
0.0
  0
LINE
  5
141
100
AcDbEntity
100
AcDbLine
  8
Raum_001
 62
256
370
-1
 48
1.0
  6
ByLayer
 10
383.0
 20
861.49999999999989
 30
0.0
 11
386.0
 21
852.49999999999989
 31
0.0
  0
LINE
  5
142
100
AcDbEntity
100
AcDbLine
  8
Raum_001
 62
256
370
-1
 48
1.0
  6
ByLayer
 10
386.0
 20
852.49999999999989
 30
0.0
 11
391.0
 21
849.49999999999989
 31
0.0
  0
LINE
  5
143
100
AcDbEntity
100
AcDbLine
  8
Raum_001
 62
256
370
-1
 48
1.0
  6
ByLayer
 10
391.0
 20
849.49999999999989
 30
0.0
 11
409.0
 21
874.49999999999989
 31
0.0
  0
LINE
  5
144
100
AcDbEntity
100
AcDbLine
  8
Raum_001
 62
256
370
-1
 48
1.0
  6
ByLayer
 10
418.0
 20
893.49999999999989
 30
0.0
 11
429.0
 21
885.49999999999989
 31
0.0
  0
LINE
  5
145
100
AcDbEntity
100
AcDbLine
  8
Raum_001
 62
256
370
-1
 48
1.0
  6
ByLayer
 10
429.0
 20
885.49999999999989
 30
0.0
 11
398.0
 21
838.49999999999989
 31
0.0
  0
LINE
  5
146
100
AcDbEntity
100
AcDbLine
  8
Raum_001
 62
256
370
-1
 48
1.0
  6
ByLayer
 10
398.0
 20
838.49999999999989
 30
0.0
 11
435.0
 21
813.49999999999989
 31
0.0
  0
LINE
  5
147
100
AcDbEntity
100
AcDbLine
  8
Raum_001
 62
256
370
-1
 48
1.0
  6
ByLayer
 10
423.0
 20
797.49999999999989
 30
0.0
 11
401.0
 21
813.49999999999989
 31
0.0
  0
LINE
  5
148
100
AcDbEntity
100
AcDbLine
  8
Raum_001
 62
256
370
-1
 48
1.0
  6
ByLayer
 10
401.0
 20
813.49999999999989
 30
0.0
 11
398.0
 21
813.49999999999989
 31
0.0
  0
LINE
  5
149
100
AcDbEntity
100
AcDbLine
  8
Raum_001
 62
256
370
-1
 48
1.0
  6
ByLayer
 10
392.0
 20
813.49999999999989
 30
0.0
 11
388.0
 21
813.49999999999989
 31
0.0
  0
LINE
  5
14A
100
AcDbEntity
100
AcDbLine
  8
Raum_001
 62
256
370
-1
 48
1.0
  6
ByLayer
 10
383.0
 20
811.49999999999989
 30
0.0
 11
382.0
 21
810.49999999999989
 31
0.0
  0
LINE
  5
14B
100
AcDbEntity
100
AcDbLine
  8
Raum_001
 62
256
370
-1
 48
1.0
  6
ByLayer
 10
382.0
 20
810.49999999999989
 30
0.0
 11
380.0
 21
805.49999999999989
 31
0.0
  0
LINE
  5
14C
100
AcDbEntity
100
AcDbLine
  8
Raum_001
 62
256
370
-1
 48
1.0
  6
ByLayer
 10
375.44919383096749
 20
796.33565201512431
 30
0.0
 11
373.70307099449076
 21
794.11331385960852
 31
0.0
  0
LINE
  5
14D
100
AcDbEntity
100
AcDbLine
  8
Raum_001
 62
256
370
-1
 48
1.0
  6
ByLayer
 10
373.70307099449076
 20
794.11331385960852
 30
0.0
 11
373.0
 21
794.49999999999989
 31
0.0
  0
LINE
  5
14E
100
AcDbEntity
100
AcDbLine
  8
Raum_001
 62
256
370
-1
 48
1.0
  6
ByLayer
 10
373.0
 20
794.49999999999989
 30
0.0
 11
365.0
 21
784.49999999999989
 31
0.0
  0
LINE
  5
14F
100
AcDbEntity
100
AcDbLine
  8
Raum_001
 62
256
370
-1
 48
1.0
  6
ByLayer
 10
366.24236432954399
 20
783.79531528042833
 30
0.0
 11
356.71805794876286
 21
773.15983982188834
 31
0.0
  0
LINE
  5
150
100
AcDbEntity
100
AcDbLine
  8
Raum_001
 62
256
370
-1
 48
1.0
  6
ByLayer
 10
351.00060145355644
 20
750.30473601908761
 30
0.0
 11
353.65798905526276
 21
750.29915327202525
 31
0.0
  0
LINE
  5
151
100
AcDbEntity
100
AcDbLine
  8
Raum_001
 62
256
370
-1
 48
1.0
  6
ByLayer
 10
261.0
 20
700.49999999999989
 30
0.0
 11
266.0
 21
700.49999999999989
 31
0.0
  0
LINE
  5
152
100
AcDbEntity
100
AcDbLine
  8
Raum_001
 62
256
370
-1
 48
1.0
  6
ByLayer
 10
266.0
 20
700.49999999999989
 30
0.0
 11
266.0
 21
696.49999999999989
 31
0.0
  0
LINE
  5
153
100
AcDbEntity
100
AcDbLine
  8
Raum_001
 62
256
370
-1
 48
1.0
  6
ByLayer
 10
266.0
 20
696.49999999999989
 30
0.0
 11
261.0
 21
696.49999999999989
 31
0.0
  0
LINE
  5
154
100
AcDbEntity
100
AcDbLine
  8
Raum_001
 62
256
370
-1
 48
1.0
  6
ByLayer
 10
261.0
 20
696.49999999999989
 30
0.0
 11
261.0
 21
700.49999999999989
 31
0.0
  0
LINE
  5
155
100
AcDbEntity
100
AcDbLine
  8
Raum_001
 62
256
370
-1
 48
1.0
  6
ByLayer
 10
262.0
 20
724.49999999999989
 30
0.0
 11
262.0
 21
719.49999999999989
 31
0.0
  0
LINE
  5
156
100
AcDbEntity
100
AcDbLine
  8
Raum_001
 62
256
370
-1
 48
1.0
  6
ByLayer
 10
262.0
 20
719.49999999999989
 30
0.0
 11
267.0
 21
719.49999999999989
 31
0.0
  0
LINE
  5
157
100
AcDbEntity
100
AcDbLine
  8
Raum_001
 62
256
370
-1
 48
1.0
  6
ByLayer
 10
267.0
 20
719.49999999999989
 30
0.0
 11
267.0
 21
724.49999999999989
 31
0.0
  0
LINE
  5
158
100
AcDbEntity
100
AcDbLine
  8
Raum_001
 62
256
370
-1
 48
1.0
  6
ByLayer
 10
267.0
 20
724.49999999999989
 30
0.0
 11
262.0
 21
724.49999999999989
 31
0.0
  0
LINE
  5
159
100
AcDbEntity
100
AcDbLine
  8
Raum_001
 62
256
370
-1
 48
1.0
  6
ByLayer
 10
281.0
 20
723.49999999999989
 30
0.0
 11
281.0
 21
718.49999999999989
 31
0.0
  0
LINE
  5
15A
100
AcDbEntity
100
AcDbLine
  8
Raum_001
 62
256
370
-1
 48
1.0
  6
ByLayer
 10
281.0
 20
718.49999999999989
 30
0.0
 11
286.0
 21
718.49999999999989
 31
0.0
  0
LINE
  5
15B
100
AcDbEntity
100
AcDbLine
  8
Raum_001
 62
256
370
-1
 48
1.0
  6
ByLayer
 10
286.0
 20
718.49999999999989
 30
0.0
 11
286.0
 21
723.49999999999989
 31
0.0
  0
LINE
  5
15C
100
AcDbEntity
100
AcDbLine
  8
Raum_001
 62
256
370
-1
 48
1.0
  6
ByLayer
 10
286.0
 20
723.49999999999989
 30
0.0
 11
281.0
 21
723.49999999999989
 31
0.0
  0
LINE
  5
15D
100
AcDbEntity
100
AcDbLine
  8
Raum_001
 62
256
370
-1
 48
1.0
  6
ByLayer
 10
308.0
 20
722.49999999999989
 30
0.0
 11
308.0
 21
717.49999999999989
 31
0.0
  0
LINE
  5
15E
100
AcDbEntity
100
AcDbLine
  8
Raum_001
 62
256
370
-1
 48
1.0
  6
ByLayer
 10
308.0
 20
717.49999999999989
 30
0.0
 11
313.0
 21
717.49999999999989
 31
0.0
  0
LINE
  5
15F
100
AcDbEntity
100
AcDbLine
  8
Raum_001
 62
256
370
-1
 48
1.0
  6
ByLayer
 10
313.0
 20
717.49999999999989
 30
0.0
 11
313.0
 21
722.49999999999989
 31
0.0
  0
LINE
  5
160
100
AcDbEntity
100
AcDbLine
  8
Raum_001
 62
256
370
-1
 48
1.0
  6
ByLayer
 10
313.0
 20
722.49999999999989
 30
0.0
 11
308.0
 21
722.49999999999989
 31
0.0
  0
LINE
  5
161
100
AcDbEntity
100
AcDbLine
  8
Raum_001
 62
256
370
-1
 48
1.0
  6
ByLayer
 10
324.0
 20
722.49999999999989
 30
0.0
 11
324.0
 21
717.49999999999989
 31
0.0
  0
LINE
  5
162
100
AcDbEntity
100
AcDbLine
  8
Raum_001
 62
256
370
-1
 48
1.0
  6
ByLayer
 10
324.0
 20
717.49999999999989
 30
0.0
 11
330.0
 21
717.49999999999989
 31
0.0
  0
LINE
  5
163
100
AcDbEntity
100
AcDbLine
  8
Raum_001
 62
256
370
-1
 48
1.0
  6
ByLayer
 10
330.0
 20
717.49999999999989
 30
0.0
 11
330.0
 21
722.49999999999989
 31
0.0
  0
LINE
  5
164
100
AcDbEntity
100
AcDbLine
  8
Raum_001
 62
256
370
-1
 48
1.0
  6
ByLayer
 10
330.0
 20
722.49999999999989
 30
0.0
 11
324.0
 21
722.49999999999989
 31
0.0
  0
LINE
  5
165
100
AcDbEntity
100
AcDbLine
  8
Raum_001
 62
256
370
-1
 48
1.0
  6
ByLayer
 10
295.0
 20
742.49999999999989
 30
0.0
 11
290.0
 21
737.49999999999989
 31
0.0
  0
LINE
  5
166
100
AcDbEntity
100
AcDbLine
  8
Raum_001
 62
256
370
-1
 48
1.0
  6
ByLayer
 10
290.0
 20
737.49999999999989
 30
0.0
 11
290.0
 21
731.49999999999989
 31
0.0
  0
LINE
  5
167
100
AcDbEntity
100
AcDbLine
  8
Raum_001
 62
256
370
-1
 48
1.0
  6
ByLayer
 10
290.0
 20
731.49999999999989
 30
0.0
 11
295.0
 21
726.49999999999989
 31
0.0
  0
LINE
  5
168
100
AcDbEntity
100
AcDbLine
  8
Raum_001
 62
256
370
-1
 48
1.0
  6
ByLayer
 10
295.0
 20
726.49999999999989
 30
0.0
 11
300.0
 21
726.49999999999989
 31
0.0
  0
LINE
  5
169
100
AcDbEntity
100
AcDbLine
  8
Raum_001
 62
256
370
-1
 48
1.0
  6
ByLayer
 10
300.0
 20
726.49999999999989
 30
0.0
 11
305.0
 21
731.49999999999989
 31
0.0
  0
LINE
  5
16A
100
AcDbEntity
100
AcDbLine
  8
Raum_001
 62
256
370
-1
 48
1.0
  6
ByLayer
 10
305.0
 20
731.49999999999989
 30
0.0
 11
305.0
 21
736.49999999999989
 31
0.0
  0
LINE
  5
16B
100
AcDbEntity
100
AcDbLine
  8
Raum_001
 62
256
370
-1
 48
1.0
  6
ByLayer
 10
305.0
 20
736.49999999999989
 30
0.0
 11
305.0
 21
737.49999999999989
 31
0.0
  0
LINE
  5
16C
100
AcDbEntity
100
AcDbLine
  8
Raum_001
 62
256
370
-1
 48
1.0
  6
ByLayer
 10
305.0
 20
737.49999999999989
 30
0.0
 11
300.0
 21
742.49999999999989
 31
0.0
  0
LINE
  5
16D
100
AcDbEntity
100
AcDbLine
  8
Raum_001
 62
256
370
-1
 48
1.0
  6
ByLayer
 10
300.0
 20
742.49999999999989
 30
0.0
 11
295.0
 21
742.49999999999989
 31
0.0
  0
LINE
  5
16E
100
AcDbEntity
100
AcDbLine
  8
Raum_001
 62
256
370
-1
 48
1.0
  6
ByLayer
 10
264.0
 20
752.49999999999989
 30
0.0
 11
264.0
 21
746.49999999999989
 31
0.0
  0
LINE
  5
16F
100
AcDbEntity
100
AcDbLine
  8
Raum_001
 62
256
370
-1
 48
1.0
  6
ByLayer
 10
264.0
 20
746.49999999999989
 30
0.0
 11
270.0
 21
746.49999999999989
 31
0.0
  0
LINE
  5
170
100
AcDbEntity
100
AcDbLine
  8
Raum_001
 62
256
370
-1
 48
1.0
  6
ByLayer
 10
270.0
 20
746.49999999999989
 30
0.0
 11
270.0
 21
752.49999999999989
 31
0.0
  0
LINE
  5
171
100
AcDbEntity
100
AcDbLine
  8
Raum_001
 62
256
370
-1
 48
1.0
  6
ByLayer
 10
270.0
 20
752.49999999999989
 30
0.0
 11
264.0
 21
752.49999999999989
 31
0.0
  0
LINE
  5
172
100
AcDbEntity
100
AcDbLine
  8
Raum_001
 62
256
370
-1
 48
1.0
  6
ByLayer
 10
282.0
 20
752.49999999999989
 30
0.0
 11
282.0
 21
746.49999999999989
 31
0.0
  0
LINE
  5
173
100
AcDbEntity
100
AcDbLine
  8
Raum_001
 62
256
370
-1
 48
1.0
  6
ByLayer
 10
282.0
 20
746.49999999999989
 30
0.0
 11
288.0
 21
746.49999999999989
 31
0.0
  0
LINE
  5
174
100
AcDbEntity
100
AcDbLine
  8
Raum_001
 62
256
370
-1
 48
1.0
  6
ByLayer
 10
288.0
 20
746.49999999999989
 30
0.0
 11
288.0
 21
752.49999999999989
 31
0.0
  0
LINE
  5
175
100
AcDbEntity
100
AcDbLine
  8
Raum_001
 62
256
370
-1
 48
1.0
  6
ByLayer
 10
288.0
 20
752.49999999999989
 30
0.0
 11
282.0
 21
752.49999999999989
 31
0.0
  0
LINE
  5
176
100
AcDbEntity
100
AcDbLine
  8
Raum_001
 62
256
370
-1
 48
1.0
  6
ByLayer
 10
308.0
 20
752.49999999999989
 30
0.0
 11
308.0
 21
746.49999999999989
 31
0.0
  0
LINE
  5
177
100
AcDbEntity
100
AcDbLine
  8
Raum_001
 62
256
370
-1
 48
1.0
  6
ByLayer
 10
308.0
 20
746.49999999999989
 30
0.0
 11
314.0
 21
746.49999999999989
 31
0.0
  0
LINE
  5
178
100
AcDbEntity
100
AcDbLine
  8
Raum_001
 62
256
370
-1
 48
1.0
  6
ByLayer
 10
314.0
 20
746.49999999999989
 30
0.0
 11
314.0
 21
752.49999999999989
 31
0.0
  0
LINE
  5
179
100
AcDbEntity
100
AcDbLine
  8
Raum_001
 62
256
370
-1
 48
1.0
  6
ByLayer
 10
314.0
 20
752.49999999999989
 30
0.0
 11
308.0
 21
752.49999999999989
 31
0.0
  0
LINE
  5
17A
100
AcDbEntity
100
AcDbLine
  8
Raum_001
 62
256
370
-1
 48
1.0
  6
ByLayer
 10
325.0
 20
751.49999999999989
 30
0.0
 11
325.0
 21
746.49999999999989
 31
0.0
  0
LINE
  5
17B
100
AcDbEntity
100
AcDbLine
  8
Raum_001
 62
256
370
-1
 48
1.0
  6
ByLayer
 10
325.0
 20
746.49999999999989
 30
0.0
 11
331.0
 21
746.49999999999989
 31
0.0
  0
LINE
  5
17C
100
AcDbEntity
100
AcDbLine
  8
Raum_001
 62
256
370
-1
 48
1.0
  6
ByLayer
 10
331.0
 20
746.49999999999989
 30
0.0
 11
331.0
 21
751.49999999999989
 31
0.0
  0
LINE
  5
17D
100
AcDbEntity
100
AcDbLine
  8
Raum_001
 62
256
370
-1
 48
1.0
  6
ByLayer
 10
331.0
 20
751.49999999999989
 30
0.0
 11
325.0
 21
751.49999999999989
 31
0.0
  0
LINE
  5
17E
100
AcDbEntity
100
AcDbLine
  8
Raum_001
 62
256
370
-1
 48
1.0
  6
ByLayer
 10
346.85924152951418
 20
820.6825342448509
 30
0.0
 11
362.0
 21
810.49999999999989
 31
0.0
  0
LINE
  5
17F
100
AcDbEntity
100
AcDbLine
  8
Raum_001
 62
256
370
-1
 48
1.0
  6
ByLayer
 10
362.0
 20
810.49999999999989
 30
0.0
 11
352.02490122613005
 21
796.677409772342
 31
0.0
  0
LINE
  5
180
100
AcDbEntity
100
AcDbLine
  8
Raum_RT_005
 62
256
370
-1
 48
1.0
  6
ByLayer
 10
343.0
 20
823.49999999999989
 30
0.0
 11
310.0322580645161
 21
775.14516129032245
 31
0.0
  0
LINE
  5
181
100
AcDbEntity
100
AcDbLine
  8
Raum_005
 62
256
370
-1
 48
1.0
  6
ByLayer
 10
451.0
 20
802.49999999999989
 30
0.0
 11
454.0
 21
800.49999999999989
 31
0.0
  0
LINE
  5
182
100
AcDbEntity
100
AcDbLine
  8
Raum_005
 62
256
370
-1
 48
1.0
  6
ByLayer
 10
454.0
 20
800.49999999999989
 30
0.0
 11
456.0
 21
804.49999999999989
 31
0.0
  0
LINE
  5
183
100
AcDbEntity
100
AcDbLine
  8
Raum_005
 62
256
370
-1
 48
1.0
  6
ByLayer
 10
439.0
 20
785.49999999999989
 30
0.0
 11
458.0
 21
771.49999999999989
 31
0.0
  0
LINE
  5
184
100
AcDbEntity
100
AcDbLine
  8
Raum_005
 62
256
370
-1
 48
1.0
  6
ByLayer
 10
458.0
 20
771.49999999999989
 30
0.0
 11
473.0
 21
792.49999999999989
 31
0.0
  0
LINE
  5
185
100
AcDbEntity
100
AcDbLine
  8
Tueren
 62
256
370
-1
 48
1.0
  6
ByLayer
 10
648.5342753176659
 20
774.55940426081679
 30
0.0
 11
670.87050115670593
 21
776.00891065396229
 31
0.0
  0
LINE
  5
186
100
AcDbEntity
100
AcDbLine
  8
Tueren
 62
256
370
-1
 48
1.0
  6
ByLayer
 10
670.87050115670593
 20
776.00891065396229
 30
0.0
 11
685.73069364204116
 21
777.01882664811126
 31
0.0
  0
LINE
  5
187
100
AcDbEntity
100
AcDbLine
  8
Tueren
 62
256
370
-1
 48
1.0
  6
ByLayer
 10
690.0
 20
720.49999999999989
 30
0.0
 11
675.63153370055124
 21
719.30934126816851
 31
0.0
  0
LINE
  5
188
100
AcDbEntity
100
AcDbLine
  8
Tueren
 62
256
370
-1
 48
1.0
  6
ByLayer
 10
675.63153370055124
 20
719.30934126816851
 30
0.0
 11
653.94453957203552
 21
716.95010895965868
 31
0.0
  0
LINE
  5
189
100
AcDbEntity
100
AcDbLine
  8
Tueren
 62
256
370
-1
 48
1.0
  6
ByLayer
 10
632.12464174994284
 20
712.03097754018586
 30
0.0
 11
624.22237905986344
 21
712.07300257108898
 31
0.0
  0
LINE
  5
18A
100
AcDbEntity
100
AcDbLine
  8
Tueren
 62
256
370
-1
 48
1.0
  6
ByLayer
 10
612.01242353497889
 20
712.06100760822494
 30
0.0
 11
603.95686797942335
 21
712.06100760822494
 31
0.0
  0
LINE
  5
18B
100
AcDbEntity
100
AcDbLine
  8
Tueren
 62
256
370
-1
 48
1.0
  6
ByLayer
 10
597.07029390534967
 20
712.06100760822517
 30
0.0
 11
589.07453773251018
 21
712.08029773168198
 31
0.0
  0
LINE
  5
18C
100
AcDbEntity
100
AcDbLine
  8
Tueren
 62
256
370
-1
 48
1.0
  6
ByLayer
 10
579.17668622902568
 20
721.13646689464724
 30
0.0
 11
571.52327743297815
 21
721.13646689464724
 31
0.0
  0
LINE
  5
18D
100
AcDbEntity
100
AcDbLine
  8
Tueren
 62
256
370
-1
 48
1.0
  6
ByLayer
 10
653.04262748786732
 20
682.10973662312153
 30
0.0
 11
663.04111373659009
 21
682.0840994788939
 31
0.0
  0
LINE
  5
18E
100
AcDbEntity
100
AcDbLine
  8
Raum_T_007
 62
256
370
-1
 48
1.0
  6
ByLayer
 10
376.0
 20
649.49999999999989
 30
0.0
 11
343.0
 21
601.49999999999989
 31
0.0
  0
LINE
  5
18F
100
AcDbEntity
100
AcDbLine
  8
Raum_T_007
 62
256
370
-1
 48
1.0
  6
ByLayer
 10
363.0
 20
658.49999999999989
 30
0.0
 11
330.0
 21
610.49999999999989
 31
0.0
  0
LINE
  5
190
100
AcDbEntity
100
AcDbLine
  8
Raum_RT_011
 62
256
370
-1
 48
1.0
  6
ByLayer
 10
386.0
 20
642.49999999999989
 30
0.0
 11
353.0
 21
594.49999999999989
 31
0.0
  0
LINE
  5
191
100
AcDbEntity
100
AcDbLine
  8
Raum_RT_010
 62
256
370
-1
 48
1.0
  6
ByLayer
 10
352.0
 20
665.49999999999989
 30
0.0
 11
319.0
 21
618.49999999999989
 31
0.0
  0
LINE
  5
192
100
AcDbEntity
100
AcDbLine
  8
Tueren
 62
256
370
-1
 48
1.0
  6
ByLayer
 10
319.0
 20
618.49999999999989
 30
0.0
 11
330.0
 21
610.49999999999989
 31
0.0
  0
LINE
  5
193
100
AcDbEntity
100
AcDbLine
  8
Tueren
 62
256
370
-1
 48
1.0
  6
ByLayer
 10
330.0
 20
610.49999999999989
 30
0.0
 11
343.0
 21
601.49999999999989
 31
0.0
  0
LINE
  5
194
100
AcDbEntity
100
AcDbLine
  8
Tueren
 62
256
370
-1
 48
1.0
  6
ByLayer
 10
343.0
 20
601.49999999999989
 30
0.0
 11
353.0
 21
594.49999999999989
 31
0.0
  0
LINE
  5
195
100
AcDbEntity
100
AcDbLine
  8
Tueren
 62
256
370
-1
 48
1.0
  6
ByLayer
 10
352.0
 20
665.49999999999989
 30
0.0
 11
363.0
 21
658.49999999999989
 31
0.0
  0
LINE
  5
196
100
AcDbEntity
100
AcDbLine
  8
Tueren
 62
256
370
-1
 48
1.0
  6
ByLayer
 10
363.0
 20
658.49999999999989
 30
0.0
 11
376.0
 21
649.49999999999989
 31
0.0
  0
LINE
  5
197
100
AcDbEntity
100
AcDbLine
  8
Tueren
 62
256
370
-1
 48
1.0
  6
ByLayer
 10
376.0
 20
649.49999999999989
 30
0.0
 11
386.0
 21
642.49999999999989
 31
0.0
  0
LINE
  5
198
100
AcDbEntity
100
AcDbLine
  8
Tueren
 62
256
370
-1
 48
1.0
  6
ByLayer
 10
546.38138946929348
 20
720.05924303814197
 30
0.0
 11
538.36618316652357
 21
720.05924303814197
 31
0.0
  0
LINE
  5
199
100
AcDbEntity
100
AcDbLine
  8
Tueren
 62
256
370
-1
 48
1.0
  6
ByLayer
 10
514.45946066619058
 20
717.02230431517467
 30
0.0
 11
506.6248372568607
 21
717.02230431517467
 31
0.0
  0
LINE
  5
19A
100
AcDbEntity
100
AcDbLine
  8
Tueren
 62
256
370
-1
 48
1.0
  6
ByLayer
 10
494.99389140005769
 20
703.05198065659886
 30
0.0
 11
486.9559206408137
 21
703.05198065659897
 31
0.0
  0
LINE
  5
19B
100
AcDbEntity
100
AcDbLine
  8
Tueren
 62
256
370
-1
 48
1.0
  6
ByLayer
 10
463.06289892172651
 20
703.01210617478273
 30
0.0
 11
455.92218514857473
 21
703.04237657725673
 31
0.0
  0
LINE
  5
19C
100
AcDbEntity
100
AcDbLine
  8
Tueren
 62
256
370
-1
 48
1.0
  6
ByLayer
 10
443.01911393153978
 20
702.50785917697738
 30
0.0
 11
435.93702375845828
 21
701.58310977915198
 31
0.0
  0
LINE
  5
19D
100
AcDbEntity
100
AcDbLine
  8
Tueren
 62
256
370
-1
 48
1.0
  6
ByLayer
 10
419.966954143066
 20
701.32597759010775
 30
0.0
 11
411.92898338382201
 21
701.32597759010775
 31
0.0
  0
LINE
  5
19E
100
AcDbEntity
100
AcDbLine
  8
Tueren
 62
256
370
-1
 48
1.0
  6
ByLayer
 10
393.0
 20
705.49999999999989
 30
0.0
 11
400.0
 21
703.49999999999989
 31
0.0
  0
LINE
  5
19F
100
AcDbEntity
100
AcDbLine
  8
Tueren
 62
256
370
-1
 48
1.0
  6
ByLayer
 10
382.03716280146728
 20
709.50188903540254
 30
0.0
 11
374.95439211056078
 21
711.22838812544717
 31
0.0
  0
LINE
  5
1A0
100
AcDbEntity
100
AcDbLine
  8
Tueren
 62
256
370
-1
 48
1.0
  6
ByLayer
 10
353.65798905526276
 20
750.29915327202525
 30
0.0
 11
353.65798905526276
 21
736.96560132582545
 31
0.0
  0
LINE
  5
1A1
100
AcDbEntity
100
AcDbLine
  8
Tueren
 62
256
370
-1
 48
1.0
  6
ByLayer
 10
353.65798905526276
 20
736.96560132582545
 30
0.0
 11
353.52209998231763
 21
716.97957746815916
 31
0.0
  0
LINE
  5
1A2
100
AcDbEntity
100
AcDbLine
  8
Tueren
 62
256
370
-1
 48
1.0
  6
ByLayer
 10
485.0
 20
850.49999999999989
 30
0.0
 11
504.0
 21
837.49999999999989
 31
0.0
  0
LINE
  5
1A3
100
AcDbEntity
100
AcDbLine
  8
Tueren
 62
256
370
-1
 48
1.0
  6
ByLayer
 10
549.36437208571078
 20
731.13012256424201
 30
0.0
 11
549.36437208571078
 21
722.91453610390306
 31
0.0
  0
LINE
  5
1A4
100
AcDbEntity
100
AcDbLine
  8
Tueren
 62
256
370
-1
 48
1.0
  6
ByLayer
 10
539.03647262823984
 20
736.98393200813484
 30
0.0
 11
546.49617132844492
 21
736.92324279559705
 31
0.0
  0
LINE
  5
1A5
100
AcDbEntity
100
AcDbLine
  8
Tueren
 62
256
370
-1
 48
1.0
  6
ByLayer
 10
522.6584593542575
 20
739.92052834080744
 30
0.0
 11
522.6584593542575
 21
733.9133147442825
 31
0.0
  0
LINE
  5
1A6
100
AcDbEntity
100
AcDbLine
  8
Tueren
 62
256
370
-1
 48
1.0
  6
ByLayer
 10
504.34280889293996
 20
750.63439753330636
 30
0.0
 11
512.08406370301418
 21
750.65950662291618
 31
0.0
  0
LINE
  5
1A7
100
AcDbEntity
100
AcDbLine
  8
Tueren
 62
256
370
-1
 48
1.0
  6
ByLayer
 10
439.99367277249507
 20
754.80458108287326
 30
0.0
 11
439.99367277249507
 21
748.45504349568523
 31
0.0
  0
LINE
  5
1A8
100
AcDbEntity
100
AcDbLine
  8
Raum_T_002
 62
256
370
-1
 48
1.0
  6
ByLayer
 10
353.65798905526276
 20
736.96560132582545
 30
0.0
 11
407.7901737403331
 21
737.11230101331887
 31
0.0
  0
LINE
  5
1A9
100
AcDbEntity
100
AcDbLine
  8
Tueren
 62
256
370
-1
 48
1.0
  6
ByLayer
 10
351.00060145355644
 20
758.0237396847109
 30
0.0
 11
350.93680803483221
 21
752.40991883698484
 31
0.0
  0
LINE
  5
1AA
100
AcDbEntity
100
AcDbLine
  8
Tueren
 62
256
370
-1
 48
1.0
  6
ByLayer
 10
352.0787687721388
 20
764.46708873467549
 30
0.0
 11
356.1865175746907
 21
771.57022010369928
 31
0.0
  0
LINE
  5
1AB
100
AcDbEntity
100
AcDbLine
  8
Tueren
 62
256
370
-1
 48
1.0
  6
ByLayer
 10
360.97102397900255
 20
771.57022010369928
 30
0.0
 11
367.08455994006772
 21
771.57022010369928
 31
0.0
  0
LINE
  5
1AC
100
AcDbEntity
100
AcDbLine
  8
Tueren
 62
256
370
-1
 48
1.0
  6
ByLayer
 10
370.18568009807495
 20
770.45785780548499
 30
0.0
 11
369.97761586247066
 21
764.41392996237903
 31
0.0
  0
LINE
  5
1AD
100
AcDbEntity
100
AcDbLine
  8
Tueren
 62
256
370
-1
 48
1.0
  6
ByLayer
 10
378.0
 20
769.49999999999989
 30
0.0
 11
383.0
 21
772.49999999999989
 31
0.0
  0
LINE
  5
1AE
100
AcDbEntity
100
AcDbLine
  8
Tueren
 62
256
370
-1
 48
1.0
  6
ByLayer
 10
410.0
 20
771.49999999999989
 30
0.0
 11
411.0
 21
765.49999999999989
 31
0.0
  0
LINE
  5
1AF
100
AcDbEntity
100
AcDbLine
  8
Tueren
 62
256
370
-1
 48
1.0
  6
ByLayer
 10
380.0
 20
805.49999999999989
 30
0.0
 11
375.44919383096749
 21
796.33565201512431
 31
0.0
  0
LINE
  5
1B0
100
AcDbEntity
100
AcDbLine
  8
Tueren
 62
256
370
-1
 48
1.0
  6
ByLayer
 10
383.0
 20
811.49999999999989
 30
0.0
 11
388.0
 21
813.49999999999989
 31
0.0
  0
LINE
  5
1B1
100
AcDbEntity
100
AcDbLine
  8
Tueren
 62
256
370
-1
 48
1.0
  6
ByLayer
 10
392.0
 20
813.49999999999989
 30
0.0
 11
398.0
 21
813.49999999999989
 31
0.0
  0
LINE
  5
1B2
100
AcDbEntity
100
AcDbLine
  8
Raum_002
 62
256
370
-1
 48
1.0
  6
ByLayer
 10
352.0
 20
665.49999999999989
 30
0.0
 11
302.0
 21
674.49999999999989
 31
0.0
  0
LINE
  5
1B3
100
AcDbEntity
100
AcDbLine
  8
Raum_002
 62
256
370
-1
 48
1.0
  6
ByLayer
 10
302.0
 20
674.49999999999989
 30
0.0
 11
251.0
 21
599.49999999999989
 31
0.0
  0
LINE
  5
1B4
100
AcDbEntity
100
AcDbLine
  8
Raum_002
 62
256
370
-1
 48
1.0
  6
ByLayer
 10
251.0
 20
599.49999999999989
 30
0.0
 11
235.0
 21
610.49999999999989
 31
0.0
  0
LINE
  5
1B5
100
AcDbEntity
100
AcDbLine
  8
Raum_002
 62
256
370
-1
 48
1.0
  6
ByLayer
 10
235.0
 20
610.49999999999989
 30
0.0
 11
254.0
 21
638.49999999999989
 31
0.0
  0
LINE
  5
1B6
100
AcDbEntity
100
AcDbLine
  8
Raum_002
 62
256
370
-1
 48
1.0
  6
ByLayer
 10
254.0
 20
638.49999999999989
 30
0.0
 11
276.0
 21
668.49999999999989
 31
0.0
  0
LINE
  5
1B7
100
AcDbEntity
100
AcDbLine
  8
Raum_001
 62
256
370
-1
 48
1.0
  6
ByLayer
 10
276.0
 20
668.49999999999989
 30
0.0
 11
276.0
 21
669.49999999999989
 31
0.0
  0
LINE
  5
1B8
100
AcDbEntity
100
AcDbLine
  8
Raum_001
 62
256
370
-1
 48
1.0
  6
ByLayer
 10
305.0
 20
690.49999999999989
 30
0.0
 11
312.0
 21
688.49999999999989
 31
0.0
  0
LINE
  5
1B9
100
AcDbEntity
100
AcDbLine
  8
Raum_001
 62
256
370
-1
 48
1.0
  6
ByLayer
 10
318.0
 20
687.49999999999989
 30
0.0
 11
328.0
 21
685.49999999999989
 31
0.0
  0
LINE
  5
1BA
100
AcDbEntity
100
AcDbLine
  8
Raum_001
 62
256
370
-1
 48
1.0
  6
ByLayer
 10
340.0
 20
688.49999999999989
 30
0.0
 11
343.0
 21
687.49999999999989
 31
0.0
  0
LINE
  5
1BB
100
AcDbEntity
100
AcDbLine
  8
Raum_001
 62
256
370
-1
 48
1.0
  6
ByLayer
 10
348.0
 20
686.49999999999989
 30
0.0
 11
352.0
 21
685.49999999999989
 31
0.0
  0
LINE
  5
1BC
100
AcDbEntity
100
AcDbLine
  8
Raum_001
 62
256
370
-1
 48
1.0
  6
ByLayer
 10
357.0
 20
684.49999999999989
 30
0.0
 11
361.0
 21
683.49999999999989
 31
0.0
  0
LINE
  5
1BD
100
AcDbEntity
100
AcDbLine
  8
Raum_001
 62
256
370
-1
 48
1.0
  6
ByLayer
 10
361.0
 20
683.49999999999989
 30
0.0
 11
359.0
 21
680.49999999999989
 31
0.0
  0
LINE
  5
1BE
100
AcDbEntity
100
AcDbLine
  8
Raum_001
 62
256
370
-1
 48
1.0
  6
ByLayer
 10
359.0
 20
680.49999999999989
 30
0.0
 11
360.0
 21
679.49999999999989
 31
0.0
  0
LINE
  5
1BF
100
AcDbEntity
100
AcDbLine
  8
Raum_001
 62
256
370
-1
 48
1.0
  6
ByLayer
 10
356.0
 20
671.49999999999989
 30
0.0
 11
352.0
 21
665.49999999999989
 31
0.0
  0
LINE
  5
1C0
100
AcDbEntity
100
AcDbLine
  8
Tueren
 62
256
370
-1
 48
1.0
  6
ByLayer
 10
356.0
 20
671.49999999999989
 30
0.0
 11
360.0
 21
679.49999999999989
 31
0.0
  0
LINE
  5
1C1
100
AcDbEntity
100
AcDbLine
  8
Tueren
 62
256
370
-1
 48
1.0
  6
ByLayer
 10
357.0
 20
684.49999999999989
 30
0.0
 11
352.0
 21
685.49999999999989
 31
0.0
  0
LINE
  5
1C2
100
AcDbEntity
100
AcDbLine
  8
Tueren
 62
256
370
-1
 48
1.0
  6
ByLayer
 10
348.0
 20
686.49999999999989
 30
0.0
 11
343.0
 21
687.49999999999989
 31
0.0
  0
LINE
  5
1C3
100
AcDbEntity
100
AcDbLine
  8
Tueren
 62
256
370
-1
 48
1.0
  6
ByLayer
 10
334.0
 20
684.49999999999989
 30
0.0
 11
328.0
 21
685.49999999999989
 31
0.0
  0
LINE
  5
1C4
100
AcDbEntity
100
AcDbLine
  8
Tueren
 62
256
370
-1
 48
1.0
  6
ByLayer
 10
318.0
 20
687.49999999999989
 30
0.0
 11
312.0
 21
688.49999999999989
 31
0.0
  0
LINE
  5
1C5
100
AcDbEntity
100
AcDbLine
  8
Tueren
 62
256
370
-1
 48
1.0
  6
ByLayer
 10
305.0
 20
690.49999999999989
 30
0.0
 11
305.0
 21
698.49999999999989
 31
0.0
  0
LINE
  5
1C6
100
AcDbEntity
100
AcDbLine
  8
Raum_357
 62
256
370
-1
 48
1.0
  6
ByLayer
 10
259.0
 20
680.49999999999989
 30
0.0
 11
230.0
 21
638.49999999999989
 31
0.0
  0
LINE
  5
1C7
100
AcDbEntity
100
AcDbLine
  8
Raum_357
 62
256
370
-1
 48
1.0
  6
ByLayer
 10
230.0
 20
638.49999999999989
 30
0.0
 11
217.0
 21
620.49999999999989
 31
0.0
  0
LINE
  5
1C8
100
AcDbEntity
100
AcDbLine
  8
Raum_357
 62
256
370
-1
 48
1.0
  6
ByLayer
 10
217.0
 20
620.49999999999989
 30
0.0
 11
201.0
 21
631.49999999999989
 31
0.0
  0
LINE
  5
1C9
100
AcDbEntity
100
AcDbLine
  8
Raum_357
 62
256
370
-1
 48
1.0
  6
ByLayer
 10
201.0
 20
631.49999999999989
 30
0.0
 11
242.0
 21
690.49999999999989
 31
0.0
  0
LINE
  5
1CA
100
AcDbEntity
100
AcDbLine
  8
Raum_001
 62
256
370
-1
 48
1.0
  6
ByLayer
 10
242.0
 20
690.49999999999989
 30
0.0
 11
253.0
 21
683.49999999999989
 31
0.0
  0
LINE
  5
1CB
100
AcDbEntity
100
AcDbLine
  8
Tueren
 62
256
370
-1
 48
1.0
  6
ByLayer
 10
254.0
 20
638.49999999999989
 30
0.0
 11
230.00725041581063
 21
638.51050060220837
 31
0.0
  0
LINE
  5
1CC
100
AcDbEntity
100
AcDbLine
  8
Tueren
 62
256
370
-1
 48
1.0
  6
ByLayer
 10
259.0
 20
680.49999999999989
 30
0.0
 11
253.0
 21
683.49999999999989
 31
0.0
  0
LINE
  5
1CD
100
AcDbEntity
100
AcDbLine
  8
Tueren
 62
256
370
-1
 48
1.0
  6
ByLayer
 10
259.0
 20
680.49999999999989
 30
0.0
 11
276.0
 21
668.49999999999989
 31
0.0
  0
LINE
  5
1CE
100
AcDbEntity
100
AcDbLine
  8
Tueren
 62
256
370
-1
 48
1.0
  6
ByLayer
 10
198.0
 20
650.49999999999989
 30
0.0
 11
214.20338983050851
 21
650.49999999999989
 31
0.0
  0
LINE
  5
1CF
100
AcDbEntity
100
AcDbLine
  8
Tueren
 62
256
370
-1
 48
1.0
  6
ByLayer
 10
242.0
 20
690.49999999999989
 30
0.0
 11
230.0
 21
698.49999999999989
 31
0.0
  0
LINE
  5
1D0
100
AcDbEntity
100
AcDbLine
  8
Raum_T_006
 62
256
370
-1
 48
1.0
  6
ByLayer
 10
177.0
 20
682.49999999999989
 30
0.0
 11
144.0
 21
636.49999999999989
 31
0.0
  0
LINE
  5
1D1
100
AcDbEntity
100
AcDbLine
  8
Raum_T_006
 62
256
370
-1
 48
1.0
  6
ByLayer
 10
158.0
 20
695.49999999999989
 30
0.0
 11
125.0
 21
648.49999999999989
 31
0.0
  0
LINE
  5
1D2
100
AcDbEntity
100
AcDbLine
  8
Tueren
 62
256
370
-1
 48
1.0
  6
ByLayer
 10
114.0
 20
656.49999999999989
 30
0.0
 11
125.0
 21
648.49999999999989
 31
0.0
  0
LINE
  5
1D3
100
AcDbEntity
100
AcDbLine
  8
Tueren
 62
256
370
-1
 48
1.0
  6
ByLayer
 10
125.0
 20
648.49999999999989
 30
0.0
 11
144.0
 21
636.49999999999989
 31
0.0
  0
LINE
  5
1D4
100
AcDbEntity
100
AcDbLine
  8
Tueren
 62
256
370
-1
 48
1.0
  6
ByLayer
 10
147.0
 20
702.49999999999989
 30
0.0
 11
158.0
 21
695.49999999999989
 31
0.0
  0
LINE
  5
1D5
100
AcDbEntity
100
AcDbLine
  8
Tueren
 62
256
370
-1
 48
1.0
  6
ByLayer
 10
158.0
 20
695.49999999999989
 30
0.0
 11
177.0
 21
682.49999999999989
 31
0.0
  0
LINE
  5
1D6
100
AcDbEntity
100
AcDbLine
  8
Raum_003
 62
256
370
-1
 48
1.0
  6
ByLayer
 10
144.0
 20
716.49999999999989
 30
0.0
 11
138.80358799876268
 21
691.0746984225176
 31
0.0
  0
LINE
  5
1D7
100
AcDbEntity
100
AcDbLine
  8
Raum_003
 62
256
370
-1
 48
1.0
  6
ByLayer
 10
147.0
 20
702.49999999999989
 30
0.0
 11
138.80358799876268
 21
691.0746984225176
 31
0.0
  0
LINE
  5
1D8
100
AcDbEntity
100
AcDbLine
  8
Raum_003
 62
256
370
-1
 48
1.0
  6
ByLayer
 10
144.0
 20
716.49999999999989
 30
0.0
 11
163.0
 21
813.49999999999989
 31
0.0
  0
LINE
  5
1D9
100
AcDbEntity
100
AcDbLine
  8
Raum_003
 62
256
370
-1
 48
1.0
  6
ByLayer
 10
163.0
 20
813.49999999999989
 30
0.0
 11
280.0
 21
847.49999999999989
 31
0.0
  0
LINE
  5
1DA
100
AcDbEntity
100
AcDbLine
  8
Raum_003
 62
256
370
-1
 48
1.0
  6
ByLayer
 10
280.0
 20
847.49999999999989
 30
0.0
 11
344.0
 21
865.49999999999989
 31
0.0
  0
LINE
  5
1DB
100
AcDbEntity
100
AcDbLine
  8
Raum_001
 62
256
370
-1
 48
1.0
  6
ByLayer
 10
152.0
 20
711.49999999999989
 30
0.0
 11
153.0
 21
713.49999999999989
 31
0.0
  0
LINE
  5
1DC
100
AcDbEntity
100
AcDbLine
  8
Raum_001
 62
256
370
-1
 48
1.0
  6
ByLayer
 10
153.0
 20
713.49999999999989
 30
0.0
 11
170.0
 21
714.49999999999989
 31
0.0
  0
LINE
  5
1DD
100
AcDbEntity
100
AcDbLine
  8
Raum_001
 62
256
370
-1
 48
1.0
  6
ByLayer
 10
237.0
 20
751.49999999999989
 30
0.0
 11
244.0
 21
753.49999999999989
 31
0.0
  0
LINE
  5
1DE
100
AcDbEntity
100
AcDbLine
  8
Raum_001
 62
256
370
-1
 48
1.0
  6
ByLayer
 10
251.0
 20
756.49999999999989
 30
0.0
 11
264.0
 21
762.49999999999989
 31
0.0
  0
LINE
  5
1DF
100
AcDbEntity
100
AcDbLine
  8
Raum_001
 62
256
370
-1
 48
1.0
  6
ByLayer
 10
273.0
 20
765.49999999999989
 30
0.0
 11
279.0
 21
767.49999999999989
 31
0.0
  0
LINE
  5
1E0
100
AcDbEntity
100
AcDbLine
  8
Raum_001
 62
256
370
-1
 48
1.0
  6
ByLayer
 10
279.0
 20
767.49999999999989
 30
0.0
 11
282.0
 21
772.49999999999989
 31
0.0
  0
LINE
  5
1E1
100
AcDbEntity
100
AcDbLine
  8
Raum_001
 62
256
370
-1
 48
1.0
  6
ByLayer
 10
329.0
 20
841.49999999999989
 30
0.0
 11
333.0
 21
842.49999999999989
 31
0.0
  0
LINE
  5
1E2
100
AcDbEntity
100
AcDbLine
  8
Raum_001
 62
256
370
-1
 48
1.0
  6
ByLayer
 10
342.0
 20
845.49999999999989
 30
0.0
 11
348.0
 21
847.49999999999989
 31
0.0
  0
LINE
  5
1E3
100
AcDbEntity
100
AcDbLine
  8
Raum_001
 62
256
370
-1
 48
1.0
  6
ByLayer
 10
348.0
 20
847.49999999999989
 30
0.0
 11
344.0
 21
865.49999999999989
 31
0.0
  0
LINE
  5
1E4
100
AcDbEntity
100
AcDbLine
  8
Tueren
 62
256
370
-1
 48
1.0
  6
ByLayer
 10
147.0
 20
702.49999999999989
 30
0.0
 11
152.0
 21
711.49999999999989
 31
0.0
  0
LINE
  5
1E5
100
AcDbEntity
100
AcDbLine
  8
Tueren
 62
256
370
-1
 48
1.0
  6
ByLayer
 10
170.0
 20
714.49999999999989
 30
0.0
 11
179.0
 21
715.49999999999989
 31
0.0
  0
LINE
  5
1E6
100
AcDbEntity
100
AcDbLine
  8
Tueren
 62
256
370
-1
 48
1.0
  6
ByLayer
 10
196.0
 20
717.49999999999989
 30
0.0
 11
205.0
 21
718.49999999999989
 31
0.0
  0
LINE
  5
1E7
100
AcDbEntity
100
AcDbLine
  8
Tueren
 62
256
370
-1
 48
1.0
  6
ByLayer
 10
244.0
 20
753.49999999999989
 30
0.0
 11
251.0
 21
756.49999999999989
 31
0.0
  0
LINE
  5
1E8
100
AcDbEntity
100
AcDbLine
  8
Tueren
 62
256
370
-1
 48
1.0
  6
ByLayer
 10
264.0
 20
762.49999999999989
 30
0.0
 11
273.0
 21
765.49999999999989
 31
0.0
  0
LINE
  5
1E9
100
AcDbEntity
100
AcDbLine
  8
Tueren
 62
256
370
-1
 48
1.0
  6
ByLayer
 10
282.0
 20
772.49999999999989
 30
0.0
 11
287.0
 21
779.49999999999989
 31
0.0
  0
LINE
  5
1EA
100
AcDbEntity
100
AcDbLine
  8
Tueren
 62
256
370
-1
 48
1.0
  6
ByLayer
 10
296.0
 20
792.49999999999989
 30
0.0
 11
301.0
 21
799.49999999999989
 31
0.0
  0
LINE
  5
1EB
100
AcDbEntity
100
AcDbLine
  8
Tueren
 62
256
370
-1
 48
1.0
  6
ByLayer
 10
307.0
 20
809.49999999999989
 30
0.0
 11
313.0
 21
817.49999999999989
 31
0.0
  0
LINE
  5
1EC
100
AcDbEntity
100
AcDbLine
  8
Tueren
 62
256
370
-1
 48
1.0
  6
ByLayer
 10
322.0
 20
830.49999999999989
 30
0.0
 11
327.0
 21
838.49999999999989
 31
0.0
  0
LINE
  5
1ED
100
AcDbEntity
100
AcDbLine
  8
Tueren
 62
256
370
-1
 48
1.0
  6
ByLayer
 10
333.0
 20
842.49999999999989
 30
0.0
 11
342.0
 21
845.49999999999989
 31
0.0
  0
LINE
  5
1EE
100
AcDbEntity
100
AcDbLine
  8
Raum_003
 62
256
370
-1
 48
1.0
  6
ByLayer
 10
237.0
 20
722.49999999999989
 30
0.0
 11
194.0
 21
722.49999999999989
 31
0.0
  0
LINE
  5
1EF
100
AcDbEntity
100
AcDbLine
  8
Raum_003
 62
256
370
-1
 48
1.0
  6
ByLayer
 10
194.0
 20
722.49999999999989
 30
0.0
 11
164.0
 21
722.49999999999989
 31
0.0
  0
LINE
  5
1F0
100
AcDbEntity
100
AcDbLine
  8
Raum_003
 62
256
370
-1
 48
1.0
  6
ByLayer
 10
164.0
 20
722.49999999999989
 30
0.0
 11
164.0
 21
751.49999999999989
 31
0.0
  0
LINE
  5
1F1
100
AcDbEntity
100
AcDbLine
  8
Raum_003
 62
256
370
-1
 48
1.0
  6
ByLayer
 10
164.0
 20
751.49999999999989
 30
0.0
 11
173.0
 21
751.49999999999989
 31
0.0
  0
LINE
  5
1F2
100
AcDbEntity
100
AcDbLine
  8
Raum_003
 62
256
370
-1
 48
1.0
  6
ByLayer
 10
173.0
 20
751.49999999999989
 30
0.0
 11
237.0
 21
751.49999999999989
 31
0.0
  0
LINE
  5
1F3
100
AcDbEntity
100
AcDbLine
  8
Tueren
 62
256
370
-1
 48
1.0
  6
ByLayer
 10
173.0
 20
751.49999999999989
 30
0.0
 11
183.5
 21
736.99999999999989
 31
0.0
  0
LINE
  5
1F4
100
AcDbEntity
100
AcDbLine
  8
Tueren
 62
256
370
-1
 48
1.0
  6
ByLayer
 10
183.5
 20
736.99999999999989
 30
0.0
 11
194.0
 21
722.49999999999989
 31
0.0
  0
LINE
  5
1F5
100
AcDbEntity
100
AcDbLine
  8
Tueren
 62
256
370
-1
 48
1.0
  6
ByLayer
 10
237.0
 20
722.49999999999989
 30
0.0
 11
236.5
 21
736.99999999999989
 31
0.0
  0
LINE
  5
1F6
100
AcDbEntity
100
AcDbLine
  8
Tueren
 62
256
370
-1
 48
1.0
  6
ByLayer
 10
236.5
 20
736.99999999999989
 30
0.0
 11
237.0
 21
751.49999999999989
 31
0.0
  0
LINE
  5
1F7
100
AcDbEntity
100
AcDbLine
  8
Raum_360
 62
256
370
-1
 48
1.0
  6
ByLayer
 10
230.0
 20
698.49999999999989
 30
0.0
 11
198.0
 21
650.49999999999989
 31
0.0
  0
LINE
  5
1F8
100
AcDbEntity
100
AcDbLine
  8
Raum_360
 62
256
370
-1
 48
1.0
  6
ByLayer
 10
198.0
 20
650.49999999999989
 30
0.0
 11
190.0
 21
639.49999999999989
 31
0.0
  0
LINE
  5
1F9
100
AcDbEntity
100
AcDbLine
  8
Raum_360
 62
256
370
-1
 48
1.0
  6
ByLayer
 10
190.0
 20
639.49999999999989
 30
0.0
 11
177.0
 21
648.49999999999989
 31
0.0
  0
LINE
  5
1FA
100
AcDbEntity
100
AcDbLine
  8
Raum_360
 62
256
370
-1
 48
1.0
  6
ByLayer
 10
177.0
 20
648.49999999999989
 30
0.0
 11
215.0
 21
699.49999999999989
 31
0.0
  0
LINE
  5
1FB
100
AcDbEntity
100
AcDbLine
  8
Tueren
 62
256
370
-1
 48
1.0
  6
ByLayer
 10
217.0
 20
704.49999999999989
 30
0.0
 11
225.0
 21
705.49999999999989
 31
0.0
  0
LINE
  5
1FC
100
AcDbEntity
100
AcDbLine
  8
Raum_360
 62
256
370
-1
 48
1.0
  6
ByLayer
 10
207.38461538461542
 20
702.96153846153834
 30
0.0
 11
215.0
 21
699.49999999999989
 31
0.0
  0
LINE
  5
1FD
100
AcDbEntity
100
AcDbLine
  8
Raum_360
 62
256
370
-1
 48
1.0
  6
ByLayer
 10
204.0
 20
704.49999999999989
 30
0.0
 11
204.0
 21
704.49999999999989
 31
0.0
  0
LINE
  5
1FE
100
AcDbEntity
100
AcDbLine
  8
Raum_360
 62
256
370
-1
 48
1.0
  6
ByLayer
 10
204.0
 20
704.49999999999989
 30
0.0
 11
204.0
 21
704.49999999999989
 31
0.0
  0
LINE
  5
1FF
100
AcDbEntity
100
AcDbLine
  8
Raum_360
 62
256
370
-1
 48
1.0
  6
ByLayer
 10
204.0
 20
704.49999999999989
 30
0.0
 11
204.0
 21
704.49999999999989
 31
0.0
  0
LINE
  5
200
100
AcDbEntity
100
AcDbLine
  8
Raum_360
 62
256
370
-1
 48
1.0
  6
ByLayer
 10
204.0
 20
704.49999999999989
 30
0.0
 11
204.0
 21
704.49999999999989
 31
0.0
  0
LINE
  5
201
100
AcDbEntity
100
AcDbLine
  8
Raum_360
 62
256
370
-1
 48
1.0
  6
ByLayer
 10
204.0
 20
704.49999999999989
 30
0.0
 11
204.0
 21
704.49999999999989
 31
0.0
  0
LINE
  5
202
100
AcDbEntity
100
AcDbLine
  8
Tueren
 62
256
370
-1
 48
1.0
  6
ByLayer
 10
377.0
 20
887.49999999999989
 30
0.0
 11
379.0
 21
880.49999999999989
 31
0.0
  0
LINE
  5
203
100
AcDbEntity
100
AcDbLine
  8
Tueren
 62
256
370
-1
 48
1.0
  6
ByLayer
 10
382.0
 20
868.49999999999989
 30
0.0
 11
383.0
 21
861.49999999999989
 31
0.0
  0
LINE
  5
204
100
AcDbEntity
100
AcDbLine
  8
Raum_004
 62
256
370
-1
 48
1.0
  6
ByLayer
 10
376.0
 20
898.49999999999989
 30
0.0
 11
396.0
 21
883.49999999999989
 31
0.0
  0
LINE
  5
205
100
AcDbEntity
100
AcDbLine
  8
Raum_004
 62
256
370
-1
 48
1.0
  6
ByLayer
 10
396.0
 20
883.49999999999989
 30
0.0
 11
409.0
 21
900.49999999999989
 31
0.0
  0
LINE
  5
206
100
AcDbEntity
100
AcDbLine
  8
Raum_004
 62
256
370
-1
 48
1.0
  6
ByLayer
 10
409.0
 20
900.49999999999989
 30
0.0
 11
418.0
 21
893.49999999999989
 31
0.0
  0
LINE
  5
207
100
AcDbEntity
100
AcDbLine
  8
Raum_001
 62
256
370
-1
 48
1.0
  6
ByLayer
 10
406.0
 20
876.49999999999989
 30
0.0
 11
409.0
 21
874.49999999999989
 31
0.0
  0
LINE
  5
208
100
AcDbEntity
100
AcDbLine
  8
Raum_001
 62
256
370
-1
 48
1.0
  6
ByLayer
 10
376.0
 20
898.49999999999989
 30
0.0
 11
377.0
 21
887.49999999999989
 31
0.0
  0
LINE
  5
209
100
AcDbEntity
100
AcDbLine
  8
Raum_T_005
 62
256
370
-1
 48
1.0
  6
ByLayer
 10
329.0
 20
939.49999999999989
 30
0.0
 11
351.0
 21
887.49999999999989
 31
0.0
  0
LINE
  5
20A
100
AcDbEntity
100
AcDbLine
  8
Raum_T_005
 62
256
370
-1
 48
1.0
  6
ByLayer
 10
344.0
 20
945.49999999999989
 30
0.0
 11
365.0
 21
893.49999999999989
 31
0.0
  0
LINE
  5
20B
100
AcDbEntity
100
AcDbLine
  8
Raum_RT_003
 62
256
370
-1
 48
1.0
  6
ByLayer
 10
340.0
 20
882.49999999999989
 30
0.0
 11
318.0
 21
934.49999999999989
 31
0.0
  0
LINE
  5
20C
100
AcDbEntity
100
AcDbLine
  8
Raum_RT_004
 62
256
370
-1
 48
1.0
  6
ByLayer
 10
376.0
 20
898.49999999999989
 30
0.0
 11
355.0
 21
950.49999999999989
 31
0.0
  0
LINE
  5
20D
100
AcDbEntity
100
AcDbLine
  8
Tueren
 62
256
370
-1
 48
1.0
  6
ByLayer
 10
318.0
 20
934.49999999999989
 30
0.0
 11
329.0
 21
939.49999999999989
 31
0.0
  0
LINE
  5
20E
100
AcDbEntity
100
AcDbLine
  8
Tueren
 62
256
370
-1
 48
1.0
  6
ByLayer
 10
329.0
 20
939.49999999999989
 30
0.0
 11
344.0
 21
945.49999999999989
 31
0.0
  0
LINE
  5
20F
100
AcDbEntity
100
AcDbLine
  8
Tueren
 62
256
370
-1
 48
1.0
  6
ByLayer
 10
344.0
 20
945.49999999999989
 30
0.0
 11
355.0
 21
950.49999999999989
 31
0.0
  0
LINE
  5
210
100
AcDbEntity
100
AcDbLine
  8
Tueren
 62
256
370
-1
 48
1.0
  6
ByLayer
 10
376.0
 20
898.49999999999989
 30
0.0
 11
365.0
 21
893.49999999999989
 31
0.0
  0
LINE
  5
211
100
AcDbEntity
100
AcDbLine
  8
Tueren
 62
256
370
-1
 48
1.0
  6
ByLayer
 10
365.0
 20
893.49999999999989
 30
0.0
 11
351.0
 21
887.49999999999989
 31
0.0
  0
LINE
  5
212
100
AcDbEntity
100
AcDbLine
  8
Tueren
 62
256
370
-1
 48
1.0
  6
ByLayer
 10
351.0
 20
887.49999999999989
 30
0.0
 11
340.0
 21
882.49999999999989
 31
0.0
  0
LINE
  5
213
100
AcDbEntity
100
AcDbLine
  8
Tueren
 62
256
370
-1
 48
1.0
  6
ByLayer
 10
451.0
 20
802.49999999999989
 30
0.0
 11
439.0
 21
785.49999999999989
 31
0.0
  0
LINE
  5
214
100
AcDbEntity
100
AcDbLine
  8
Tueren
 62
256
370
-1
 48
1.0
  6
ByLayer
 10
456.0
 20
804.49999999999989
 30
0.0
 11
473.0
 21
792.49999999999989
 31
0.0
  0
LINE
  5
215
100
AcDbEntity
100
AcDbLine
  8
Tueren
 62
256
370
-1
 48
1.0
  6
ByLayer
 10
435.0
 20
813.49999999999989
 30
0.0
 11
423.0
 21
797.49999999999989
 31
0.0
  0
LINE
  5
216
100
AcDbEntity
100
AcDbLine
  8
Raum_RT_005
 62
256
370
-1
 48
1.0
  6
ByLayer
 10
310.0322580645161
 20
775.14516129032245
 30
0.0
 11
343.0
 21
823.49999999999977
 31
0.0
  0
LINE
  5
217
100
AcDbEntity
100
AcDbLine
  8
Raum_RT_007
 62
256
370
-1
 48
1.0
  6
ByLayer
 10
183.5
 20
736.99999999999989
 30
0.0
 11
236.5
 21
736.99999999999989
 31
0.0
  0
LINE
  5
218
100
AcDbEntity
100
AcDbLine
  8
Hintergrundbild
 62
256
370
-1
 48
1.0
  6
ByLayer
 10
693.00000000000011
 20
684.49999999999989
 30
0.0
 11
727.0
 21
572.0
 31
0.0
  0
LINE
  5
219
100
AcDbEntity
100
AcDbLine
  8
Raum_RT_005
 62
256
370
-1
 48
1.0
  6
ByLayer
 10
346.54057883888709
 20
807.82029371350063
 30
0.0
 11
320.11792193512929
 21
768.42138537658047
 31
0.0
  0
LINE
  5
21A
100
AcDbEntity
100
AcDbLine
  8
Tueren
 62
256
370
-1
 48
1.0
  6
ByLayer
 10
343.0
 20
823.49999999999989
 30
0.0
 11
346.54057883888709
 21
807.82029371350063
 31
0.0
  0
LINE
  5
21B
100
AcDbEntity
100
AcDbLine
  8
Tueren
 62
256
370
-1
 48
1.0
  6
ByLayer
 10
346.54057883888709
 20
807.82029371350063
 30
0.0
 11
349.90728476821187
 21
792.91059602649
 31
0.0
  0
LINE
  5
21C
100
AcDbEntity
100
AcDbLine
  8
Tueren
 62
256
370
-1
 48
1.0
  6
ByLayer
 10
310.0322580645161
 20
775.14516129032245
 30
0.0
 11
320.11792193512929
 21
768.42138537658047
 31
0.0
  0
LINE
  5
21D
100
AcDbEntity
100
AcDbLine
  8
Tueren
 62
256
370
-1
 48
1.0
  6
ByLayer
 10
320.11792193512929
 20
768.42138537658047
 30
0.0
 11
329.0
 21
762.49999999999989
 31
0.0
  0
MTEXT
  5
21E
100
AcDbEntity
100
AcDbMText
  8
Hintergrundbild
 62
256
370
-1
 48
1.0
  6
ByLayer
 10
553.5
 20
612.49999999999989
 30
0.0
 40
15.0
 41
0.0
 71
1
 72
1
  1
x = 0,208921
  7
textstyle0
 50
0.0
 73
1
 44
1.0
  0
LINE
  5
21F
100
AcDbEntity
100
AcDbLine
  8
Raum_001
 62
256
370
-1
 48
1.0
  6
ByLayer
 10
569.50257792141997
 20
721.11111468577985
 30
0.0
 11
549.36437208571078
 21
721.11111468577985
 31
0.0
  0
LINE
  5
220
100
AcDbEntity
100
AcDbLine
  8
Raum_001
 62
256
370
-1
 48
1.0
  6
ByLayer
 10
546.38138946929348
 20
720.05924303814197
 30
0.0
 11
549.48728191161672
 21
720.05924303814197
 31
0.0
  0
LINE
  5
221
100
AcDbEntity
100
AcDbLine
  8
Raum_001
 62
256
370
-1
 48
1.0
  6
ByLayer
 10
549.36437208571067
 20
721.11111468577985
 30
0.0
 11
549.48728191161672
 21
720.05924303814197
 31
0.0
  0
LINE
  5
222
100
AcDbEntity
100
AcDbLine
  8
Raum_001
 62
256
370
-1
 48
1.0
  6
ByLayer
 10
400.0
 20
703.49999999999989
 30
0.0
 11
405.48584809268186
 21
703.50805043538605
 31
0.0
  0
LINE
  5
223
100
AcDbEntity
100
AcDbLine
  8
Raum_001
 62
256
370
-1
 48
1.0
  6
ByLayer
 10
405.48584809268186
 20
703.50805043538605
 30
0.0
 11
405.48584809268186
 21
701.32597759010775
 31
0.0
  0
LINE
  5
224
100
AcDbEntity
100
AcDbLine
  8
Raum_001
 62
256
370
-1
 48
1.0
  6
ByLayer
 10
389.30538743695661
 20
707.08075637584682
 30
0.0
 11
393.0
 21
705.49999999999989
 31
0.0
  0
LINE
  5
225
100
AcDbEntity
100
AcDbLine
  8
Raum_001
 62
256
370
-1
 48
1.0
  6
ByLayer
 10
406.0
 20
876.49999999999989
 30
0.0
 11
418.0
 21
893.49999999999989
 31
0.0
  0
LINE
  5
226
100
AcDbEntity
100
AcDbLine
  8
Raum_T_001
 62
256
370
-1
 48
1.0
  6
ByLayer
 10
648.5342753176659
 20
774.55940426081679
 30
0.0
 11
649.60111291915564
 21
763.63186447017074
 31
0.0
  0
LINE
  5
227
100
AcDbEntity
100
AcDbLine
  8
Raum_001
 62
256
370
-1
 48
1.0
  6
ByLayer
 10
293.5
 20
774.49999999999989
 30
0.0
 11
293.5
 21
769.49999999999989
 31
0.0
  0
LINE
  5
228
100
AcDbEntity
100
AcDbLine
  8
Raum_001
 62
256
370
-1
 48
1.0
  6
ByLayer
 10
293.5
 20
769.49999999999989
 30
0.0
 11
299.5
 21
769.49999999999989
 31
0.0
  0
LINE
  5
229
100
AcDbEntity
100
AcDbLine
  8
Raum_001
 62
256
370
-1
 48
1.0
  6
ByLayer
 10
299.5
 20
769.49999999999989
 30
0.0
 11
299.5
 21
774.49999999999989
 31
0.0
  0
LINE
  5
22A
100
AcDbEntity
100
AcDbLine
  8
Raum_001
 62
256
370
-1
 48
1.0
  6
ByLayer
 10
299.5
 20
774.49999999999989
 30
0.0
 11
293.5
 21
774.49999999999989
 31
0.0
  0
LINE
  5
22B
100
AcDbEntity
100
AcDbLine
  8
Raum_001
 62
256
370
-1
 48
1.0
  6
ByLayer
 10
339.5
 20
769.49999999999989
 30
0.0
 11
339.5
 21
764.49999999999989
 31
0.0
  0
LINE
  5
22C
100
AcDbEntity
100
AcDbLine
  8
Raum_001
 62
256
370
-1
 48
1.0
  6
ByLayer
 10
339.5
 20
764.49999999999989
 30
0.0
 11
345.5
 21
764.49999999999989
 31
0.0
  0
LINE
  5
22D
100
AcDbEntity
100
AcDbLine
  8
Raum_001
 62
256
370
-1
 48
1.0
  6
ByLayer
 10
345.5
 20
764.49999999999989
 30
0.0
 11
345.5
 21
769.49999999999989
 31
0.0
  0
LINE
  5
22E
100
AcDbEntity
100
AcDbLine
  8
Raum_001
 62
256
370
-1
 48
1.0
  6
ByLayer
 10
345.5
 20
769.49999999999989
 30
0.0
 11
339.5
 21
769.49999999999989
 31
0.0
  0
LINE
  5
22F
100
AcDbEntity
100
AcDbLine
  8
Raum_001
 62
256
370
-1
 48
1.0
  6
ByLayer
 10
369.5
 20
824.49999999999989
 30
0.0
 11
366.5
 21
820.49999999999989
 31
0.0
  0
LINE
  5
230
100
AcDbEntity
100
AcDbLine
  8
Raum_001
 62
256
370
-1
 48
1.0
  6
ByLayer
 10
366.5
 20
820.49999999999989
 30
0.0
 11
370.5
 21
817.49999999999989
 31
0.0
  0
LINE
  5
231
100
AcDbEntity
100
AcDbLine
  8
Raum_001
 62
256
370
-1
 48
1.0
  6
ByLayer
 10
370.5
 20
817.49999999999989
 30
0.0
 11
373.5
 21
821.49999999999989
 31
0.0
  0
LINE
  5
232
100
AcDbEntity
100
AcDbLine
  8
Raum_001
 62
256
370
-1
 48
1.0
  6
ByLayer
 10
373.5
 20
821.49999999999989
 30
0.0
 11
369.5
 21
824.49999999999989
 31
0.0
  0
LINE
  5
233
100
AcDbEntity
100
AcDbLine
  8
Raum_001
 62
256
370
-1
 48
1.0
  6
ByLayer
 10
387.5
 20
827.49999999999989
 30
0.0
 11
383.5
 21
823.49999999999989
 31
0.0
  0
LINE
  5
234
100
AcDbEntity
100
AcDbLine
  8
Raum_001
 62
256
370
-1
 48
1.0
  6
ByLayer
 10
383.5
 20
823.49999999999989
 30
0.0
 11
388.5
 21
819.49999999999989
 31
0.0
  0
LINE
  5
235
100
AcDbEntity
100
AcDbLine
  8
Raum_001
 62
256
370
-1
 48
1.0
  6
ByLayer
 10
388.5
 20
819.49999999999989
 30
0.0
 11
392.5
 21
823.49999999999989
 31
0.0
  0
LINE
  5
236
100
AcDbEntity
100
AcDbLine
  8
Raum_001
 62
256
370
-1
 48
1.0
  6
ByLayer
 10
392.5
 20
823.49999999999989
 30
0.0
 11
387.5
 21
827.49999999999989
 31
0.0
  0
LINE
  5
237
100
AcDbEntity
100
AcDbLine
  8
Raum_001
 62
256
370
-1
 48
1.0
  6
ByLayer
 10
351.5
 20
836.49999999999989
 30
0.0
 11
347.5
 21
832.49999999999989
 31
0.0
  0
LINE
  5
238
100
AcDbEntity
100
AcDbLine
  8
Raum_001
 62
256
370
-1
 48
1.0
  6
ByLayer
 10
347.5
 20
832.49999999999989
 30
0.0
 11
351.5
 21
829.49999999999989
 31
0.0
  0
LINE
  5
239
100
AcDbEntity
100
AcDbLine
  8
Raum_001
 62
256
370
-1
 48
1.0
  6
ByLayer
 10
351.5
 20
829.49999999999989
 30
0.0
 11
355.5
 21
833.49999999999989
 31
0.0
  0
LINE
  5
23A
100
AcDbEntity
100
AcDbLine
  8
Raum_001
 62
256
370
-1
 48
1.0
  6
ByLayer
 10
355.5
 20
833.49999999999989
 30
0.0
 11
351.5
 21
836.49999999999989
 31
0.0
  0
LINE
  5
23B
100
AcDbEntity
100
AcDbLine
  8
Raum_328
 62
256
370
-1
 48
1.0
  6
ByLayer
 10
439.99367277249507
 20
763.66747729832309
 30
0.0
 11
439.99367277249507
 21
762.12948411379762
 31
0.0
  0
LINE
  5
23C
100
AcDbEntity
100
AcDbLine
  8
Treppen
 62
256
370
-1
 48
1.0
  6
ByLayer
 10
663.1336991084238
 20
717.94975704080014
 30
0.0
 11
659.28184935006061
 21
775.25686664246632
 31
0.0
  0
LINE
  5
23D
100
AcDbEntity
100
AcDbLine
  8
Rolltreppen
 62
256
370
-1
 48
1.0
  6
ByLayer
 10
677.16754536633687
 20
776.43686511481098
 30
0.0
 11
682.34568253189934
 21
719.8657165810414
 31
0.0
  0
LINE
  5
23E
100
AcDbEntity
100
AcDbLine
  8
Rolltreppen
 62
256
370
-1
 48
1.0
  6
ByLayer
 10
412.85821088421096
 20
743.70047574147407
 30
0.0
 11
353.65798905526276
 21
743.57205877438309
 31
0.0
  0
LINE
  5
23F
100
AcDbEntity
100
AcDbLine
  8
Treppen
 62
256
370
-1
 48
1.0
  6
ByLayer
 10
353.58640480371457
 20
726.43727459381341
 30
0.0
 11
400.12982467611357
 21
726.73000050496046
 31
0.0
  0
LINE
  5
240
100
AcDbEntity
100
AcDbLine
  8
Treppen
 62
256
370
-1
 48
1.0
  6
ByLayer
 10
428.90419485071709
 20
805.37225980095616
 30
0.0
 11
444.86393007649292
 21
793.80723427503165
 31
0.0
  0
LINE
  5
241
100
AcDbEntity
100
AcDbLine
  8
Treppen
 62
256
370
-1
 48
1.0
  6
ByLayer
 10
463.88956368901756
 20
798.93089621951697
 30
0.0
 11
494.93889684186365
 21
843.69970216083004
 31
0.0
  0
LINE
  5
242
100
AcDbEntity
100
AcDbLine
  8
Rolltreppen
 62
256
370
-1
 48
1.0
  6
ByLayer
 10
322.95321217637979
 20
936.75146008017248
 30
0.0
 11
344.91920032376436
 21
884.73600014716567
 31
0.0
  0
LINE
  5
243
100
AcDbEntity
100
AcDbLine
  8
Rolltreppen
 62
256
370
-1
 48
1.0
  6
ByLayer
 10
369.53550451199351
 20
895.56159295999703
 30
0.0
 11
348.5207868240085
 21
947.55490310182199
 31
0.0
  0
LINE
  5
244
100
AcDbEntity
100
AcDbLine
  8
Treppen
 62
256
370
-1
 48
1.0
  6
ByLayer
 10
357.80919806176007
 20
890.41822774075422
 30
0.0
 11
335.78991638074035
 21
942.21596655229598
 31
0.0
  0
LINE
  5
245
100
AcDbEntity
100
AcDbLine
  8
Rolltreppen
 62
256
370
-1
 48
1.0
  6
ByLayer
 10
323.67360162675106
 20
766.05093224883262
 30
0.0
 11
347.93097570920361
 21
801.66282185924172
 31
0.0
  0
LINE
  5
246
100
AcDbEntity
100
AcDbLine
  8
Rolltreppen
 62
256
370
-1
 48
1.0
  6
ByLayer
 10
345.07255618034287
 20
814.32153691562451
 30
0.0
 11
315.62219266927252
 21
771.41853822048495
 31
0.0
  0
LINE
  5
247
100
AcDbEntity
100
AcDbLine
  8
Rolltreppen
 62
256
370
-1
 48
1.0
  6
ByLayer
 10
236.77855744520707
 20
745.07816591100618
 30
0.0
 11
177.7825575556023
 21
744.89551575654912
 31
0.0
  0
LINE
  5
248
100
AcDbEntity
100
AcDbLine
  8
Rolltreppen
 62
256
370
-1
 48
1.0
  6
ByLayer
 10
236.74026728671458
 20
730.03224868527445
 30
0.0
 11
188.80659490331323
 21
729.67184513351958
 31
0.0
  0
LINE
  5
249
100
AcDbEntity
100
AcDbLine
  8
Treppen
 62
256
370
-1
 48
1.0
  6
ByLayer
 10
235.31862174285754
 20
694.95425217142804
 30
0.0
 11
204.65342001349279
 21
650.49999999999977
 31
0.0
  0
LINE
  5
24A
100
AcDbEntity
100
AcDbLine
  8
Treppen
 62
256
370
-1
 48
1.0
  6
ByLayer
 10
242.4302207825599
 20
638.50506359843303
 30
0.0
 11
266.58972209689045
 21
675.14254910807722
 31
0.0
  0
LINE
  5
24B
100
AcDbEntity
100
AcDbLine
  8
Rolltreppen
 62
256
370
-1
 48
1.0
  6
ByLayer
 10
151.54426566074352
 20
699.60819457952664
 30
0.0
 11
119.62393319264379
 21
652.40986676898626
 31
0.0
  0
LINE
  5
24C
100
AcDbEntity
100
AcDbLine
  8
Treppen
 62
256
370
-1
 48
1.0
  6
ByLayer
 10
166.91129126598457
 20
689.40280071274742
 30
0.0
 11
135.23339486790019
 21
642.03680324132597
 31
0.0
  0
LINE
  5
24D
100
AcDbEntity
100
AcDbLine
  8
Rolltreppen
 62
256
370
-1
 48
1.0
  6
ByLayer
 10
357.34873540192336
 20
662.09625928968512
 30
0.0
 11
325.4960861585829
 21
613.77557370284876
 31
0.0
  0
LINE
  5
24E
100
AcDbEntity
100
AcDbLine
  8
Treppen
 62
256
370
-1
 48
1.0
  6
ByLayer
 10
368.27757176419982
 20
654.84629647093857
 30
0.0
 11
336.03787010861049
 21
606.31993607865411
 31
0.0
  0
LINE
  5
24F
100
AcDbEntity
100
AcDbLine
  8
Rolltreppen
 62
256
370
-1
 48
1.0
  6
ByLayer
 10
379.73514444572299
 20
646.8853988879938
 30
0.0
 11
347.28893475977259
 21
598.49774566815904
 31
0.0
  0
LINE
  5
250
100
AcDbEntity
100
AcDbLine
  8
Tueren
 62
256
370
-1
 48
1.0
  6
ByLayer
 10
407.7901737403331
 20
737.11230101331876
 30
0.0
 11
400.12982467611357
 21
726.73000050496046
 31
0.0
  0
LINE
  5
251
100
AcDbEntity
100
AcDbLine
  8
Tueren
 62
256
370
-1
 48
1.0
  6
ByLayer
 10
417.83061817641385
 20
750.16433682429192
 30
0.0
 11
407.79017374033299
 21
737.11230101331876
 31
0.0
  0
LINE
  5
252
100
AcDbEntity
100
AcDbLine
  8
Raum_332
 62
256
370
-1
 48
1.0
  6
ByLayer
 10
426.56704641625402
 20
741.48818975418737
 30
0.0
 11
411.18718275850097
 21
741.52822937561291
 31
0.0
  0
LINE
  5
253
100
AcDbEntity
100
AcDbLine
  8
Raum_RT_001
 62
256
370
-1
 48
1.0
  6
ByLayer
 10
670.87050115670593
 20
776.00891065396229
 30
0.0
 11
675.63153370055124
 21
719.30934126816851
 31
0.0
  0
LINE
  5
254
100
AcDbEntity
100
AcDbLine
  8
Raum_RT_001
 62
256
370
-1
 48
1.0
  6
ByLayer
 10
690.0
 20
720.49999999999989
 30
0.0
 11
685.73069364204116
 21
777.01882664811126
 31
0.0
  0
LINE
  5
255
100
AcDbEntity
100
AcDbLine
  8
Raum_RT_010
 62
256
370
-1
 48
1.0
  6
ByLayer
 10
363.0
 20
658.49999999999989
 30
0.0
 11
330.0
 21
610.49999999999989
 31
0.0
  0
LINE
  5
256
100
AcDbEntity
100
AcDbLine
  8
Raum_RT_011
 62
256
370
-1
 48
1.0
  6
ByLayer
 10
376.0
 20
649.49999999999989
 30
0.0
 11
343.0
 21
601.49999999999989
 31
0.0
  0
LINE
  5
257
100
AcDbEntity
100
AcDbLine
  8
Tueren
 62
256
370
-1
 48
1.0
  6
ByLayer
 10
400.12982467611357
 20
726.73000050496046
 30
0.0
 11
392.95171718175925
 21
717.00129643900812
 31
0.0
  0
LINE
  5
258
100
AcDbEntity
100
AcDbLine
  8
Raum_RT_002
 62
256
370
-1
 48
1.0
  6
ByLayer
 10
407.7901737403331
 20
737.11230101331876
 30
0.0
 11
353.65798905526276
 21
736.96560132582545
 31
0.0
  0
LINE
  5
259
100
AcDbEntity
100
AcDbLine
  8
Tueren
 62
256
370
-1
 48
1.0
  6
ByLayer
 10
522.64947867737465
 20
759.11055252708286
 30
0.0
 11
522.58568525865053
 21
751.90189621125296
 31
0.0
  0
LINE
  5
25A
100
AcDbEntity
100
AcDbLine
  8
Raum_T_008
 62
256
370
-1
 48
1.0
  6
ByLayer
 10
230.0
 20
698.49999999999989
 30
0.0
 11
198.0
 21
650.49999999999989
 31
0.0
  0
LINE
  5
25B
100
AcDbEntity
100
AcDbLine
  8
Raum_T_008
 62
256
370
-1
 48
1.0
  6
ByLayer
 10
242.0
 20
690.49999999999989
 30
0.0
 11
214.20338983050851
 21
650.49999999999989
 31
0.0
  0
LINE
  5
25C
100
AcDbEntity
100
AcDbLine
  8
Raum_T_009
 62
256
370
-1
 48
1.0
  6
ByLayer
 10
259.0
 20
680.49999999999989
 30
0.0
 11
230.00725041581063
 21
638.51050060220837
 31
0.0
  0
LINE
  5
25D
100
AcDbEntity
100
AcDbLine
  8
Raum_T_009
 62
256
370
-1
 48
1.0
  6
ByLayer
 10
276.0
 20
668.49999999999989
 30
0.0
 11
254.0
 21
638.49999999999989
 31
0.0
  0
LINE
  5
25E
100
AcDbEntity
100
AcDbLine
  8
Raum_357
 62
256
370
-1
 48
1.0
  6
ByLayer
 10
242.0
 20
690.49999999999989
 30
0.0
 11
253.0
 21
683.49999999999989
 31
0.0
  0
LINE
  5
25F
100
AcDbEntity
100
AcDbLine
  8
Raum_RT_009
 62
256
370
-1
 48
1.0
  6
ByLayer
 10
125.0
 20
648.49999999999989
 30
0.0
 11
158.0
 21
695.49999999999989
 31
0.0
  0
LINE
  5
260
100
AcDbEntity
100
AcDbLine
  8
Raum_RT_009
 62
256
370
-1
 48
1.0
  6
ByLayer
 10
147.0
 20
702.49999999999989
 30
0.0
 11
138.80358799876268
 21
691.0746984225176
 31
0.0
  0
LINE
  5
261
100
AcDbEntity
100
AcDbLine
  8
Raum_RT_007
 62
256
370
-1
 48
1.0
  6
ByLayer
 10
237.0
 20
751.49999999999989
 30
0.0
 11
173.0
 21
751.49999999999989
 31
0.0
  0
LINE
  5
262
100
AcDbEntity
100
AcDbLine
  8
Raum_RT_008
 62
256
370
-1
 48
1.0
  6
ByLayer
 10
236.5
 20
736.99999999999989
 30
0.0
 11
183.5
 21
736.99999999999989
 31
0.0
  0
LINE
  5
263
100
AcDbEntity
100
AcDbLine
  8
Raum_RT_008
 62
256
370
-1
 48
1.0
  6
ByLayer
 10
237.0
 20
722.49999999999989
 30
0.0
 11
194.0
 21
722.49999999999989
 31
0.0
  0
LINE
  5
264
100
AcDbEntity
100
AcDbLine
  8
Raum_RT_003
 62
256
370
-1
 48
1.0
  6
ByLayer
 10
329.0
 20
939.49999999999989
 30
0.0
 11
351.0
 21
887.49999999999989
 31
0.0
  0
LINE
  5
265
100
AcDbEntity
100
AcDbLine
  8
Raum_RT_004
 62
256
370
-1
 48
1.0
  6
ByLayer
 10
344.0
 20
945.49999999999989
 30
0.0
 11
365.0
 21
893.49999999999989
 31
0.0
  0
LINE
  5
266
100
AcDbEntity
100
AcDbLine
  8
Raum_RT_006
 62
256
370
-1
 48
1.0
  6
ByLayer
 10
346.54057883888709
 20
807.82029371350063
 30
0.0
 11
320.11792193512929
 21
768.42138537658047
 31
0.0
  0
LINE
  5
267
100
AcDbEntity
100
AcDbLine
  8
Raum_RT_006
 62
256
370
-1
 48
1.0
  6
ByLayer
 10
349.90728476821187
 20
792.91059602649
 30
0.0
 11
329.0
 21
762.49999999999989
 31
0.0
  0
LINE
  5
268
100
AcDbEntity
100
AcDbLine
  8
Raum_T_002
 62
256
370
-1
 48
1.0
  6
ByLayer
 10
353.65798905526276
 20
736.96560132582545
 30
0.0
 11
407.79017374033299
 21
737.11230101331876
 31
0.0
  0
LINE
  5
269
100
AcDbEntity
100
AcDbLine
  8
Raum_332
 62
256
370
-1
 48
1.0
  6
ByLayer
 10
411.18718275850097
 20
741.52822937561291
 30
0.0
 11
392.95171718175925
 21
717.00129643900812
 31
0.0
  0
LINE
  5
26A
100
AcDbEntity
100
AcDbLine
  8
Raum_332
 62
256
370
-1
 48
1.0
  6
ByLayer
 10
405.48584809268175
 20
703.50805043538594
 30
0.0
 11
405.48584809268186
 21
701.32597759010775
 31
0.0
  0
LINE
  5
26B
100
AcDbEntity
100
AcDbLine
  8
Raum_332
 62
256
370
-1
 48
1.0
  6
ByLayer
 10
405.48584809268186
 20
701.32597759010775
 30
0.0
 11
411.92898338382201
 21
701.32597759010775
 31
0.0
  0
LINE
  5
26C
100
AcDbEntity
100
AcDbLine
  8
Raum_332
 62
256
370
-1
 48
1.0
  6
ByLayer
 10
419.96695414306816
 20
701.32597759010775
 30
0.0
 11
426.5670464162539
 21
701.58310977915198
 31
0.0
  0
LINE
  5
26D
100
AcDbEntity
100
AcDbLine
  8
Raum_001
 62
256
370
-1
 48
1.0
  6
ByLayer
 10
346.85924152951418
 20
820.6825342448509
 30
0.0
 11
352.02490122613005
 21
796.677409772342
 31
0.0
  0
LINE
  5
26E
100
AcDbEntity
100
AcDbLine
  8
Raum_003
 62
256
370
-1
 48
1.0
  6
ByLayer
 10
152.0
 20
711.49999999999989
 30
0.0
 11
153.0
 21
713.49999999999989
 31
0.0
  0
LINE
  5
26F
100
AcDbEntity
100
AcDbLine
  8
Raum_003
 62
256
370
-1
 48
1.0
  6
ByLayer
 10
153.0
 20
713.49999999999989
 30
0.0
 11
170.0
 21
714.49999999999989
 31
0.0
  0
LINE
  5
270
100
AcDbEntity
100
AcDbLine
  8
Raum_003
 62
256
370
-1
 48
1.0
  6
ByLayer
 10
179.0
 20
715.49999999999989
 30
0.0
 11
196.0
 21
717.49999999999989
 31
0.0
  0
LINE
  5
271
100
AcDbEntity
100
AcDbLine
  8
Raum_003
 62
256
370
-1
 48
1.0
  6
ByLayer
 10
205.0
 20
718.49999999999989
 30
0.0
 11
237.0
 21
722.49999999999989
 31
0.0
  0
LINE
  5
272
100
AcDbEntity
100
AcDbLine
  8
Raum_003
 62
256
370
-1
 48
1.0
  6
ByLayer
 10
237.0
 20
751.49999999999989
 30
0.0
 11
244.0
 21
753.49999999999989
 31
0.0
  0
LINE
  5
273
100
AcDbEntity
100
AcDbLine
  8
Raum_003
 62
256
370
-1
 48
1.0
  6
ByLayer
 10
251.0
 20
756.49999999999989
 30
0.0
 11
264.0
 21
762.49999999999989
 31
0.0
  0
LINE
  5
274
100
AcDbEntity
100
AcDbLine
  8
Raum_003
 62
256
370
-1
 48
1.0
  6
ByLayer
 10
273.0
 20
765.49999999999989
 30
0.0
 11
279.0
 21
767.49999999999989
 31
0.0
  0
LINE
  5
275
100
AcDbEntity
100
AcDbLine
  8
Raum_003
 62
256
370
-1
 48
1.0
  6
ByLayer
 10
279.0
 20
767.49999999999989
 30
0.0
 11
282.0
 21
772.49999999999989
 31
0.0
  0
LINE
  5
276
100
AcDbEntity
100
AcDbLine
  8
Raum_003
 62
256
370
-1
 48
1.0
  6
ByLayer
 10
287.0
 20
779.49999999999989
 30
0.0
 11
296.0
 21
792.49999999999989
 31
0.0
  0
LINE
  5
277
100
AcDbEntity
100
AcDbLine
  8
Raum_003
 62
256
370
-1
 48
1.0
  6
ByLayer
 10
301.0
 20
799.49999999999989
 30
0.0
 11
307.0
 21
809.49999999999989
 31
0.0
  0
LINE
  5
278
100
AcDbEntity
100
AcDbLine
  8
Raum_003
 62
256
370
-1
 48
1.0
  6
ByLayer
 10
313.0
 20
817.49999999999989
 30
0.0
 11
322.0
 21
830.49999999999989
 31
0.0
  0
LINE
  5
279
100
AcDbEntity
100
AcDbLine
  8
Raum_003
 62
256
370
-1
 48
1.0
  6
ByLayer
 10
327.0
 20
838.49999999999989
 30
0.0
 11
329.0
 21
841.49999999999989
 31
0.0
  0
LINE
  5
27A
100
AcDbEntity
100
AcDbLine
  8
Raum_003
 62
256
370
-1
 48
1.0
  6
ByLayer
 10
329.0
 20
841.49999999999989
 30
0.0
 11
333.0
 21
842.49999999999989
 31
0.0
  0
LINE
  5
27B
100
AcDbEntity
100
AcDbLine
  8
Raum_003
 62
256
370
-1
 48
1.0
  6
ByLayer
 10
342.0
 20
845.49999999999989
 30
0.0
 11
348.0
 21
847.49999999999989
 31
0.0
  0
LINE
  5
27C
100
AcDbEntity
100
AcDbLine
  8
Raum_003
 62
256
370
-1
 48
1.0
  6
ByLayer
 10
348.0
 20
847.49999999999989
 30
0.0
 11
344.0
 21
865.49999999999989
 31
0.0
  0
LINE
  5
27D
100
AcDbEntity
100
AcDbLine
  8
Raum_RT_009
 62
256
370
-1
 48
1.0
  6
ByLayer
 10
138.80358799876268
 20
691.0746984225176
 30
0.0
 11
114.0
 21
656.49999999999989
 31
0.0
  0
LINE
  5
27E
100
AcDbEntity
100
AcDbLine
  8
Raum_T_001
 62
256
370
-1
 48
1.0
  6
ByLayer
 10
649.60111291915564
 20
763.63186447017074
 30
0.0
 11
653.57518176649694
 21
722.92576693531998
 31
0.0
  0
LINE
  5
27F
100
AcDbEntity
100
AcDbLine
  8
Raum_T_001
 62
256
370
-1
 48
1.0
  6
ByLayer
 10
653.57518176649694
 20
722.92576693531998
 30
0.0
 11
653.94453957203552
 21
716.95010895965868
 31
0.0
  0
LINE
  5
280
100
AcDbEntity
100
AcDbLine
  8
Raum_330
 62
256
370
-1
 48
1.0
  6
ByLayer
 10
353.52209998231763
 20
716.97957746815916
 30
0.0
 11
368.57505023814474
 21
717.02295699289164
 31
0.0
  0
LINE
  5
281
100
AcDbEntity
100
AcDbLine
  8
Raum_330
 62
256
370
-1
 48
1.0
  6
ByLayer
 10
368.57505023814474
 20
717.02295699289164
 30
0.0
 11
389.30538743695661
 21
717.03252969681557
 31
0.0
  0
LINE
  5
282
100
AcDbEntity
100
AcDbLine
  8
Raum_330
 62
256
370
-1
 48
1.0
  6
ByLayer
 10
353.52209998231763
 20
716.97957746815916
 30
0.0
 11
368.57505023814474
 21
711.97264467722903
 31
0.0
  0
LINE
  5
283
100
AcDbEntity
100
AcDbLine
  8
Raum_330
 62
256
370
-1
 48
1.0
  6
ByLayer
 10
368.57505023814474
 20
711.97264467722903
 30
0.0
 11
374.95439211056078
 21
711.22838812544717
 31
0.0
  0
LINE
  5
284
100
AcDbEntity
100
AcDbLine
  8
Raum_330
 62
256
370
-1
 48
1.0
  6
ByLayer
 10
382.03716280146728
 20
709.50188903540254
 30
0.0
 11
389.30538743695661
 21
708.42763553132067
 31
0.0
  0
LINE
  5
285
100
AcDbEntity
100
AcDbLine
  8
Raum_319
 62
256
370
-1
 48
1.0
  6
ByLayer
 10
380.0
 20
805.49999999999989
 30
0.0
 11
382.0
 21
810.49999999999989
 31
0.0
  0
LINE
  5
286
100
AcDbEntity
100
AcDbLine
  8
Raum_319
 62
256
370
-1
 48
1.0
  6
ByLayer
 10
391.0
 20
813.49999999999989
 30
0.0
 11
392.0
 21
813.49999999999989
 31
0.0
  0
LINE
  5
287
100
AcDbEntity
100
AcDbLine
  8
Raum_319
 62
256
370
-1
 48
1.0
  6
ByLayer
 10
398.0
 20
813.49999999999989
 30
0.0
 11
401.0
 21
813.49999999999989
 31
0.0
  0
LINE
  5
288
100
AcDbEntity
100
AcDbLine
  8
Raum_319
 62
256
370
-1
 48
1.0
  6
ByLayer
 10
383.93910146921348
 20
762.12948411379762
 30
0.0
 11
411.0
 21
762.12948411379762
 31
0.0
  0
LINE
  5
289
100
AcDbEntity
100
AcDbLine
  8
Raum_320
 62
256
370
-1
 48
1.0
  6
ByLayer
 10
427.0
 20
785.49999999999989
 30
0.0
 11
410.0
 21
773.49999999999989
 31
0.0
  0
LINE
  5
28A
100
AcDbEntity
100
AcDbLine
  8
Raum_320
 62
256
370
-1
 48
1.0
  6
ByLayer
 10
410.0
 20
773.49999999999989
 30
0.0
 11
410.0
 21
771.49999999999989
 31
0.0
  0
LINE
  5
28B
100
AcDbEntity
100
AcDbLine
  8
Raum_320
 62
256
370
-1
 48
1.0
  6
ByLayer
 10
411.0
 20
765.49999999999989
 30
0.0
 11
411.0
 21
762.12948411379762
 31
0.0
  0
LINE
  5
28C
100
AcDbEntity
100
AcDbLine
  8
Raum_320
 62
256
370
-1
 48
1.0
  6
ByLayer
 10
411.0
 20
762.12948411379762
 30
0.0
 11
437.0
 21
762.12948411379762
 31
0.0
  0
LINE
  5
28D
100
AcDbEntity
100
AcDbLine
  8
Raum_321
 62
256
370
-1
 48
1.0
  6
ByLayer
 10
388.0
 20
813.49999999999989
 30
0.0
 11
391.0
 21
813.49999999999989
 31
0.0
  0
LINE
  5
28E
100
AcDbEntity
100
AcDbLine
  8
Raum_321
 62
256
370
-1
 48
1.0
  6
ByLayer
 10
391.0
 20
813.49999999999989
 30
0.0
 11
388.0
 21
806.49999999999989
 31
0.0
  0
LINE
  5
28F
100
AcDbEntity
100
AcDbLine
  8
Raum_321
 62
256
370
-1
 48
1.0
  6
ByLayer
 10
388.0
 20
806.49999999999989
 30
0.0
 11
386.0
 21
806.49999999999989
 31
0.0
  0
LINE
  5
290
100
AcDbEntity
100
AcDbLine
  8
Raum_321
 62
256
370
-1
 48
1.0
  6
ByLayer
 10
386.0
 20
806.49999999999989
 30
0.0
 11
382.0
 21
810.49999999999989
 31
0.0
  0
LINE
  5
291
100
AcDbEntity
100
AcDbLine
  8
Raum_321
 62
256
370
-1
 48
1.0
  6
ByLayer
 10
382.0
 20
810.49999999999989
 30
0.0
 11
383.0
 21
811.49999999999989
 31
0.0
  0
LINE
  5
292
100
AcDbEntity
100
AcDbLine
  8
Raum_324
 62
256
370
-1
 48
1.0
  6
ByLayer
 10
373.70307099449076
 20
794.11331385960852
 30
0.0
 11
375.44919383096749
 21
796.33565201512431
 31
0.0
  0
LINE
  5
293
100
AcDbEntity
100
AcDbLine
  8
Raum_324
 62
256
370
-1
 48
1.0
  6
ByLayer
 10
375.44919383096749
 20
796.33565201512431
 30
0.0
 11
378.78270106424111
 21
794.58952917864769
 31
0.0
  0
LINE
  5
294
100
AcDbEntity
100
AcDbLine
  8
Raum_324
 62
256
370
-1
 48
1.0
  6
ByLayer
 10
378.78270106424111
 20
794.58952917864769
 30
0.0
 11
384.02106957367118
 21
790.30359130729573
 31
0.0
  0
LINE
  5
295
100
AcDbEntity
100
AcDbLine
  8
Raum_324
 62
256
370
-1
 48
1.0
  6
ByLayer
 10
384.02106957367118
 20
790.30359130729573
 30
0.0
 11
387.07267850954997
 21
784.56109658226649
 31
0.0
  0
LINE
  5
296
100
AcDbEntity
100
AcDbLine
  8
Raum_324
 62
256
370
-1
 48
1.0
  6
ByLayer
 10
387.07267850954997
 20
784.56109658226649
 30
0.0
 11
370.21082532153741
 21
771.57245542509133
 31
0.0
  0
LINE
  5
297
100
AcDbEntity
100
AcDbLine
  8
Raum_324
 62
256
370
-1
 48
1.0
  6
ByLayer
 10
370.21082532153741
 20
771.57245542509133
 30
0.0
 11
367.08455994006772
 21
771.57022010369928
 31
0.0
  0
LINE
  5
298
100
AcDbEntity
100
AcDbLine
  8
Raum_324
 62
256
370
-1
 48
1.0
  6
ByLayer
 10
360.97102397900255
 20
771.57022010369928
 30
0.0
 11
356.1865175746907
 21
771.57022010369928
 31
0.0
  0
LINE
  5
299
100
AcDbEntity
100
AcDbLine
  8
Raum_324
 62
256
370
-1
 48
1.0
  6
ByLayer
 10
356.18651757469075
 20
771.57022010369928
 30
0.0
 11
356.71805794876303
 21
773.15983982188845
 31
0.0
  0
LINE
  5
29A
100
AcDbEntity
100
AcDbLine
  8
Raum_324
 62
256
370
-1
 48
1.0
  6
ByLayer
 10
356.71805794876303
 20
773.15983982188845
 30
0.0
 11
366.24236432954427
 21
783.79531528042855
 31
0.0
  0
LINE
  5
29B
100
AcDbEntity
100
AcDbLine
  8
Raum_323
 62
256
370
-1
 48
1.0
  6
ByLayer
 10
356.18651757469075
 20
771.57022010369928
 30
0.0
 11
360.97102397900255
 21
771.57022010369928
 31
0.0
  0
LINE
  5
29C
100
AcDbEntity
100
AcDbLine
  8
Raum_323
 62
256
370
-1
 48
1.0
  6
ByLayer
 10
367.08455994006772
 20
771.57022010369928
 30
0.0
 11
370.21082532153741
 21
771.57245542509133
 31
0.0
  0
LINE
  5
29D
100
AcDbEntity
100
AcDbLine
  8
Raum_323
 62
256
370
-1
 48
1.0
  6
ByLayer
 10
370.21082532153741
 20
771.57245542509133
 30
0.0
 11
370.18568009807495
 21
770.45785780548499
 31
0.0
  0
LINE
  5
29E
100
AcDbEntity
100
AcDbLine
  8
Raum_323
 62
256
370
-1
 48
1.0
  6
ByLayer
 10
369.97761586247066
 20
764.41392996237903
 30
0.0
 11
369.99243252517749
 21
762.12948411379762
 31
0.0
  0
LINE
  5
29F
100
AcDbEntity
100
AcDbLine
  8
Raum_323
 62
256
370
-1
 48
1.0
  6
ByLayer
 10
369.99243252517749
 20
762.12948411379762
 30
0.0
 11
351.57474222207384
 21
762.12948411379762
 31
0.0
  0
LINE
  5
2A0
100
AcDbEntity
100
AcDbLine
  8
Raum_323
 62
256
370
-1
 48
1.0
  6
ByLayer
 10
351.57474222207384
 20
762.12948411379762
 30
0.0
 11
352.0787687721388
 21
764.46708873467549
 31
0.0
  0
LINE
  5
2A1
100
AcDbEntity
100
AcDbLine
  8
Raum_325
 62
256
370
-1
 48
1.0
  6
ByLayer
 10
387.07267850954997
 20
784.56109658226649
 30
0.0
 11
388.0
 21
776.49999999999989
 31
0.0
  0
LINE
  5
2A2
100
AcDbEntity
100
AcDbLine
  8
Raum_326
 62
256
370
-1
 48
1.0
  6
ByLayer
 10
369.99243252517749
 20
762.12948411379762
 30
0.0
 11
378.0
 21
769.49999999999989
 31
0.0
  0
LINE
  5
2A3
100
AcDbEntity
100
AcDbLine
  8
Raum_326
 62
256
370
-1
 48
1.0
  6
ByLayer
 10
383.0
 20
772.49999999999989
 30
0.0
 11
388.0
 21
776.49999999999989
 31
0.0
  0
LINE
  5
2A4
100
AcDbEntity
100
AcDbLine
  8
Raum_326
 62
256
370
-1
 48
1.0
  6
ByLayer
 10
388.0
 20
776.49999999999989
 30
0.0
 11
383.93910146921348
 21
762.12948411379762
 31
0.0
  0
LINE
  5
2A5
100
AcDbEntity
100
AcDbLine
  8
Raum_326
 62
256
370
-1
 48
1.0
  6
ByLayer
 10
383.93910146921348
 20
762.12948411379762
 30
0.0
 11
369.99243252517749
 21
762.12948411379762
 31
0.0
  0
LINE
  5
2A6
100
AcDbEntity
100
AcDbLine
  8
Raum_327
 62
256
370
-1
 48
1.0
  6
ByLayer
 10
351.57474222207384
 20
762.12948411379762
 30
0.0
 11
351.00060145355644
 21
758.0237396847109
 31
0.0
  0
LINE
  5
2A7
100
AcDbEntity
100
AcDbLine
  8
Raum_327
 62
256
370
-1
 48
1.0
  6
ByLayer
 10
350.93680803483221
 20
752.40991883698484
 30
0.0
 11
351.00060145355644
 21
750.30473601908773
 31
0.0
  0
LINE
  5
2A8
100
AcDbEntity
100
AcDbLine
  8
Raum_327
 62
256
370
-1
 48
1.0
  6
ByLayer
 10
351.00060145355644
 20
750.30473601908773
 30
0.0
 11
417.83061817641385
 21
750.16433682429192
 31
0.0
  0
LINE
  5
2A9
100
AcDbEntity
100
AcDbLine
  8
Raum_327
 62
256
370
-1
 48
1.0
  6
ByLayer
 10
417.83061817641385
 20
750.16433682429192
 30
0.0
 11
426.56009874109304
 21
750.14599757940812
 31
0.0
  0
LINE
  5
2AA
100
AcDbEntity
100
AcDbLine
  8
Raum_328
 62
256
370
-1
 48
1.0
  6
ByLayer
 10
439.99367277249507
 20
762.12948411379762
 30
0.0
 11
439.99367277249507
 21
754.80458108287326
 31
0.0
  0
LINE
  5
2AB
100
AcDbEntity
100
AcDbLine
  8
Raum_328
 62
256
370
-1
 48
1.0
  6
ByLayer
 10
439.99367277249507
 20
748.45504349568523
 30
0.0
 11
439.99367277249507
 21
741.48818975418737
 31
0.0
  0
LINE
  5
2AC
100
AcDbEntity
100
AcDbLine
  8
Raum_331
 62
256
370
-1
 48
1.0
  6
ByLayer
 10
389.30538743695661
 20
708.42763553132067
 30
0.0
 11
393.0
 21
705.49999999999989
 31
0.0
  0
LINE
  5
2AD
100
AcDbEntity
100
AcDbLine
  8
Raum_331
 62
256
370
-1
 48
1.0
  6
ByLayer
 10
389.30538743695661
 20
717.03252969681557
 30
0.0
 11
389.30538743695661
 21
708.42763553132067
 31
0.0
  0
LINE
  5
2AE
100
AcDbEntity
100
AcDbLine
  8
Raum_331
 62
256
370
-1
 48
1.0
  6
ByLayer
 10
389.30538743695661
 20
717.03252969681557
 30
0.0
 11
392.95171718175925
 21
717.00129643900812
 31
0.0
  0
LINE
  5
2AF
100
AcDbEntity
100
AcDbLine
  8
Raum_331
 62
256
370
-1
 48
1.0
  6
ByLayer
 10
392.95171718175925
 20
717.00129643900812
 30
0.0
 11
405.48584809268186
 21
717.0191585962508
 31
0.0
  0
LINE
  5
2B0
100
AcDbEntity
100
AcDbLine
  8
Raum_331
 62
256
370
-1
 48
1.0
  6
ByLayer
 10
405.48584809268186
 20
717.0191585962508
 30
0.0
 11
405.48584809268175
 21
703.50805043538594
 31
0.0
  0
LINE
  5
2B1
100
AcDbEntity
100
AcDbLine
  8
Raum_331
 62
256
370
-1
 48
1.0
  6
ByLayer
 10
405.48584809268175
 20
703.50805043538594
 30
0.0
 11
400.0
 21
703.49999999999989
 31
0.0
  0
LINE
  5
2B2
100
AcDbEntity
100
AcDbLine
  8
Raum_333
 62
256
370
-1
 48
1.0
  6
ByLayer
 10
451.59333767745369
 20
741.48818975418749
 30
0.0
 11
439.99367277249507
 21
741.48818975418737
 31
0.0
  0
LINE
  5
2B3
100
AcDbEntity
100
AcDbLine
  8
Raum_333
 62
256
370
-1
 48
1.0
  6
ByLayer
 10
439.99367277249507
 20
741.48818975418737
 30
0.0
 11
426.56704641627454
 21
741.48818975418726
 31
0.0
  0
LINE
  5
2B4
100
AcDbEntity
100
AcDbLine
  8
Raum_333
 62
256
370
-1
 48
1.0
  6
ByLayer
 10
426.56704641627454
 20
741.48818975418726
 30
0.0
 11
426.5670464162539
 21
701.58310977915198
 31
0.0
  0
LINE
  5
2B5
100
AcDbEntity
100
AcDbLine
  8
Raum_333
 62
256
370
-1
 48
1.0
  6
ByLayer
 10
426.5670464162539
 20
701.58310977915198
 30
0.0
 11
435.93702375845828
 21
701.58310977915198
 31
0.0
  0
LINE
  5
2B6
100
AcDbEntity
100
AcDbLine
  8
Raum_333
 62
256
370
-1
 48
1.0
  6
ByLayer
 10
443.01911393153978
 20
702.50785917697738
 30
0.0
 11
451.58423267533192
 21
703.04237657725673
 31
0.0
  0
LINE
  5
2B7
100
AcDbEntity
100
AcDbLine
  8
Raum_334
 62
256
370
-1
 48
1.0
  6
ByLayer
 10
451.59858364280785
 20
763.63924488293253
 30
0.0
 11
451.59333767745363
 21
741.48818975418737
 31
0.0
  0
LINE
  5
2B8
100
AcDbEntity
100
AcDbLine
  8
Raum_334
 62
256
370
-1
 48
1.0
  6
ByLayer
 10
451.59333767745363
 20
741.48818975418737
 30
0.0
 11
451.58423267533192
 21
703.04237657725673
 31
0.0
  0
LINE
  5
2B9
100
AcDbEntity
100
AcDbLine
  8
Raum_334
 62
256
370
-1
 48
1.0
  6
ByLayer
 10
451.58423267533192
 20
703.04237657725673
 30
0.0
 11
455.92218514857473
 21
703.04237657725673
 31
0.0
  0
LINE
  5
2BA
100
AcDbEntity
100
AcDbLine
  8
Raum_334
 62
256
370
-1
 48
1.0
  6
ByLayer
 10
463.06289892172651
 20
703.01210617478273
 30
0.0
 11
476.54679443885414
 21
703.01459873392116
 31
0.0
  0
LINE
  5
2BB
100
AcDbEntity
100
AcDbLine
  8
Raum_334
 62
256
370
-1
 48
1.0
  6
ByLayer
 10
476.54679443885414
 20
763.58918731569429
 30
0.0
 11
476.54679443885414
 21
703.01459873392116
 31
0.0
  0
LINE
  5
2BC
100
AcDbEntity
100
AcDbLine
  8
Raum_335
 62
256
370
-1
 48
1.0
  6
ByLayer
 10
494.99389140005769
 20
703.05198065659886
 30
0.0
 11
506.6298109753443
 21
703.05198065659886
 31
0.0
  0
LINE
  5
2BD
100
AcDbEntity
100
AcDbLine
  8
Raum_335
 62
256
370
-1
 48
1.0
  6
ByLayer
 10
506.6298109753443
 20
703.05198065659886
 30
0.0
 11
506.6248372568607
 21
717.02230431517467
 31
0.0
  0
LINE
  5
2BE
100
AcDbEntity
100
AcDbLine
  8
Raum_001
 62
256
370
-1
 48
1.0
  6
ByLayer
 10
476.54679443885414
 20
703.01459873392116
 30
0.0
 11
486.9559206408137
 21
703.05198065659897
 31
0.0
  0
LINE
  5
2BF
100
AcDbEntity
100
AcDbLine
  8
Raum_336
 62
256
370
-1
 48
1.0
  6
ByLayer
 10
499.58065570254894
 20
750.63439753330636
 30
0.0
 11
499.61448396449441
 21
717.01079787261222
 31
0.0
  0
LINE
  5
2C0
100
AcDbEntity
100
AcDbLine
  8
Raum_336
 62
256
370
-1
 48
1.0
  6
ByLayer
 10
499.61448396449441
 20
717.01079787261222
 30
0.0
 11
506.6248372568607
 21
717.02230431517467
 31
0.0
  0
LINE
  5
2C1
100
AcDbEntity
100
AcDbLine
  8
Raum_336
 62
256
370
-1
 48
1.0
  6
ByLayer
 10
522.6008194139697
 20
750.65950662291618
 30
0.0
 11
522.6584593542575
 21
745.92774193733248
 31
0.0
  0
LINE
  5
2C2
100
AcDbEntity
100
AcDbLine
  8
Raum_336
 62
256
370
-1
 48
1.0
  6
ByLayer
 10
522.6584593542575
 20
745.92774193733248
 30
0.0
 11
522.6584593542575
 21
739.92052834080744
 31
0.0
  0
LINE
  5
2C3
100
AcDbEntity
100
AcDbLine
  8
Raum_336
 62
256
370
-1
 48
1.0
  6
ByLayer
 10
522.6584593542575
 20
733.9133147442825
 30
0.0
 11
522.6584593542575
 21
730.19203198537332
 31
0.0
  0
LINE
  5
2C4
100
AcDbEntity
100
AcDbLine
  8
Raum_337
 62
256
370
-1
 48
1.0
  6
ByLayer
 10
499.58065570254894
 20
763.59803677381512
 30
0.0
 11
499.58065570254894
 21
750.63439753330636
 31
0.0
  0
LINE
  5
2C5
100
AcDbEntity
100
AcDbLine
  8
Raum_337
 62
256
370
-1
 48
1.0
  6
ByLayer
 10
499.58065570254894
 20
750.63439753330636
 30
0.0
 11
504.34280889293996
 21
750.63439753330636
 31
0.0
  0
LINE
  5
2C6
100
AcDbEntity
100
AcDbLine
  8
Raum_337
 62
256
370
-1
 48
1.0
  6
ByLayer
 10
512.08406370301418
 20
750.65950662291618
 30
0.0
 11
522.6008194139697
 21
750.65950662291618
 31
0.0
  0
LINE
  5
2C7
100
AcDbEntity
100
AcDbLine
  8
Raum_337
 62
256
370
-1
 48
1.0
  6
ByLayer
 10
522.6008194139697
 20
750.65950662291618
 30
0.0
 11
522.58568525865053
 21
751.90189621125296
 31
0.0
  0
LINE
  5
2C8
100
AcDbEntity
100
AcDbLine
  8
Raum_337
 62
256
370
-1
 48
1.0
  6
ByLayer
 10
522.64947867737465
 20
759.11055252708286
 30
0.0
 11
522.64947867737465
 21
763.57609183777402
 31
0.0
  0
LINE
  5
2C9
100
AcDbEntity
100
AcDbLine
  8
Raum_339
 62
256
370
-1
 48
1.0
  6
ByLayer
 10
522.6584593542575
 20
745.92774193733248
 30
0.0
 11
534.51064673459769
 21
745.92774193733248
 31
0.0
  0
LINE
  5
2CA
100
AcDbEntity
100
AcDbLine
  8
Raum_340
 62
256
370
-1
 48
1.0
  6
ByLayer
 10
534.45877009392325
 20
720.05924303814197
 30
0.0
 11
538.36618316652357
 21
720.05924303814197
 31
0.0
  0
LINE
  5
2CB
100
AcDbEntity
100
AcDbLine
  8
Raum_340
 62
256
370
-1
 48
1.0
  6
ByLayer
 10
546.38138946929348
 20
720.05924303814197
 30
0.0
 11
549.48728191161672
 21
720.05924303814197
 31
0.0
  0
LINE
  5
2CC
100
AcDbEntity
100
AcDbLine
  8
Raum_340
 62
256
370
-1
 48
1.0
  6
ByLayer
 10
549.48728191161672
 20
720.05924303814197
 30
0.0
 11
549.36437208571078
 21
721.11111468577985
 31
0.0
  0
LINE
  5
2CD
100
AcDbEntity
100
AcDbLine
  8
Raum_340
 62
256
370
-1
 48
1.0
  6
ByLayer
 10
534.55924703627034
 20
736.98528642957024
 30
0.0
 11
534.51885128250842
 21
730.18033929411547
 31
0.0
  0
LINE
  5
2CE
100
AcDbEntity
100
AcDbLine
  8
Raum_340
 62
256
370
-1
 48
1.0
  6
ByLayer
 10
534.55924703627034
 20
736.98528642957024
 30
0.0
 11
539.03647262823984
 21
736.98393200813484
 31
0.0
  0
LINE
  5
2CF
100
AcDbEntity
100
AcDbLine
  8
Raum_340
 62
256
370
-1
 48
1.0
  6
ByLayer
 10
546.49617132844492
 20
736.92324279559705
 30
0.0
 11
549.5758844742561
 21
736.92305725841413
 31
0.0
  0
LINE
  5
2D0
100
AcDbEntity
100
AcDbLine
  8
Raum_341
 62
256
370
-1
 48
1.0
  6
ByLayer
 10
534.41497332282052
 20
763.53164970434398
 30
0.0
 11
534.51064673459769
 21
745.92774193733248
 31
0.0
  0
LINE
  5
2D1
100
AcDbEntity
100
AcDbLine
  8
Raum_341
 62
256
370
-1
 48
1.0
  6
ByLayer
 10
569.47348569113569
 20
763.53164970434398
 30
0.0
 11
569.50257792141997
 21
737.04133721253481
 31
0.0
  0
LINE
  5
2D2
100
AcDbEntity
100
AcDbLine
  8
Raum_341
 62
256
370
-1
 48
1.0
  6
ByLayer
 10
534.51064673459769
 20
745.92774193733248
 30
0.0
 11
534.55924703627034
 21
736.98528642957024
 31
0.0
  0
LINE
  5
2D3
100
AcDbEntity
100
AcDbLine
  8
Raum_342
 62
256
370
-1
 48
1.0
  6
ByLayer
 10
549.5758844742561
 20
736.92305725841413
 30
0.0
 11
569.50257792141997
 21
737.04133721253481
 31
0.0
  0
LINE
  5
2D4
100
AcDbEntity
100
AcDbLine
  8
Raum_342
 62
256
370
-1
 48
1.0
  6
ByLayer
 10
549.5758844742561
 20
736.92305725841413
 30
0.0
 11
549.36437208571078
 21
731.13012256424201
 31
0.0
  0
LINE
  5
2D5
100
AcDbEntity
100
AcDbLine
  8
Raum_342
 62
256
370
-1
 48
1.0
  6
ByLayer
 10
549.36437208571078
 20
722.91453610390306
 30
0.0
 11
549.36437208571078
 21
721.11111468577985
 31
0.0
  0
LINE
  5
2D6
100
AcDbEntity
100
AcDbLine
  8
Raum_342
 62
256
370
-1
 48
1.0
  6
ByLayer
 10
549.36437208571078
 20
721.11111468577985
 30
0.0
 11
569.50257792141997
 21
721.11111468577985
 31
0.0
  0
LINE
  5
2D7
100
AcDbEntity
100
AcDbLine
  8
Raum_342
 62
256
370
-1
 48
1.0
  6
ByLayer
 10
569.50257792141997
 20
721.11111468577985
 30
0.0
 11
569.50257792141997
 21
737.04133721253481
 31
0.0
  0
LINE
  5
2D8
100
AcDbEntity
100
AcDbLine
  8
Raum_343
 62
256
370
-1
 48
1.0
  6
ByLayer
 10
569.50257792141997
 20
721.11111468577985
 30
0.0
 11
571.52327743297815
 21
721.13646689464724
 31
0.0
  0
LINE
  5
2D9
100
AcDbEntity
100
AcDbLine
  8
Raum_343
 62
256
370
-1
 48
1.0
  6
ByLayer
 10
579.17668622902568
 20
721.13646689464724
 30
0.0
 11
583.05016787654324
 21
720.99696439834872
 31
0.0
  0
LINE
  5
2DA
100
AcDbEntity
100
AcDbLine
  8
Raum_344
 62
256
370
-1
 48
1.0
  6
ByLayer
 10
582.96683454320987
 20
722.99696439834872
 30
0.0
 11
583.05016787654347
 21
720.99696439834872
 31
0.0
  0
LINE
  5
2DB
100
AcDbEntity
100
AcDbLine
  8
Raum_344
 62
256
370
-1
 48
1.0
  6
ByLayer
 10
582.96683454320998
 20
722.99696439834861
 30
0.0
 11
599.55871983127986
 21
722.94063723785473
 31
0.0
  0
LINE
  5
2DC
100
AcDbEntity
100
AcDbLine
  8
Raum_344
 62
256
370
-1
 48
1.0
  6
ByLayer
 10
583.05016787654347
 20
720.99696439834725
 30
0.0
 11
585.71683454320976
 21
712.08029773168198
 31
0.0
  0
LINE
  5
2DD
100
AcDbEntity
100
AcDbLine
  8
Raum_344
 62
256
370
-1
 48
1.0
  6
ByLayer
 10
585.71683454320976
 20
712.08029773168198
 30
0.0
 11
589.07453773249722
 21
712.08029773168198
 31
0.0
  0
LINE
  5
2DE
100
AcDbEntity
100
AcDbLine
  8
Raum_344
 62
256
370
-1
 48
1.0
  6
ByLayer
 10
599.55871983127986
 20
722.94063723785473
 30
0.0
 11
599.55871983127952
 21
712.06100760822505
 31
0.0
  0
LINE
  5
2DF
100
AcDbEntity
100
AcDbLine
  8
Raum_344
 62
256
370
-1
 48
1.0
  6
ByLayer
 10
597.07029390534967
 20
712.06100760822517
 30
0.0
 11
599.55871983127952
 21
712.06100760822505
 31
0.0
  0
LINE
  5
2E0
100
AcDbEntity
100
AcDbLine
  8
Raum_345
 62
256
370
-1
 48
1.0
  6
ByLayer
 10
599.55871983127986
 20
722.94063723785473
 30
0.0
 11
599.55871983127952
 21
712.06100760822505
 31
0.0
  0
LINE
  5
2E1
100
AcDbEntity
100
AcDbLine
  8
Raum_345
 62
256
370
-1
 48
1.0
  6
ByLayer
 10
599.55871983127952
 20
712.06100760822505
 30
0.0
 11
603.95686797942335
 21
712.06100760822494
 31
0.0
  0
LINE
  5
2E2
100
AcDbEntity
100
AcDbLine
  8
Raum_345
 62
256
370
-1
 48
1.0
  6
ByLayer
 10
612.01242353497889
 20
712.06100760822494
 30
0.0
 11
617.56797909053444
 21
712.06100760822494
 31
0.0
  0
LINE
  5
2E3
100
AcDbEntity
100
AcDbLine
  8
Raum_345
 62
256
370
-1
 48
1.0
  6
ByLayer
 10
617.49853464608998
 20
722.96378538600277
 30
0.0
 11
599.55871983127986
 21
722.94063723785473
 31
0.0
  0
LINE
  5
2E4
100
AcDbEntity
100
AcDbLine
  8
Raum_346
 62
256
370
-1
 48
1.0
  6
ByLayer
 10
617.49853464608998
 20
722.96378538600277
 30
0.0
 11
617.56797909053444
 21
712.06100760822494
 31
0.0
  0
LINE
  5
2E5
100
AcDbEntity
100
AcDbLine
  8
Raum_346
 62
256
370
-1
 48
1.0
  6
ByLayer
 10
617.56797909053444
 20
712.06100760822494
 30
0.0
 11
624.22237905986344
 21
712.07300257108898
 31
0.0
  0
LINE
  5
2E6
100
AcDbEntity
100
AcDbLine
  8
Raum_346
 62
256
370
-1
 48
1.0
  6
ByLayer
 10
632.12464174994284
 20
712.03097754018586
 30
0.0
 11
638.59525100478299
 21
712.03097754018586
 31
0.0
  0
LINE
  5
2E7
100
AcDbEntity
100
AcDbLine
  8
Raum_346
 62
256
370
-1
 48
1.0
  6
ByLayer
 10
638.59525100478299
 20
712.03097754018586
 30
0.0
 11
640.54339142559513
 21
715.71852905100877
 31
0.0
  0
LINE
  5
2E8
100
AcDbEntity
100
AcDbLine
  8
Raum_346
 62
256
370
-1
 48
1.0
  6
ByLayer
 10
640.54339142559513
 20
715.71852905100877
 30
0.0
 11
640.55047152449595
 21
717.08134567288369
 31
0.0
  0
LINE
  5
2E9
100
AcDbEntity
100
AcDbLine
  8
Raum_346
 62
256
370
-1
 48
1.0
  6
ByLayer
 10
640.55047152449595
 20
717.08134567288369
 30
0.0
 11
640.54339142559513
 21
722.95447918545381
 31
0.0
  0
LINE
  5
2EA
100
AcDbEntity
100
AcDbLine
  8
Raum_346
 62
256
370
-1
 48
1.0
  6
ByLayer
 10
640.54339142559513
 20
722.95447918545381
 30
0.0
 11
617.49853464608998
 21
722.96378538600277
 31
0.0
  0
LINE
  5
2EB
100
AcDbEntity
100
AcDbLine
  8
Raum_346
 62
256
370
-1
 48
1.0
  6
ByLayer
 10
640.54339142559513
 20
722.95447918545381
 30
0.0
 11
653.57518176649694
 21
722.92576693531998
 31
0.0
  0
LINE
  5
2EC
100
AcDbEntity
100
AcDbLine
  8
Raum_346
 62
256
370
-1
 48
1.0
  6
ByLayer
 10
653.94453957203552
 20
716.95010895965879
 30
0.0
 11
640.55047152449606
 21
717.08134567288619
 31
0.0
  0
LINE
  5
2ED
100
AcDbEntity
100
AcDbLine
  8
Raum_348
 62
256
370
-1
 48
1.0
  6
ByLayer
 10
651.5
 20
682.09999999999991
 30
0.0
 11
653.04262748786732
 21
682.10973662312153
 31
0.0
  0
LINE
  5
2EE
100
AcDbEntity
100
AcDbLine
  8
Raum_348
 62
256
370
-1
 48
1.0
  6
ByLayer
 10
663.04111373659009
 20
682.0840994788939
 30
0.0
 11
664.55370524601233
 21
682.0840994788939
 31
0.0
  0
LINE
  5
2EF
100
AcDbEntity
100
AcDbLine
  8
Raum_360
 62
256
370
-1
 48
1.0
  6
ByLayer
 10
207.38461538461542
 20
702.96153846153834
 30
0.0
 11
217.0
 21
704.49999999999989
 31
0.0
  0
LINE
  5
2F0
100
AcDbEntity
100
AcDbLine
  8
Raum_360
 62
256
370
-1
 48
1.0
  6
ByLayer
 10
225.0
 20
705.49999999999989
 30
0.0
 11
235.0
 21
705.49999999999989
 31
0.0
  0
LINE
  5
2F1
100
AcDbEntity
100
AcDbLine
  8
Raum_360
 62
256
370
-1
 48
1.0
  6
ByLayer
 10
235.0
 20
705.49999999999989
 30
0.0
 11
230.0
 21
698.49999999999989
 31
0.0
  0
LINE
  5
2F2
100
AcDbEntity
100
AcDbLine
  8
Raum_002
 62
256
370
-1
 48
1.0
  6
ByLayer
 10
276.0
 20
668.49999999999989
 30
0.0
 11
276.0
 21
669.49999999999989
 31
0.0
  0
LINE
  5
2F3
100
AcDbEntity
100
AcDbLine
  8
Raum_002
 62
256
370
-1
 48
1.0
  6
ByLayer
 10
276.0
 20
669.49999999999989
 30
0.0
 11
282.0
 21
679.49999999999989
 31
0.0
  0
LINE
  5
2F4
100
AcDbEntity
100
AcDbLine
  8
Raum_002
 62
256
370
-1
 48
1.0
  6
ByLayer
 10
282.0
 20
679.49999999999989
 30
0.0
 11
281.0
 21
703.49999999999989
 31
0.0
  0
LINE
  5
2F5
100
AcDbEntity
100
AcDbLine
  8
Raum_002
 62
256
370
-1
 48
1.0
  6
ByLayer
 10
281.0
 20
703.49999999999989
 30
0.0
 11
305.0
 21
700.49999999999989
 31
0.0
  0
LINE
  5
2F6
100
AcDbEntity
100
AcDbLine
  8
Raum_002
 62
256
370
-1
 48
1.0
  6
ByLayer
 10
305.0
 20
700.49999999999989
 30
0.0
 11
305.0
 21
698.49999999999989
 31
0.0
  0
LINE
  5
2F7
100
AcDbEntity
100
AcDbLine
  8
Raum_002
 62
256
370
-1
 48
1.0
  6
ByLayer
 10
305.0
 20
690.49999999999989
 30
0.0
 11
312.0
 21
688.49999999999989
 31
0.0
  0
LINE
  5
2F8
100
AcDbEntity
100
AcDbLine
  8
Raum_002
 62
256
370
-1
 48
1.0
  6
ByLayer
 10
318.0
 20
687.49999999999989
 30
0.0
 11
328.0
 21
685.49999999999989
 31
0.0
  0
LINE
  5
2F9
100
AcDbEntity
100
AcDbLine
  8
Raum_002
 62
256
370
-1
 48
1.0
  6
ByLayer
 10
334.0
 20
684.49999999999989
 30
0.0
 11
338.0
 21
683.49999999999989
 31
0.0
  0
LINE
  5
2FA
100
AcDbEntity
100
AcDbLine
  8
Raum_002
 62
256
370
-1
 48
1.0
  6
ByLayer
 10
338.0
 20
683.49999999999989
 30
0.0
 11
340.0
 21
688.49999999999989
 31
0.0
  0
LINE
  5
2FB
100
AcDbEntity
100
AcDbLine
  8
Raum_002
 62
256
370
-1
 48
1.0
  6
ByLayer
 10
340.0
 20
688.49999999999989
 30
0.0
 11
343.0
 21
687.49999999999989
 31
0.0
  0
LINE
  5
2FC
100
AcDbEntity
100
AcDbLine
  8
Raum_002
 62
256
370
-1
 48
1.0
  6
ByLayer
 10
348.0
 20
686.49999999999989
 30
0.0
 11
352.0
 21
685.49999999999989
 31
0.0
  0
LINE
  5
2FD
100
AcDbEntity
100
AcDbLine
  8
Raum_002
 62
256
370
-1
 48
1.0
  6
ByLayer
 10
357.0
 20
684.49999999999989
 30
0.0
 11
361.0
 21
683.49999999999989
 31
0.0
  0
LINE
  5
2FE
100
AcDbEntity
100
AcDbLine
  8
Raum_002
 62
256
370
-1
 48
1.0
  6
ByLayer
 10
361.0
 20
683.49999999999989
 30
0.0
 11
359.0
 21
680.49999999999989
 31
0.0
  0
LINE
  5
2FF
100
AcDbEntity
100
AcDbLine
  8
Raum_002
 62
256
370
-1
 48
1.0
  6
ByLayer
 10
359.0
 20
680.49999999999989
 30
0.0
 11
360.0
 21
679.49999999999989
 31
0.0
  0
LINE
  5
300
100
AcDbEntity
100
AcDbLine
  8
Raum_002
 62
256
370
-1
 48
1.0
  6
ByLayer
 10
356.0
 20
671.49999999999989
 30
0.0
 11
352.0
 21
665.49999999999989
 31
0.0
  0
LINE
  5
301
100
AcDbEntity
100
AcDbLine
  8
Raum_004
 62
256
370
-1
 48
1.0
  6
ByLayer
 10
376.0
 20
898.49999999999989
 30
0.0
 11
377.0
 21
887.49999999999989
 31
0.0
  0
LINE
  5
302
100
AcDbEntity
100
AcDbLine
  8
Raum_004
 62
256
370
-1
 48
1.0
  6
ByLayer
 10
379.0
 20
880.49999999999989
 30
0.0
 11
382.0
 21
868.49999999999989
 31
0.0
  0
LINE
  5
303
100
AcDbEntity
100
AcDbLine
  8
Raum_004
 62
256
370
-1
 48
1.0
  6
ByLayer
 10
383.0
 20
861.49999999999989
 30
0.0
 11
386.0
 21
852.49999999999989
 31
0.0
  0
LINE
  5
304
100
AcDbEntity
100
AcDbLine
  8
Raum_004
 62
256
370
-1
 48
1.0
  6
ByLayer
 10
386.0
 20
852.49999999999989
 30
0.0
 11
391.0
 21
849.49999999999989
 31
0.0
  0
LINE
  5
305
100
AcDbEntity
100
AcDbLine
  8
Raum_004
 62
256
370
-1
 48
1.0
  6
ByLayer
 10
391.0
 20
849.49999999999989
 30
0.0
 11
409.0
 21
874.49999999999989
 31
0.0
  0
LINE
  5
306
100
AcDbEntity
100
AcDbLine
  8
Raum_004
 62
256
370
-1
 48
1.0
  6
ByLayer
 10
409.0
 20
874.49999999999989
 30
0.0
 11
406.0
 21
876.49999999999989
 31
0.0
  0
LINE
  5
307
100
AcDbEntity
100
AcDbLine
  8
Raum_004
 62
256
370
-1
 48
1.0
  6
ByLayer
 10
406.0
 20
876.49999999999989
 30
0.0
 11
418.0
 21
893.49999999999989
 31
0.0
  0
LINE
  5
308
100
AcDbEntity
100
AcDbLine
  8
Raum_325
 62
256
370
-1
 48
1.0
  6
ByLayer
 10
370.21082532153741
 20
771.57245542509133
 30
0.0
 11
387.07267850954997
 21
784.56109658226649
 31
0.0
  0
LINE
  5
309
100
AcDbEntity
100
AcDbLine
  8
Raum_324
 62
256
370
-1
 48
1.0
  6
ByLayer
 10
373.70307099449076
 20
794.11331385960852
 30
0.0
 11
373.0
 21
794.49999999999989
 31
0.0
  0
LINE
  5
30A
100
AcDbEntity
100
AcDbLine
  8
Raum_324
 62
256
370
-1
 48
1.0
  6
ByLayer
 10
373.0
 20
794.49999999999989
 30
0.0
 11
365.0
 21
784.49999999999989
 31
0.0
  0
LINE
  5
30B
100
AcDbEntity
100
AcDbLine
  8
Raum_324
 62
256
370
-1
 48
1.0
  6
ByLayer
 10
365.0
 20
784.49999999999989
 30
0.0
 11
366.2423643295449
 21
783.7953152804281
 31
0.0
  0
LINE
  5
30C
100
AcDbEntity
100
AcDbLine
  8
Raum_343
 62
256
370
-1
 48
1.0
  6
ByLayer
 10
583.0
 20
747.99999999999989
 30
0.0
 11
588.0
 21
747.99999999999989
 31
0.0
  0
LINE
  5
30D
100
AcDbEntity
100
AcDbLine
  8
Raum_343
 62
256
370
-1
 48
1.0
  6
ByLayer
 10
588.0
 20
747.99999999999989
 30
0.0
 11
589.0
 21
746.99999999999989
 31
0.0
  0
LINE
  5
30E
100
AcDbEntity
100
AcDbLine
  8
Raum_343
 62
256
370
-1
 48
1.0
  6
ByLayer
 10
589.0
 20
746.99999999999989
 30
0.0
 11
589.0
 21
742.99999999999989
 31
0.0
  0
LINE
  5
30F
100
AcDbEntity
100
AcDbLine
  8
Raum_343
 62
256
370
-1
 48
1.0
  6
ByLayer
 10
589.0
 20
742.99999999999989
 30
0.0
 11
588.0
 21
741.99999999999989
 31
0.0
  0
LINE
  5
310
100
AcDbEntity
100
AcDbLine
  8
Raum_343
 62
256
370
-1
 48
1.0
  6
ByLayer
 10
588.0
 20
741.99999999999989
 30
0.0
 11
583.0
 21
741.99999999999989
 31
0.0
  0
LINE
  5
311
100
AcDbEntity
100
AcDbLine
  8
Raum_343
 62
256
370
-1
 48
1.0
  6
ByLayer
 10
583.0
 20
741.99999999999989
 30
0.0
 11
582.0
 21
742.99999999999989
 31
0.0
  0
LINE
  5
312
100
AcDbEntity
100
AcDbLine
  8
Raum_343
 62
256
370
-1
 48
1.0
  6
ByLayer
 10
582.0
 20
742.99999999999989
 30
0.0
 11
582.0
 21
746.99999999999989
 31
0.0
  0
LINE
  5
313
100
AcDbEntity
100
AcDbLine
  8
Raum_343
 62
256
370
-1
 48
1.0
  6
ByLayer
 10
582.0
 20
746.99999999999989
 30
0.0
 11
583.0
 21
747.99999999999989
 31
0.0
  0
LINE
  5
314
100
AcDbEntity
100
AcDbLine
  8
Raum_343
 62
256
370
-1
 48
1.0
  6
ByLayer
 10
603.99999999999989
 20
747.99999999999989
 30
0.0
 11
608.99999999999989
 21
747.99999999999989
 31
0.0
  0
LINE
  5
315
100
AcDbEntity
100
AcDbLine
  8
Raum_343
 62
256
370
-1
 48
1.0
  6
ByLayer
 10
608.99999999999989
 20
747.99999999999989
 30
0.0
 11
609.99999999999989
 21
746.99999999999989
 31
0.0
  0
LINE
  5
316
100
AcDbEntity
100
AcDbLine
  8
Raum_343
 62
256
370
-1
 48
1.0
  6
ByLayer
 10
609.99999999999989
 20
746.99999999999989
 30
0.0
 11
609.99999999999989
 21
742.99999999999989
 31
0.0
  0
LINE
  5
317
100
AcDbEntity
100
AcDbLine
  8
Raum_343
 62
256
370
-1
 48
1.0
  6
ByLayer
 10
609.99999999999989
 20
742.99999999999989
 30
0.0
 11
608.99999999999989
 21
741.99999999999989
 31
0.0
  0
LINE
  5
318
100
AcDbEntity
100
AcDbLine
  8
Raum_343
 62
256
370
-1
 48
1.0
  6
ByLayer
 10
608.99999999999989
 20
741.99999999999989
 30
0.0
 11
603.99999999999989
 21
741.99999999999989
 31
0.0
  0
LINE
  5
319
100
AcDbEntity
100
AcDbLine
  8
Raum_343
 62
256
370
-1
 48
1.0
  6
ByLayer
 10
603.99999999999989
 20
741.99999999999989
 30
0.0
 11
602.99999999999989
 21
742.99999999999989
 31
0.0
  0
LINE
  5
31A
100
AcDbEntity
100
AcDbLine
  8
Raum_343
 62
256
370
-1
 48
1.0
  6
ByLayer
 10
602.99999999999989
 20
742.99999999999989
 30
0.0
 11
602.99999999999989
 21
746.99999999999989
 31
0.0
  0
LINE
  5
31B
100
AcDbEntity
100
AcDbLine
  8
Raum_343
 62
256
370
-1
 48
1.0
  6
ByLayer
 10
602.99999999999989
 20
746.99999999999989
 30
0.0
 11
603.99999999999989
 21
747.99999999999989
 31
0.0
  0
LINE
  5
31C
100
AcDbEntity
100
AcDbLine
  8
Raum_343
 62
256
370
-1
 48
1.0
  6
ByLayer
 10
622.0
 20
746.99999999999989
 30
0.0
 11
627.0
 21
746.99999999999989
 31
0.0
  0
LINE
  5
31D
100
AcDbEntity
100
AcDbLine
  8
Raum_343
 62
256
370
-1
 48
1.0
  6
ByLayer
 10
627.0
 20
746.99999999999989
 30
0.0
 11
628.0
 21
745.99999999999989
 31
0.0
  0
LINE
  5
31E
100
AcDbEntity
100
AcDbLine
  8
Raum_343
 62
256
370
-1
 48
1.0
  6
ByLayer
 10
628.0
 20
745.99999999999989
 30
0.0
 11
628.0
 21
741.99999999999989
 31
0.0
  0
LINE
  5
31F
100
AcDbEntity
100
AcDbLine
  8
Raum_343
 62
256
370
-1
 48
1.0
  6
ByLayer
 10
628.0
 20
741.99999999999989
 30
0.0
 11
627.0
 21
740.99999999999989
 31
0.0
  0
LINE
  5
320
100
AcDbEntity
100
AcDbLine
  8
Raum_343
 62
256
370
-1
 48
1.0
  6
ByLayer
 10
627.0
 20
740.99999999999989
 30
0.0
 11
622.0
 21
740.99999999999989
 31
0.0
  0
LINE
  5
321
100
AcDbEntity
100
AcDbLine
  8
Raum_343
 62
256
370
-1
 48
1.0
  6
ByLayer
 10
622.0
 20
740.99999999999989
 30
0.0
 11
621.0
 21
741.99999999999989
 31
0.0
  0
LINE
  5
322
100
AcDbEntity
100
AcDbLine
  8
Raum_343
 62
256
370
-1
 48
1.0
  6
ByLayer
 10
621.0
 20
741.99999999999989
 30
0.0
 11
621.0
 21
745.99999999999989
 31
0.0
  0
LINE
  5
323
100
AcDbEntity
100
AcDbLine
  8
Raum_343
 62
256
370
-1
 48
1.0
  6
ByLayer
 10
621.0
 20
745.99999999999989
 30
0.0
 11
622.0
 21
746.99999999999989
 31
0.0
  0
LINE
  5
324
100
AcDbEntity
100
AcDbLine
  8
Raum_343
 62
256
370
-1
 48
1.0
  6
ByLayer
 10
638.99999999999989
 20
746.99999999999989
 30
0.0
 11
643.99999999999989
 21
746.99999999999989
 31
0.0
  0
LINE
  5
325
100
AcDbEntity
100
AcDbLine
  8
Raum_343
 62
256
370
-1
 48
1.0
  6
ByLayer
 10
643.99999999999989
 20
746.99999999999989
 30
0.0
 11
644.99999999999989
 21
745.99999999999989
 31
0.0
  0
LINE
  5
326
100
AcDbEntity
100
AcDbLine
  8
Raum_343
 62
256
370
-1
 48
1.0
  6
ByLayer
 10
644.99999999999989
 20
745.99999999999989
 30
0.0
 11
644.99999999999989
 21
741.99999999999989
 31
0.0
  0
LINE
  5
327
100
AcDbEntity
100
AcDbLine
  8
Raum_343
 62
256
370
-1
 48
1.0
  6
ByLayer
 10
644.99999999999989
 20
741.99999999999989
 30
0.0
 11
643.99999999999989
 21
740.99999999999989
 31
0.0
  0
LINE
  5
328
100
AcDbEntity
100
AcDbLine
  8
Raum_343
 62
256
370
-1
 48
1.0
  6
ByLayer
 10
643.99999999999989
 20
740.99999999999989
 30
0.0
 11
638.99999999999989
 21
740.99999999999989
 31
0.0
  0
LINE
  5
329
100
AcDbEntity
100
AcDbLine
  8
Raum_343
 62
256
370
-1
 48
1.0
  6
ByLayer
 10
638.99999999999989
 20
740.99999999999989
 30
0.0
 11
637.99999999999989
 21
741.99999999999989
 31
0.0
  0
LINE
  5
32A
100
AcDbEntity
100
AcDbLine
  8
Raum_343
 62
256
370
-1
 48
1.0
  6
ByLayer
 10
637.99999999999989
 20
741.99999999999989
 30
0.0
 11
637.99999999999989
 21
745.99999999999989
 31
0.0
  0
LINE
  5
32B
100
AcDbEntity
100
AcDbLine
  8
Raum_343
 62
256
370
-1
 48
1.0
  6
ByLayer
 10
637.99999999999989
 20
745.99999999999989
 30
0.0
 11
638.99999999999989
 21
746.99999999999989
 31
0.0
  0
ENDSEC
  0
SECTION
  2
OBJECTS
  0
DICTIONARY
  5
C
100
AcDbDictionary
280
0
281
1
  3
ACAD_GROUP
350
D
  3
ACAD_LAYOUT
350
1A
  3
ACAD_MLINESTYLE
350
17
  3
ACAD_PLOTSETTINGS
350
19
  3
ACAD_PLOTSTYLENAME
350
E
  3
AcDbVariableDictionary
350
32C
  3
QCAD_OBJECTS
350
32D
  0
DICTIONARY
  5
D
100
AcDbDictionary
280
0
281
1
  0
ACDBDICTIONARYWDFLT
  5
E
100
AcDbDictionary
281
1
  3
Normal
350
F
100
AcDbDictionaryWithDefault
340
F
  0
ACDBPLACEHOLDER
  5
F
  0
DICTIONARY
  5
17
100
AcDbDictionary
280
0
281
1
  3
Standard
350
18
  0
MLINESTYLE
  5
18
100
AcDbMlineStyle
  2
STANDARD
 70
0
  3

 62
256
 51
90.0
 52
90.0
 71
2
 49
0.5
 62
256
  6
BYLAYER
 49
-0.5
 62
256
  6
BYLAYER
  0
DICTIONARY
  5
19
100
AcDbDictionary
280
0
281
1
  0
DICTIONARY
  5
1A
100
AcDbDictionary
281
1
  3
Layout1
350
1E
  3
Layout2
350
26
  3
Model
350
22
  0
LAYOUT
  5
1E
100
AcDbPlotSettings
  1

  2
none_device
  4

  6

 40
0.0
 41
0.0
 42
0.0
 43
0.0
 44
0.0
 45
0.0
 46
0.0
 47
0.0
 48
0.0
 49
0.0
140
0.0
141
0.0
142
1.0
143
1.0
 70
688
 72
0
 73
0
 74
5
  7

 75
16
147
1.0
148
0.0
149
0.0
100
AcDbLayout
  1
Layout1
 70
1
 71
1
 10
0.0
 20
0.0
 11
420.0
 21
297.0
 12
0.0
 22
0.0
 32
0.0
 14
100000000000000000000.0
 24
100000000000000000000.0
 34
100000000000000000000.0
 15
-100000000000000000000.0
 25
-100000000000000000000.0
 35
-100000000000000000000.0
146
0.0
 13
0.0
 23
0.0
 33
0.0
 16
1.0
 26
0.0
 36
0.0
 17
0.0
 27
1.0
 37
0.0
 76
0
330
1B
  0
LAYOUT
  5
22
100
AcDbPlotSettings
  1

  2
none_device
  4

  6

 40
0.0
 41
0.0
 42
0.0
 43
0.0
 44
0.0
 45
0.0
 46
0.0
 47
0.0
 48
0.0
 49
0.0
140
0.0
141
0.0
142
1.0
143
1.0
 70
1712
 72
0
 73
0
 74
0
  7

 75
0
147
1.0
148
0.0
149
0.0
100
AcDbLayout
  1
Model
 70
1
 71
0
 10
0.0
 20
0.0
 11
12.0
 21
9.0
 12
0.0
 22
0.0
 32
0.0
 14
0.0
 24
0.0
 34
0.0
 15
0.0
 25
0.0
 35
0.0
146
0.0
 13
0.0
 23
0.0
 33
0.0
 16
1.0
 26
0.0
 36
0.0
 17
0.0
 27
1.0
 37
0.0
 76
0
330
1F
  0
LAYOUT
  5
26
100
AcDbPlotSettings
  1

  2
none_device
  4

  6

 40
0.0
 41
0.0
 42
0.0
 43
0.0
 44
0.0
 45
0.0
 46
0.0
 47
0.0
 48
0.0
 49
0.0
140
0.0
141
0.0
142
1.0
143
1.0
 70
688
 72
0
 73
0
 74
5
  7

 75
16
147
1.0
148
0.0
149
0.0
100
AcDbLayout
  1
Layout2
 70
1
 71
2
 10
0.0
 20
0.0
 11
12.0
 21
9.0
 12
0.0
 22
0.0
 32
0.0
 14
0.0
 24
0.0
 34
0.0
 15
0.0
 25
0.0
 35
0.0
146
0.0
 13
0.0
 23
0.0
 33
0.0
 16
1.0
 26
0.0
 36
0.0
 17
0.0
 27
1.0
 37
0.0
 76
0
330
23
  0
DICTIONARY
  5
32C
100
AcDbDictionary
281
1
  3
DIMASSOC
350
32F
  3
HIDETEXT
350
32E
  0
DICTIONARYVAR
  5
32E
100
DictionaryVariables
280
0
  1
2
  0
DICTIONARYVAR
  5
32F
100
DictionaryVariables
280
0
  1
1
  0
DICTIONARY
  5
32D
100
AcDbDictionary
281
1
  3
Grid/DisplayGrid00
350
330
  3
Grid/DisplayGrid01
350
331
  3
Grid/DisplayGrid02
350
332
  3
Grid/DisplayGrid03
350
333
  3
Grid/GridSpacingX00
350
334
  3
Grid/GridSpacingX01
350
335
  3
Grid/GridSpacingX02
350
336
  3
Grid/GridSpacingX03
350
337
  3
Grid/GridSpacingY00
350
338
  3
Grid/GridSpacingY01
350
339
  3
Grid/GridSpacingY02
350
33A
  3
Grid/GridSpacingY03
350
33B
  3
Grid/IsometricGrid00
350
33C
  3
Grid/IsometricGrid01
350
33D
  3
Grid/IsometricGrid02
350
33E
  3
Grid/IsometricGrid03
350
33F
  3
Grid/IsometricProjection00
350
340
  3
Grid/IsometricProjection01
350
341
  3
Grid/IsometricProjection02
350
342
  3
Grid/IsometricProjection03
350
343
  3
Grid/MetaGridSpacingX00
350
344
  3
Grid/MetaGridSpacingX01
350
345
  3
Grid/MetaGridSpacingX02
350
346
  3
Grid/MetaGridSpacingX03
350
347
  3
Grid/MetaGridSpacingY00
350
348
  3
Grid/MetaGridSpacingY01
350
349
  3
Grid/MetaGridSpacingY02
350
34A
  3
Grid/MetaGridSpacingY03
350
34B
  3
MultiPageSettings/Columns
350
34C
  3
MultiPageSettings/GlueMarginsBottom
350
34D
  3
MultiPageSettings/GlueMarginsLeft
350
34E
  3
MultiPageSettings/GlueMarginsRight
350
34F
  3
MultiPageSettings/GlueMarginsTop
350
350
  3
MultiPageSettings/PrintCropMarks
350
351
  3
MultiPageSettings/Rows
350
352
  3
PageSettings/OffsetX
350
353
  3
PageSettings/OffsetY
350
354
  3
PageSettings/PageOrientation
350
355
  3
PageSettings/PaperHeight
350
356
  3
PageSettings/PaperSizeName
350
357
  3
PageSettings/PaperWidth
350
358
  3
PageSettings/Scale
350
359
  3
PageSettings/ShowPaperBorders
350
35A
  3
PointDisplaySettings/Button0
350
35B
  3
PointDisplaySettings/Mode
350
35C
  3
PointDisplaySettings/Size
350
35D
  3
QCADVersion
350
35E
  3
UnitSettings/PaperUnit
350
35F
  0
XRECORD
  5
330
330
32D
100
AcDbXrecord
280
1
290
1
  0
XRECORD
  5
331
330
32D
100
AcDbXrecord
280
1
290
1
  0
XRECORD
  5
332
330
32D
100
AcDbXrecord
280
1
290
1
  0
XRECORD
  5
333
330
32D
100
AcDbXrecord
280
1
290
1
  0
XRECORD
  5
334
330
32D
100
AcDbXrecord
280
1
1000
auto
  0
XRECORD
  5
335
330
32D
100
AcDbXrecord
280
1
1000
auto
  0
XRECORD
  5
336
330
32D
100
AcDbXrecord
280
1
1000
auto
  0
XRECORD
  5
337
330
32D
100
AcDbXrecord
280
1
1000
auto
  0
XRECORD
  5
338
330
32D
100
AcDbXrecord
280
1
1000
auto
  0
XRECORD
  5
339
330
32D
100
AcDbXrecord
280
1
1000
auto
  0
XRECORD
  5
33A
330
32D
100
AcDbXrecord
280
1
1000
auto
  0
XRECORD
  5
33B
330
32D
100
AcDbXrecord
280
1
1000
auto
  0
XRECORD
  5
33C
330
32D
100
AcDbXrecord
280
1
290
0
  0
XRECORD
  5
33D
330
32D
100
AcDbXrecord
280
1
290
0
  0
XRECORD
  5
33E
330
32D
100
AcDbXrecord
280
1
290
0
  0
XRECORD
  5
33F
330
32D
100
AcDbXrecord
280
1
290
0
  0
XRECORD
  5
340
330
32D
100
AcDbXrecord
280
1
 90
0
  0
XRECORD
  5
341
330
32D
100
AcDbXrecord
280
1
 90
0
  0
XRECORD
  5
342
330
32D
100
AcDbXrecord
280
1
 90
0
  0
XRECORD
  5
343
330
32D
100
AcDbXrecord
280
1
 90
0
  0
XRECORD
  5
344
330
32D
100
AcDbXrecord
280
1
1000
auto
  0
XRECORD
  5
345
330
32D
100
AcDbXrecord
280
1
1000
auto
  0
XRECORD
  5
346
330
32D
100
AcDbXrecord
280
1
1000
auto
  0
XRECORD
  5
347
330
32D
100
AcDbXrecord
280
1
1000
auto
  0
XRECORD
  5
348
330
32D
100
AcDbXrecord
280
1
1000
auto
  0
XRECORD
  5
349
330
32D
100
AcDbXrecord
280
1
1000
auto
  0
XRECORD
  5
34A
330
32D
100
AcDbXrecord
280
1
1000
auto
  0
XRECORD
  5
34B
330
32D
100
AcDbXrecord
280
1
1000
auto
  0
XRECORD
  5
34C
330
32D
100
AcDbXrecord
280
1
 90
1
  0
XRECORD
  5
34D
330
32D
100
AcDbXrecord
280
1
 40
10.0
  0
XRECORD
  5
34E
330
32D
100
AcDbXrecord
280
1
 40
10.0
  0
XRECORD
  5
34F
330
32D
100
AcDbXrecord
280
1
 40
10.0
  0
XRECORD
  5
350
330
32D
100
AcDbXrecord
280
1
 40
10.0
  0
XRECORD
  5
351
330
32D
100
AcDbXrecord
280
1
290
0
  0
XRECORD
  5
352
330
32D
100
AcDbXrecord
280
1
 90
1
  0
XRECORD
  5
353
330
32D
100
AcDbXrecord
280
1
 40
398.19632164242972
  0
XRECORD
  5
354
330
32D
100
AcDbXrecord
280
1
 40
368.98032506415751
  0
XRECORD
  5
355
330
32D
100
AcDbXrecord
280
1
1000
Landscape
  0
XRECORD
  5
356
330
32D
100
AcDbXrecord
280
1
1000
1189
  0
XRECORD
  5
357
330
32D
100
AcDbXrecord
280
1
1000
ISO A0
  0
XRECORD
  5
358
330
32D
100
AcDbXrecord
280
1
1000
841
  0
XRECORD
  5
359
330
32D
100
AcDbXrecord
280
1
1000
0.001885483870967742
  0
XRECORD
  5
35A
330
32D
100
AcDbXrecord
280
1
290
1
  0
XRECORD
  5
35B
330
32D
100
AcDbXrecord
280
1
1000
Button0
  0
XRECORD
  5
35C
330
32D
100
AcDbXrecord
280
1
1000
0
  0
XRECORD
  5
35D
330
32D
100
AcDbXrecord
280
1
1000
0
  0
XRECORD
  5
35E
330
32D
100
AcDbXrecord
280
1
1000
3.7.4
  0
XRECORD
  5
35F
330
32D
100
AcDbXrecord
280
1
 90
4
  0
IMAGEDEF
  5
9F
100
AcDbRasterImageDef
 90
0
  1
F:/Max Thesis/Pl\U+00e4ne/Einkaufsebene.png
 10
620.0
 20
385.0
 11
1.0
 21
1.0
280
1
281
0
  0
ENDSEC
  0
EOF
