# Realistic 5-floor office - WALKABLE SURFACE ONLY (triangulated)
# Units: meters, +Z up. Walls = gaps; doorways = walkable bridges.
# Two switchback stair cores; ground-floor exterior exits.
# Vertices: 1034  Triangles: 1040
o office_5floor_realistic
v 0.3000 9.0000 0.0000
v 0.3000 7.0000 0.0000
v 1.6125 7.0000 0.0000
v 2.6125 7.0000 0.0000
v 5.3875 7.0000 0.0000
v 6.3875 7.0000 0.0000
v 8.9000 7.0000 0.0000
v 10.1000 7.0000 0.0000
v 12.6444 7.0000 0.0000
v 13.6444 7.0000 0.0000
v 16.4834 7.0000 0.0000
v 17.4834 7.0000 0.0000
v 20.3222 7.0000 0.0000
v 21.3222 7.0000 0.0000
v 24.1611 7.0000 0.0000
v 25.1611 7.0000 0.0000
v 28.0000 7.0000 0.0000
v 29.0000 7.0000 0.0000
v 31.8389 7.0000 0.0000
v 32.8389 7.0000 0.0000
v 35.6778 7.0000 0.0000
v 36.6778 7.0000 0.0000
v 39.5166 7.0000 0.0000
v 40.5166 7.0000 0.0000
v 43.3556 7.0000 0.0000
v 44.3556 7.0000 0.0000
v 45.7000 7.0000 0.0000
v 45.7000 9.0000 0.0000
v 44.3875 9.0000 0.0000
v 43.3875 9.0000 0.0000
v 40.6125 9.0000 0.0000
v 39.6125 9.0000 0.0000
v 37.1000 9.0000 0.0000
v 35.9000 9.0000 0.0000
v 33.3556 9.0000 0.0000
v 32.3556 9.0000 0.0000
v 29.5166 9.0000 0.0000
v 28.5166 9.0000 0.0000
v 25.6778 9.0000 0.0000
v 24.6778 9.0000 0.0000
v 21.8389 9.0000 0.0000
v 20.8389 9.0000 0.0000
v 18.0000 9.0000 0.0000
v 17.0000 9.0000 0.0000
v 14.1611 9.0000 0.0000
v 13.1611 9.0000 0.0000
v 10.3223 9.0000 0.0000
v 9.3223 9.0000 0.0000
v 6.4833 9.0000 0.0000
v 5.4833 9.0000 0.0000
v 2.6444 9.0000 0.0000
v 1.6444 9.0000 0.0000
v 0.3000 6.8500 0.0000
v 0.3000 0.1500 0.0000
v 3.9250 0.1500 0.0000
v 3.9250 6.8500 0.0000
v 2.6125 6.8500 0.0000
v 1.6125 6.8500 0.0000
v 4.0750 6.8500 0.0000
v 4.0750 0.1500 0.0000
v 7.7000 0.1500 0.0000
v 7.7000 6.8500 0.0000
v 6.3875 6.8500 0.0000
v 5.3875 6.8500 0.0000
v 11.3000 6.8500 0.0000
v 11.3000 0.1500 0.0000
v 14.9889 0.1500 0.0000
v 14.9889 6.8500 0.0000
v 13.6444 6.8500 0.0000
v 12.6444 6.8500 0.0000
v 15.1389 6.8500 0.0000
v 15.1389 0.1500 0.0000
v 18.8278 0.1500 0.0000
v 18.8278 6.8500 0.0000
v 17.4834 6.8500 0.0000
v 16.4834 6.8500 0.0000
v 18.9778 6.8500 0.0000
v 18.9778 0.1500 0.0000
v 22.6667 0.1500 0.0000
v 22.6667 6.8500 0.0000
v 21.3222 6.8500 0.0000
v 20.3222 6.8500 0.0000
v 22.8167 6.8500 0.0000
v 22.8167 0.1500 0.0000
v 26.5056 0.1500 0.0000
v 26.5056 6.8500 0.0000
v 25.1611 6.8500 0.0000
v 24.1611 6.8500 0.0000
v 26.6556 6.8500 0.0000
v 26.6556 0.1500 0.0000
v 30.3444 0.1500 0.0000
v 30.3444 6.8500 0.0000
v 29.0000 6.8500 0.0000
v 28.0000 6.8500 0.0000
v 30.4944 6.8500 0.0000
v 30.4944 0.1500 0.0000
v 34.1833 0.1500 0.0000
v 34.1833 6.8500 0.0000
v 32.8389 6.8500 0.0000
v 31.8389 6.8500 0.0000
v 34.3333 6.8500 0.0000
v 34.3333 0.1500 0.0000
v 38.0222 0.1500 0.0000
v 38.0222 6.8500 0.0000
v 36.6778 6.8500 0.0000
v 35.6778 6.8500 0.0000
v 38.1722 6.8500 0.0000
v 38.1722 0.1500 0.0000
v 41.8611 0.1500 0.0000
v 41.8611 6.8500 0.0000
v 40.5166 6.8500 0.0000
v 39.5166 6.8500 0.0000
v 42.0111 6.8500 0.0000
v 42.0111 0.1500 0.0000
v 45.7000 0.1500 0.0000
v 45.7000 6.8500 0.0000
v 44.3556 6.8500 0.0000
v 43.3556 6.8500 0.0000
v 0.3000 15.8500 0.0000
v 0.3000 9.1500 0.0000
v 1.6444 9.1500 0.0000
v 2.6444 9.1500 0.0000
v 3.9889 9.1500 0.0000
v 3.9889 15.8500 0.0000
v 4.1389 15.8500 0.0000
v 4.1389 9.1500 0.0000
v 5.4833 9.1500 0.0000
v 6.4833 9.1500 0.0000
v 7.8278 9.1500 0.0000
v 7.8278 15.8500 0.0000
v 7.9778 15.8500 0.0000
v 7.9778 9.1500 0.0000
v 9.3223 9.1500 0.0000
v 10.3223 9.1500 0.0000
v 11.6667 9.1500 0.0000
v 11.6667 15.8500 0.0000
v 11.8167 15.8500 0.0000
v 11.8167 9.1500 0.0000
v 13.1611 9.1500 0.0000
v 14.1611 9.1500 0.0000
v 15.5056 9.1500 0.0000
v 15.5056 15.8500 0.0000
v 15.6556 15.8500 0.0000
v 15.6556 9.1500 0.0000
v 17.0000 9.1500 0.0000
v 18.0000 9.1500 0.0000
v 19.3444 9.1500 0.0000
v 19.3444 15.8500 0.0000
v 19.4944 15.8500 0.0000
v 19.4944 9.1500 0.0000
v 20.8389 9.1500 0.0000
v 21.8389 9.1500 0.0000
v 23.1833 9.1500 0.0000
v 23.1833 15.8500 0.0000
v 23.3333 15.8500 0.0000
v 23.3333 9.1500 0.0000
v 24.6778 9.1500 0.0000
v 25.6778 9.1500 0.0000
v 27.0222 9.1500 0.0000
v 27.0222 15.8500 0.0000
v 27.1722 15.8500 0.0000
v 27.1722 9.1500 0.0000
v 28.5166 9.1500 0.0000
v 29.5166 9.1500 0.0000
v 30.8611 9.1500 0.0000
v 30.8611 15.8500 0.0000
v 31.0111 15.8500 0.0000
v 31.0111 9.1500 0.0000
v 32.3556 9.1500 0.0000
v 33.3556 9.1500 0.0000
v 34.7000 9.1500 0.0000
v 34.7000 15.8500 0.0000
v 38.3000 15.8500 0.0000
v 38.3000 9.1500 0.0000
v 39.6125 9.1500 0.0000
v 40.6125 9.1500 0.0000
v 41.9250 9.1500 0.0000
v 41.9250 15.8500 0.0000
v 42.0750 15.8500 0.0000
v 42.0750 9.1500 0.0000
v 43.3875 9.1500 0.0000
v 44.3875 9.1500 0.0000
v 45.7000 9.1500 0.0000
v 45.7000 15.8500 0.0000
v 8.0000 6.8500 0.0000
v 8.0000 5.6500 0.0000
v 9.5000 5.6500 0.0000
v 11.0000 5.6500 0.0000
v 11.0000 6.8500 0.0000
v 10.1000 6.8500 0.0000
v 8.9000 6.8500 0.0000
v 35.0000 10.3500 0.0000
v 35.0000 9.1500 0.0000
v 35.9000 9.1500 0.0000
v 37.1000 9.1500 0.0000
v 38.0000 9.1500 0.0000
v 38.0000 10.3500 0.0000
v 36.5000 10.3500 0.0000
v -1.7000 7.0000 0.0000
v -1.7000 9.0000 0.0000
v 47.7000 7.0000 0.0000
v 47.7000 9.0000 0.0000
v 0.3000 9.0000 3.5000
v 0.3000 7.0000 3.5000
v 1.6125 7.0000 3.5000
v 2.6125 7.0000 3.5000
v 5.3875 7.0000 3.5000
v 6.3875 7.0000 3.5000
v 8.9000 7.0000 3.5000
v 10.1000 7.0000 3.5000
v 12.6444 7.0000 3.5000
v 13.6444 7.0000 3.5000
v 16.4834 7.0000 3.5000
v 17.4834 7.0000 3.5000
v 20.3222 7.0000 3.5000
v 21.3222 7.0000 3.5000
v 24.1611 7.0000 3.5000
v 25.1611 7.0000 3.5000
v 28.0000 7.0000 3.5000
v 29.0000 7.0000 3.5000
v 31.8389 7.0000 3.5000
v 32.8389 7.0000 3.5000
v 35.6778 7.0000 3.5000
v 36.6778 7.0000 3.5000
v 39.5166 7.0000 3.5000
v 40.5166 7.0000 3.5000
v 43.3556 7.0000 3.5000
v 44.3556 7.0000 3.5000
v 45.7000 7.0000 3.5000
v 45.7000 9.0000 3.5000
v 44.3875 9.0000 3.5000
v 43.3875 9.0000 3.5000
v 40.6125 9.0000 3.5000
v 39.6125 9.0000 3.5000
v 37.1000 9.0000 3.5000
v 35.9000 9.0000 3.5000
v 33.3556 9.0000 3.5000
v 32.3556 9.0000 3.5000
v 29.5166 9.0000 3.5000
v 28.5166 9.0000 3.5000
v 25.6778 9.0000 3.5000
v 24.6778 9.0000 3.5000
v 21.8389 9.0000 3.5000
v 20.8389 9.0000 3.5000
v 18.0000 9.0000 3.5000
v 17.0000 9.0000 3.5000
v 14.1611 9.0000 3.5000
v 13.1611 9.0000 3.5000
v 10.3223 9.0000 3.5000
v 9.3223 9.0000 3.5000
v 6.4833 9.0000 3.5000
v 5.4833 9.0000 3.5000
v 2.6444 9.0000 3.5000
v 1.6444 9.0000 3.5000
v 0.3000 6.8500 3.5000
v 0.3000 0.1500 3.5000
v 3.9250 0.1500 3.5000
v 3.9250 6.8500 3.5000
v 2.6125 6.8500 3.5000
v 1.6125 6.8500 3.5000
v 4.0750 6.8500 3.5000
v 4.0750 0.1500 3.5000
v 7.7000 0.1500 3.5000
v 7.7000 6.8500 3.5000
v 6.3875 6.8500 3.5000
v 5.3875 6.8500 3.5000
v 11.3000 6.8500 3.5000
v 11.3000 0.1500 3.5000
v 14.9889 0.1500 3.5000
v 14.9889 6.8500 3.5000
v 13.6444 6.8500 3.5000
v 12.6444 6.8500 3.5000
v 15.1389 6.8500 3.5000
v 15.1389 0.1500 3.5000
v 18.8278 0.1500 3.5000
v 18.8278 6.8500 3.5000
v 17.4834 6.8500 3.5000
v 16.4834 6.8500 3.5000
v 18.9778 6.8500 3.5000
v 18.9778 0.1500 3.5000
v 22.6667 0.1500 3.5000
v 22.6667 6.8500 3.5000
v 21.3222 6.8500 3.5000
v 20.3222 6.8500 3.5000
v 22.8167 6.8500 3.5000
v 22.8167 0.1500 3.5000
v 26.5056 0.1500 3.5000
v 26.5056 6.8500 3.5000
v 25.1611 6.8500 3.5000
v 24.1611 6.8500 3.5000
v 26.6556 6.8500 3.5000
v 26.6556 0.1500 3.5000
v 30.3444 0.1500 3.5000
v 30.3444 6.8500 3.5000
v 29.0000 6.8500 3.5000
v 28.0000 6.8500 3.5000
v 30.4944 6.8500 3.5000
v 30.4944 0.1500 3.5000
v 34.1833 0.1500 3.5000
v 34.1833 6.8500 3.5000
v 32.8389 6.8500 3.5000
v 31.8389 6.8500 3.5000
v 34.3333 6.8500 3.5000
v 34.3333 0.1500 3.5000
v 38.0222 0.1500 3.5000
v 38.0222 6.8500 3.5000
v 36.6778 6.8500 3.5000
v 35.6778 6.8500 3.5000
v 38.1722 6.8500 3.5000
v 38.1722 0.1500 3.5000
v 41.8611 0.1500 3.5000
v 41.8611 6.8500 3.5000
v 40.5166 6.8500 3.5000
v 39.5166 6.8500 3.5000
v 42.0111 6.8500 3.5000
v 42.0111 0.1500 3.5000
v 45.7000 0.1500 3.5000
v 45.7000 6.8500 3.5000
v 44.3556 6.8500 3.5000
v 43.3556 6.8500 3.5000
v 0.3000 15.8500 3.5000
v 0.3000 9.1500 3.5000
v 1.6444 9.1500 3.5000
v 2.6444 9.1500 3.5000
v 3.9889 9.1500 3.5000
v 3.9889 15.8500 3.5000
v 4.1389 15.8500 3.5000
v 4.1389 9.1500 3.5000
v 5.4833 9.1500 3.5000
v 6.4833 9.1500 3.5000
v 7.8278 9.1500 3.5000
v 7.8278 15.8500 3.5000
v 7.9778 15.8500 3.5000
v 7.9778 9.1500 3.5000
v 9.3223 9.1500 3.5000
v 10.3223 9.1500 3.5000
v 11.6667 9.1500 3.5000
v 11.6667 15.8500 3.5000
v 11.8167 15.8500 3.5000
v 11.8167 9.1500 3.5000
v 13.1611 9.1500 3.5000
v 14.1611 9.1500 3.5000
v 15.5056 9.1500 3.5000
v 15.5056 15.8500 3.5000
v 15.6556 15.8500 3.5000
v 15.6556 9.1500 3.5000
v 17.0000 9.1500 3.5000
v 18.0000 9.1500 3.5000
v 19.3444 9.1500 3.5000
v 19.3444 15.8500 3.5000
v 19.4944 15.8500 3.5000
v 19.4944 9.1500 3.5000
v 20.8389 9.1500 3.5000
v 21.8389 9.1500 3.5000
v 23.1833 9.1500 3.5000
v 23.1833 15.8500 3.5000
v 23.3333 15.8500 3.5000
v 23.3333 9.1500 3.5000
v 24.6778 9.1500 3.5000
v 25.6778 9.1500 3.5000
v 27.0222 9.1500 3.5000
v 27.0222 15.8500 3.5000
v 27.1722 15.8500 3.5000
v 27.1722 9.1500 3.5000
v 28.5166 9.1500 3.5000
v 29.5166 9.1500 3.5000
v 30.8611 9.1500 3.5000
v 30.8611 15.8500 3.5000
v 31.0111 15.8500 3.5000
v 31.0111 9.1500 3.5000
v 32.3556 9.1500 3.5000
v 33.3556 9.1500 3.5000
v 34.7000 9.1500 3.5000
v 34.7000 15.8500 3.5000
v 38.3000 15.8500 3.5000
v 38.3000 9.1500 3.5000
v 39.6125 9.1500 3.5000
v 40.6125 9.1500 3.5000
v 41.9250 9.1500 3.5000
v 41.9250 15.8500 3.5000
v 42.0750 15.8500 3.5000
v 42.0750 9.1500 3.5000
v 43.3875 9.1500 3.5000
v 44.3875 9.1500 3.5000
v 45.7000 9.1500 3.5000
v 45.7000 15.8500 3.5000
v 8.0000 6.8500 3.5000
v 8.0000 5.6500 3.5000
v 9.5000 5.6500 3.5000
v 11.0000 5.6500 3.5000
v 11.0000 6.8500 3.5000
v 10.1000 6.8500 3.5000
v 8.9000 6.8500 3.5000
v 35.0000 10.3500 3.5000
v 35.0000 9.1500 3.5000
v 35.9000 9.1500 3.5000
v 37.1000 9.1500 3.5000
v 38.0000 9.1500 3.5000
v 38.0000 10.3500 3.5000
v 36.5000 10.3500 3.5000
v 0.3000 9.0000 7.0000
v 0.3000 7.0000 7.0000
v 1.6125 7.0000 7.0000
v 2.6125 7.0000 7.0000
v 5.3875 7.0000 7.0000
v 6.3875 7.0000 7.0000
v 8.9000 7.0000 7.0000
v 10.1000 7.0000 7.0000
v 12.6444 7.0000 7.0000
v 13.6444 7.0000 7.0000
v 16.4834 7.0000 7.0000
v 17.4834 7.0000 7.0000
v 20.3222 7.0000 7.0000
v 21.3222 7.0000 7.0000
v 24.1611 7.0000 7.0000
v 25.1611 7.0000 7.0000
v 28.0000 7.0000 7.0000
v 29.0000 7.0000 7.0000
v 31.8389 7.0000 7.0000
v 32.8389 7.0000 7.0000
v 35.6778 7.0000 7.0000
v 36.6778 7.0000 7.0000
v 39.5166 7.0000 7.0000
v 40.5166 7.0000 7.0000
v 43.3556 7.0000 7.0000
v 44.3556 7.0000 7.0000
v 45.7000 7.0000 7.0000
v 45.7000 9.0000 7.0000
v 44.3875 9.0000 7.0000
v 43.3875 9.0000 7.0000
v 40.6125 9.0000 7.0000
v 39.6125 9.0000 7.0000
v 37.1000 9.0000 7.0000
v 35.9000 9.0000 7.0000
v 33.3556 9.0000 7.0000
v 32.3556 9.0000 7.0000
v 29.5166 9.0000 7.0000
v 28.5166 9.0000 7.0000
v 25.6778 9.0000 7.0000
v 24.6778 9.0000 7.0000
v 21.8389 9.0000 7.0000
v 20.8389 9.0000 7.0000
v 18.0000 9.0000 7.0000
v 17.0000 9.0000 7.0000
v 14.1611 9.0000 7.0000
v 13.1611 9.0000 7.0000
v 10.3223 9.0000 7.0000
v 9.3223 9.0000 7.0000
v 6.4833 9.0000 7.0000
v 5.4833 9.0000 7.0000
v 2.6444 9.0000 7.0000
v 1.6444 9.0000 7.0000
v 0.3000 6.8500 7.0000
v 0.3000 0.1500 7.0000
v 3.9250 0.1500 7.0000
v 3.9250 6.8500 7.0000
v 2.6125 6.8500 7.0000
v 1.6125 6.8500 7.0000
v 4.0750 6.8500 7.0000
v 4.0750 0.1500 7.0000
v 7.7000 0.1500 7.0000
v 7.7000 6.8500 7.0000
v 6.3875 6.8500 7.0000
v 5.3875 6.8500 7.0000
v 11.3000 6.8500 7.0000
v 11.3000 0.1500 7.0000
v 14.9889 0.1500 7.0000
v 14.9889 6.8500 7.0000
v 13.6444 6.8500 7.0000
v 12.6444 6.8500 7.0000
v 15.1389 6.8500 7.0000
v 15.1389 0.1500 7.0000
v 18.8278 0.1500 7.0000
v 18.8278 6.8500 7.0000
v 17.4834 6.8500 7.0000
v 16.4834 6.8500 7.0000
v 18.9778 6.8500 7.0000
v 18.9778 0.1500 7.0000
v 22.6667 0.1500 7.0000
v 22.6667 6.8500 7.0000
v 21.3222 6.8500 7.0000
v 20.3222 6.8500 7.0000
v 22.8167 6.8500 7.0000
v 22.8167 0.1500 7.0000
v 26.5056 0.1500 7.0000
v 26.5056 6.8500 7.0000
v 25.1611 6.8500 7.0000
v 24.1611 6.8500 7.0000
v 26.6556 6.8500 7.0000
v 26.6556 0.1500 7.0000
v 30.3444 0.1500 7.0000
v 30.3444 6.8500 7.0000
v 29.0000 6.8500 7.0000
v 28.0000 6.8500 7.0000
v 30.4944 6.8500 7.0000
v 30.4944 0.1500 7.0000
v 34.1833 0.1500 7.0000
v 34.1833 6.8500 7.0000
v 32.8389 6.8500 7.0000
v 31.8389 6.8500 7.0000
v 34.3333 6.8500 7.0000
v 34.3333 0.1500 7.0000
v 38.0222 0.1500 7.0000
v 38.0222 6.8500 7.0000
v 36.6778 6.8500 7.0000
v 35.6778 6.8500 7.0000
v 38.1722 6.8500 7.0000
v 38.1722 0.1500 7.0000
v 41.8611 0.1500 7.0000
v 41.8611 6.8500 7.0000
v 40.5166 6.8500 7.0000
v 39.5166 6.8500 7.0000
v 42.0111 6.8500 7.0000
v 42.0111 0.1500 7.0000
v 45.7000 0.1500 7.0000
v 45.7000 6.8500 7.0000
v 44.3556 6.8500 7.0000
v 43.3556 6.8500 7.0000
v 0.3000 15.8500 7.0000
v 0.3000 9.1500 7.0000
v 1.6444 9.1500 7.0000
v 2.6444 9.1500 7.0000
v 3.9889 9.1500 7.0000
v 3.9889 15.8500 7.0000
v 4.1389 15.8500 7.0000
v 4.1389 9.1500 7.0000
v 5.4833 9.1500 7.0000
v 6.4833 9.1500 7.0000
v 7.8278 9.1500 7.0000
v 7.8278 15.8500 7.0000
v 7.9778 15.8500 7.0000
v 7.9778 9.1500 7.0000
v 9.3223 9.1500 7.0000
v 10.3223 9.1500 7.0000
v 11.6667 9.1500 7.0000
v 11.6667 15.8500 7.0000
v 11.8167 15.8500 7.0000
v 11.8167 9.1500 7.0000
v 13.1611 9.1500 7.0000
v 14.1611 9.1500 7.0000
v 15.5056 9.1500 7.0000
v 15.5056 15.8500 7.0000
v 15.6556 15.8500 7.0000
v 15.6556 9.1500 7.0000
v 17.0000 9.1500 7.0000
v 18.0000 9.1500 7.0000
v 19.3444 9.1500 7.0000
v 19.3444 15.8500 7.0000
v 19.4944 15.8500 7.0000
v 19.4944 9.1500 7.0000
v 20.8389 9.1500 7.0000
v 21.8389 9.1500 7.0000
v 23.1833 9.1500 7.0000
v 23.1833 15.8500 7.0000
v 23.3333 15.8500 7.0000
v 23.3333 9.1500 7.0000
v 24.6778 9.1500 7.0000
v 25.6778 9.1500 7.0000
v 27.0222 9.1500 7.0000
v 27.0222 15.8500 7.0000
v 27.1722 15.8500 7.0000
v 27.1722 9.1500 7.0000
v 28.5166 9.1500 7.0000
v 29.5166 9.1500 7.0000
v 30.8611 9.1500 7.0000
v 30.8611 15.8500 7.0000
v 31.0111 15.8500 7.0000
v 31.0111 9.1500 7.0000
v 32.3556 9.1500 7.0000
v 33.3556 9.1500 7.0000
v 34.7000 9.1500 7.0000
v 34.7000 15.8500 7.0000
v 38.3000 15.8500 7.0000
v 38.3000 9.1500 7.0000
v 39.6125 9.1500 7.0000
v 40.6125 9.1500 7.0000
v 41.9250 9.1500 7.0000
v 41.9250 15.8500 7.0000
v 42.0750 15.8500 7.0000
v 42.0750 9.1500 7.0000
v 43.3875 9.1500 7.0000
v 44.3875 9.1500 7.0000
v 45.7000 9.1500 7.0000
v 45.7000 15.8500 7.0000
v 8.0000 6.8500 7.0000
v 8.0000 5.6500 7.0000
v 9.5000 5.6500 7.0000
v 11.0000 5.6500 7.0000
v 11.0000 6.8500 7.0000
v 10.1000 6.8500 7.0000
v 8.9000 6.8500 7.0000
v 35.0000 10.3500 7.0000
v 35.0000 9.1500 7.0000
v 35.9000 9.1500 7.0000
v 37.1000 9.1500 7.0000
v 38.0000 9.1500 7.0000
v 38.0000 10.3500 7.0000
v 36.5000 10.3500 7.0000
v 0.3000 9.0000 10.5000
v 0.3000 7.0000 10.5000
v 1.6125 7.0000 10.5000
v 2.6125 7.0000 10.5000
v 5.3875 7.0000 10.5000
v 6.3875 7.0000 10.5000
v 8.9000 7.0000 10.5000
v 10.1000 7.0000 10.5000
v 12.6444 7.0000 10.5000
v 13.6444 7.0000 10.5000
v 16.4834 7.0000 10.5000
v 17.4834 7.0000 10.5000
v 20.3222 7.0000 10.5000
v 21.3222 7.0000 10.5000
v 24.1611 7.0000 10.5000
v 25.1611 7.0000 10.5000
v 28.0000 7.0000 10.5000
v 29.0000 7.0000 10.5000
v 31.8389 7.0000 10.5000
v 32.8389 7.0000 10.5000
v 35.6778 7.0000 10.5000
v 36.6778 7.0000 10.5000
v 39.5166 7.0000 10.5000
v 40.5166 7.0000 10.5000
v 43.3556 7.0000 10.5000
v 44.3556 7.0000 10.5000
v 45.7000 7.0000 10.5000
v 45.7000 9.0000 10.5000
v 44.3875 9.0000 10.5000
v 43.3875 9.0000 10.5000
v 40.6125 9.0000 10.5000
v 39.6125 9.0000 10.5000
v 37.1000 9.0000 10.5000
v 35.9000 9.0000 10.5000
v 33.3556 9.0000 10.5000
v 32.3556 9.0000 10.5000
v 29.5166 9.0000 10.5000
v 28.5166 9.0000 10.5000
v 25.6778 9.0000 10.5000
v 24.6778 9.0000 10.5000
v 21.8389 9.0000 10.5000
v 20.8389 9.0000 10.5000
v 18.0000 9.0000 10.5000
v 17.0000 9.0000 10.5000
v 14.1611 9.0000 10.5000
v 13.1611 9.0000 10.5000
v 10.3223 9.0000 10.5000
v 9.3223 9.0000 10.5000
v 6.4833 9.0000 10.5000
v 5.4833 9.0000 10.5000
v 2.6444 9.0000 10.5000
v 1.6444 9.0000 10.5000
v 0.3000 6.8500 10.5000
v 0.3000 0.1500 10.5000
v 3.9250 0.1500 10.5000
v 3.9250 6.8500 10.5000
v 2.6125 6.8500 10.5000
v 1.6125 6.8500 10.5000
v 4.0750 6.8500 10.5000
v 4.0750 0.1500 10.5000
v 7.7000 0.1500 10.5000
v 7.7000 6.8500 10.5000
v 6.3875 6.8500 10.5000
v 5.3875 6.8500 10.5000
v 11.3000 6.8500 10.5000
v 11.3000 0.1500 10.5000
v 14.9889 0.1500 10.5000
v 14.9889 6.8500 10.5000
v 13.6444 6.8500 10.5000
v 12.6444 6.8500 10.5000
v 15.1389 6.8500 10.5000
v 15.1389 0.1500 10.5000
v 18.8278 0.1500 10.5000
v 18.8278 6.8500 10.5000
v 17.4834 6.8500 10.5000
v 16.4834 6.8500 10.5000
v 18.9778 6.8500 10.5000
v 18.9778 0.1500 10.5000
v 22.6667 0.1500 10.5000
v 22.6667 6.8500 10.5000
v 21.3222 6.8500 10.5000
v 20.3222 6.8500 10.5000
v 22.8167 6.8500 10.5000
v 22.8167 0.1500 10.5000
v 26.5056 0.1500 10.5000
v 26.5056 6.8500 10.5000
v 25.1611 6.8500 10.5000
v 24.1611 6.8500 10.5000
v 26.6556 6.8500 10.5000
v 26.6556 0.1500 10.5000
v 30.3444 0.1500 10.5000
v 30.3444 6.8500 10.5000
v 29.0000 6.8500 10.5000
v 28.0000 6.8500 10.5000
v 30.4944 6.8500 10.5000
v 30.4944 0.1500 10.5000
v 34.1833 0.1500 10.5000
v 34.1833 6.8500 10.5000
v 32.8389 6.8500 10.5000
v 31.8389 6.8500 10.5000
v 34.3333 6.8500 10.5000
v 34.3333 0.1500 10.5000
v 38.0222 0.1500 10.5000
v 38.0222 6.8500 10.5000
v 36.6778 6.8500 10.5000
v 35.6778 6.8500 10.5000
v 38.1722 6.8500 10.5000
v 38.1722 0.1500 10.5000
v 41.8611 0.1500 10.5000
v 41.8611 6.8500 10.5000
v 40.5166 6.8500 10.5000
v 39.5166 6.8500 10.5000
v 42.0111 6.8500 10.5000
v 42.0111 0.1500 10.5000
v 45.7000 0.1500 10.5000
v 45.7000 6.8500 10.5000
v 44.3556 6.8500 10.5000
v 43.3556 6.8500 10.5000
v 0.3000 15.8500 10.5000
v 0.3000 9.1500 10.5000
v 1.6444 9.1500 10.5000
v 2.6444 9.1500 10.5000
v 3.9889 9.1500 10.5000
v 3.9889 15.8500 10.5000
v 4.1389 15.8500 10.5000
v 4.1389 9.1500 10.5000
v 5.4833 9.1500 10.5000
v 6.4833 9.1500 10.5000
v 7.8278 9.1500 10.5000
v 7.8278 15.8500 10.5000
v 7.9778 15.8500 10.5000
v 7.9778 9.1500 10.5000
v 9.3223 9.1500 10.5000
v 10.3223 9.1500 10.5000
v 11.6667 9.1500 10.5000
v 11.6667 15.8500 10.5000
v 11.8167 15.8500 10.5000
v 11.8167 9.1500 10.5000
v 13.1611 9.1500 10.5000
v 14.1611 9.1500 10.5000
v 15.5056 9.1500 10.5000
v 15.5056 15.8500 10.5000
v 15.6556 15.8500 10.5000
v 15.6556 9.1500 10.5000
v 17.0000 9.1500 10.5000
v 18.0000 9.1500 10.5000
v 19.3444 9.1500 10.5000
v 19.3444 15.8500 10.5000
v 19.4944 15.8500 10.5000
v 19.4944 9.1500 10.5000
v 20.8389 9.1500 10.5000
v 21.8389 9.1500 10.5000
v 23.1833 9.1500 10.5000
v 23.1833 15.8500 10.5000
v 23.3333 15.8500 10.5000
v 23.3333 9.1500 10.5000
v 24.6778 9.1500 10.5000
v 25.6778 9.1500 10.5000
v 27.0222 9.1500 10.5000
v 27.0222 15.8500 10.5000
v 27.1722 15.8500 10.5000
v 27.1722 9.1500 10.5000
v 28.5166 9.1500 10.5000
v 29.5166 9.1500 10.5000
v 30.8611 9.1500 10.5000
v 30.8611 15.8500 10.5000
v 31.0111 15.8500 10.5000
v 31.0111 9.1500 10.5000
v 32.3556 9.1500 10.5000
v 33.3556 9.1500 10.5000
v 34.7000 9.1500 10.5000
v 34.7000 15.8500 10.5000
v 38.3000 15.8500 10.5000
v 38.3000 9.1500 10.5000
v 39.6125 9.1500 10.5000
v 40.6125 9.1500 10.5000
v 41.9250 9.1500 10.5000
v 41.9250 15.8500 10.5000
v 42.0750 15.8500 10.5000
v 42.0750 9.1500 10.5000
v 43.3875 9.1500 10.5000
v 44.3875 9.1500 10.5000
v 45.7000 9.1500 10.5000
v 45.7000 15.8500 10.5000
v 8.0000 6.8500 10.5000
v 8.0000 5.6500 10.5000
v 9.5000 5.6500 10.5000
v 11.0000 5.6500 10.5000
v 11.0000 6.8500 10.5000
v 10.1000 6.8500 10.5000
v 8.9000 6.8500 10.5000
v 35.0000 10.3500 10.5000
v 35.0000 9.1500 10.5000
v 35.9000 9.1500 10.5000
v 37.1000 9.1500 10.5000
v 38.0000 9.1500 10.5000
v 38.0000 10.3500 10.5000
v 36.5000 10.3500 10.5000
v 0.3000 9.0000 14.0000
v 0.3000 7.0000 14.0000
v 1.6125 7.0000 14.0000
v 2.6125 7.0000 14.0000
v 5.3875 7.0000 14.0000
v 6.3875 7.0000 14.0000
v 8.9000 7.0000 14.0000
v 10.1000 7.0000 14.0000
v 12.6444 7.0000 14.0000
v 13.6444 7.0000 14.0000
v 16.4834 7.0000 14.0000
v 17.4834 7.0000 14.0000
v 20.3222 7.0000 14.0000
v 21.3222 7.0000 14.0000
v 24.1611 7.0000 14.0000
v 25.1611 7.0000 14.0000
v 28.0000 7.0000 14.0000
v 29.0000 7.0000 14.0000
v 31.8389 7.0000 14.0000
v 32.8389 7.0000 14.0000
v 35.6778 7.0000 14.0000
v 36.6778 7.0000 14.0000
v 39.5166 7.0000 14.0000
v 40.5166 7.0000 14.0000
v 43.3556 7.0000 14.0000
v 44.3556 7.0000 14.0000
v 45.7000 7.0000 14.0000
v 45.7000 9.0000 14.0000
v 44.3875 9.0000 14.0000
v 43.3875 9.0000 14.0000
v 40.6125 9.0000 14.0000
v 39.6125 9.0000 14.0000
v 37.1000 9.0000 14.0000
v 35.9000 9.0000 14.0000
v 33.3556 9.0000 14.0000
v 32.3556 9.0000 14.0000
v 29.5166 9.0000 14.0000
v 28.5166 9.0000 14.0000
v 25.6778 9.0000 14.0000
v 24.6778 9.0000 14.0000
v 21.8389 9.0000 14.0000
v 20.8389 9.0000 14.0000
v 18.0000 9.0000 14.0000
v 17.0000 9.0000 14.0000
v 14.1611 9.0000 14.0000
v 13.1611 9.0000 14.0000
v 10.3223 9.0000 14.0000
v 9.3223 9.0000 14.0000
v 6.4833 9.0000 14.0000
v 5.4833 9.0000 14.0000
v 2.6444 9.0000 14.0000
v 1.6444 9.0000 14.0000
v 0.3000 6.8500 14.0000
v 0.3000 0.1500 14.0000
v 3.9250 0.1500 14.0000
v 3.9250 6.8500 14.0000
v 2.6125 6.8500 14.0000
v 1.6125 6.8500 14.0000
v 4.0750 6.8500 14.0000
v 4.0750 0.1500 14.0000
v 7.7000 0.1500 14.0000
v 7.7000 6.8500 14.0000
v 6.3875 6.8500 14.0000
v 5.3875 6.8500 14.0000
v 11.3000 6.8500 14.0000
v 11.3000 0.1500 14.0000
v 14.9889 0.1500 14.0000
v 14.9889 6.8500 14.0000
v 13.6444 6.8500 14.0000
v 12.6444 6.8500 14.0000
v 15.1389 6.8500 14.0000
v 15.1389 0.1500 14.0000
v 18.8278 0.1500 14.0000
v 18.8278 6.8500 14.0000
v 17.4834 6.8500 14.0000
v 16.4834 6.8500 14.0000
v 18.9778 6.8500 14.0000
v 18.9778 0.1500 14.0000
v 22.6667 0.1500 14.0000
v 22.6667 6.8500 14.0000
v 21.3222 6.8500 14.0000
v 20.3222 6.8500 14.0000
v 22.8167 6.8500 14.0000
v 22.8167 0.1500 14.0000
v 26.5056 0.1500 14.0000
v 26.5056 6.8500 14.0000
v 25.1611 6.8500 14.0000
v 24.1611 6.8500 14.0000
v 26.6556 6.8500 14.0000
v 26.6556 0.1500 14.0000
v 30.3444 0.1500 14.0000
v 30.3444 6.8500 14.0000
v 29.0000 6.8500 14.0000
v 28.0000 6.8500 14.0000
v 30.4944 6.8500 14.0000
v 30.4944 0.1500 14.0000
v 34.1833 0.1500 14.0000
v 34.1833 6.8500 14.0000
v 32.8389 6.8500 14.0000
v 31.8389 6.8500 14.0000
v 34.3333 6.8500 14.0000
v 34.3333 0.1500 14.0000
v 38.0222 0.1500 14.0000
v 38.0222 6.8500 14.0000
v 36.6778 6.8500 14.0000
v 35.6778 6.8500 14.0000
v 38.1722 6.8500 14.0000
v 38.1722 0.1500 14.0000
v 41.8611 0.1500 14.0000
v 41.8611 6.8500 14.0000
v 40.5166 6.8500 14.0000
v 39.5166 6.8500 14.0000
v 42.0111 6.8500 14.0000
v 42.0111 0.1500 14.0000
v 45.7000 0.1500 14.0000
v 45.7000 6.8500 14.0000
v 44.3556 6.8500 14.0000
v 43.3556 6.8500 14.0000
v 0.3000 15.8500 14.0000
v 0.3000 9.1500 14.0000
v 1.6444 9.1500 14.0000
v 2.6444 9.1500 14.0000
v 3.9889 9.1500 14.0000
v 3.9889 15.8500 14.0000
v 4.1389 15.8500 14.0000
v 4.1389 9.1500 14.0000
v 5.4833 9.1500 14.0000
v 6.4833 9.1500 14.0000
v 7.8278 9.1500 14.0000
v 7.8278 15.8500 14.0000
v 7.9778 15.8500 14.0000
v 7.9778 9.1500 14.0000
v 9.3223 9.1500 14.0000
v 10.3223 9.1500 14.0000
v 11.6667 9.1500 14.0000
v 11.6667 15.8500 14.0000
v 11.8167 15.8500 14.0000
v 11.8167 9.1500 14.0000
v 13.1611 9.1500 14.0000
v 14.1611 9.1500 14.0000
v 15.5056 9.1500 14.0000
v 15.5056 15.8500 14.0000
v 15.6556 15.8500 14.0000
v 15.6556 9.1500 14.0000
v 17.0000 9.1500 14.0000
v 18.0000 9.1500 14.0000
v 19.3444 9.1500 14.0000
v 19.3444 15.8500 14.0000
v 19.4944 15.8500 14.0000
v 19.4944 9.1500 14.0000
v 20.8389 9.1500 14.0000
v 21.8389 9.1500 14.0000
v 23.1833 9.1500 14.0000
v 23.1833 15.8500 14.0000
v 23.3333 15.8500 14.0000
v 23.3333 9.1500 14.0000
v 24.6778 9.1500 14.0000
v 25.6778 9.1500 14.0000
v 27.0222 9.1500 14.0000
v 27.0222 15.8500 14.0000
v 27.1722 15.8500 14.0000
v 27.1722 9.1500 14.0000
v 28.5166 9.1500 14.0000
v 29.5166 9.1500 14.0000
v 30.8611 9.1500 14.0000
v 30.8611 15.8500 14.0000
v 31.0111 15.8500 14.0000
v 31.0111 9.1500 14.0000
v 32.3556 9.1500 14.0000
v 33.3556 9.1500 14.0000
v 34.7000 9.1500 14.0000
v 34.7000 15.8500 14.0000
v 38.3000 15.8500 14.0000
v 38.3000 9.1500 14.0000
v 39.6125 9.1500 14.0000
v 40.6125 9.1500 14.0000
v 41.9250 9.1500 14.0000
v 41.9250 15.8500 14.0000
v 42.0750 15.8500 14.0000
v 42.0750 9.1500 14.0000
v 43.3875 9.1500 14.0000
v 44.3875 9.1500 14.0000
v 45.7000 9.1500 14.0000
v 45.7000 15.8500 14.0000
v 8.0000 6.8500 14.0000
v 8.0000 5.6500 14.0000
v 9.5000 5.6500 14.0000
v 11.0000 5.6500 14.0000
v 11.0000 6.8500 14.0000
v 10.1000 6.8500 14.0000
v 8.9000 6.8500 14.0000
v 35.0000 10.3500 14.0000
v 35.0000 9.1500 14.0000
v 35.9000 9.1500 14.0000
v 37.1000 9.1500 14.0000
v 38.0000 9.1500 14.0000
v 38.0000 10.3500 14.0000
v 36.5000 10.3500 14.0000
v 9.5000 2.6500 1.7500
v 8.0000 2.6500 1.7500
v 11.0000 2.6500 1.7500
v 11.0000 1.1500 1.7500
v 8.0000 1.1500 1.7500
v 36.5000 13.3500 1.7500
v 35.0000 13.3500 1.7500
v 38.0000 13.3500 1.7500
v 38.0000 14.8500 1.7500
v 35.0000 14.8500 1.7500
v 9.5000 2.6500 5.2500
v 8.0000 2.6500 5.2500
v 11.0000 2.6500 5.2500
v 11.0000 1.1500 5.2500
v 8.0000 1.1500 5.2500
v 36.5000 13.3500 5.2500
v 35.0000 13.3500 5.2500
v 38.0000 13.3500 5.2500
v 38.0000 14.8500 5.2500
v 35.0000 14.8500 5.2500
v 9.5000 2.6500 8.7500
v 8.0000 2.6500 8.7500
v 11.0000 2.6500 8.7500
v 11.0000 1.1500 8.7500
v 8.0000 1.1500 8.7500
v 36.5000 13.3500 8.7500
v 35.0000 13.3500 8.7500
v 38.0000 13.3500 8.7500
v 38.0000 14.8500 8.7500
v 35.0000 14.8500 8.7500
v 9.5000 2.6500 12.2500
v 8.0000 2.6500 12.2500
v 11.0000 2.6500 12.2500
v 11.0000 1.1500 12.2500
v 8.0000 1.1500 12.2500
v 36.5000 13.3500 12.2500
v 35.0000 13.3500 12.2500
v 38.0000 13.3500 12.2500
v 38.0000 14.8500 12.2500
v 35.0000 14.8500 12.2500
g f0_corridor
f 1 2 3
f 1 3 4
f 1 4 5
f 1 5 6
f 1 6 7
f 1 7 8
f 1 8 9
f 1 9 10
f 1 10 11
f 1 11 12
f 1 12 13
f 1 13 14
f 1 14 15
f 1 15 16
f 1 16 17
f 1 17 18
f 1 18 19
f 1 19 20
f 1 20 21
f 1 21 22
f 1 22 23
f 1 23 24
f 1 24 25
f 1 25 26
f 1 26 27
f 27 28 29
f 27 29 30
f 27 30 31
f 27 31 32
f 27 32 33
f 27 33 34
f 27 34 35
f 27 35 36
f 27 36 37
f 27 37 38
f 27 38 39
f 27 39 40
f 27 40 41
f 27 41 42
f 27 42 43
f 27 43 44
f 27 44 45
f 27 45 46
f 27 46 47
f 27 47 48
f 27 48 49
f 27 49 50
f 27 50 51
f 27 51 52
f 27 52 1
g f0_room_b0
f 53 54 55
f 55 56 57
f 55 57 58
f 55 58 53
g f0_door_b0
f 58 57 4
f 58 4 3
g f0_room_b1
f 59 60 61
f 61 62 63
f 61 63 64
f 61 64 59
g f0_door_b1
f 64 63 6
f 64 6 5
g f0_room_b2
f 65 66 67
f 67 68 69
f 67 69 70
f 67 70 65
g f0_door_b2
f 70 69 10
f 70 10 9
g f0_room_b3
f 71 72 73
f 73 74 75
f 73 75 76
f 73 76 71
g f0_door_b3
f 76 75 12
f 76 12 11
g f0_room_b4
f 77 78 79
f 79 80 81
f 79 81 82
f 79 82 77
g f0_door_b4
f 82 81 14
f 82 14 13
g f0_room_b5
f 83 84 85
f 85 86 87
f 85 87 88
f 85 88 83
g f0_door_b5
f 88 87 16
f 88 16 15
g f0_room_b6
f 89 90 91
f 91 92 93
f 91 93 94
f 91 94 89
g f0_door_b6
f 94 93 18
f 94 18 17
g f0_room_b7
f 95 96 97
f 97 98 99
f 97 99 100
f 97 100 95
g f0_door_b7
f 100 99 20
f 100 20 19
g f0_room_b8
f 101 102 103
f 103 104 105
f 103 105 106
f 103 106 101
g f0_door_b8
f 106 105 22
f 106 22 21
g f0_room_b9
f 107 108 109
f 109 110 111
f 109 111 112
f 109 112 107
g f0_door_b9
f 112 111 24
f 112 24 23
g f0_room_b10
f 113 114 115
f 115 116 117
f 115 117 118
f 115 118 113
g f0_door_b10
f 118 117 26
f 118 26 25
g f0_room_t0
f 119 120 121
f 119 121 122
f 119 122 123
f 123 124 119
g f0_door_t0
f 52 51 122
f 52 122 121
g f0_room_t1
f 125 126 127
f 125 127 128
f 125 128 129
f 129 130 125
g f0_door_t1
f 50 49 128
f 50 128 127
g f0_room_t2
f 131 132 133
f 131 133 134
f 131 134 135
f 135 136 131
g f0_door_t2
f 48 47 134
f 48 134 133
g f0_room_t3
f 137 138 139
f 137 139 140
f 137 140 141
f 141 142 137
g f0_door_t3
f 46 45 140
f 46 140 139
g f0_room_t4
f 143 144 145
f 143 145 146
f 143 146 147
f 147 148 143
g f0_door_t4
f 44 43 146
f 44 146 145
g f0_room_t5
f 149 150 151
f 149 151 152
f 149 152 153
f 153 154 149
g f0_door_t5
f 42 41 152
f 42 152 151
g f0_room_t6
f 155 156 157
f 155 157 158
f 155 158 159
f 159 160 155
g f0_door_t6
f 40 39 158
f 40 158 157
g f0_room_t7
f 161 162 163
f 161 163 164
f 161 164 165
f 165 166 161
g f0_door_t7
f 38 37 164
f 38 164 163
g f0_room_t8
f 167 168 169
f 167 169 170
f 167 170 171
f 171 172 167
g f0_door_t8
f 36 35 170
f 36 170 169
g f0_room_t9
f 173 174 175
f 173 175 176
f 173 176 177
f 177 178 173
g f0_door_t9
f 32 31 176
f 32 176 175
g f0_room_t10
f 179 180 181
f 179 181 182
f 179 182 183
f 183 184 179
g f0_door_t10
f 30 29 182
f 30 182 181
g f0_landing_L
f 185 186 187
f 185 187 188
f 188 189 190
f 188 190 191
f 188 191 185
g f0_landing_L_door
f 191 190 8
f 191 8 7
g f0_landing_R
f 192 193 194
f 192 194 195
f 192 195 196
f 196 197 198
f 196 198 192
g f0_landing_R_door
f 34 33 195
f 34 195 194
g f0_exit_L
f 199 2 1
f 199 1 200
g f0_exit_R
f 27 201 202
f 27 202 28
g f1_corridor
f 203 204 205
f 203 205 206
f 203 206 207
f 203 207 208
f 203 208 209
f 203 209 210
f 203 210 211
f 203 211 212
f 203 212 213
f 203 213 214
f 203 214 215
f 203 215 216
f 203 216 217
f 203 217 218
f 203 218 219
f 203 219 220
f 203 220 221
f 203 221 222
f 203 222 223
f 203 223 224
f 203 224 225
f 203 225 226
f 203 226 227
f 203 227 228
f 203 228 229
f 229 230 231
f 229 231 232
f 229 232 233
f 229 233 234
f 229 234 235
f 229 235 236
f 229 236 237
f 229 237 238
f 229 238 239
f 229 239 240
f 229 240 241
f 229 241 242
f 229 242 243
f 229 243 244
f 229 244 245
f 229 245 246
f 229 246 247
f 229 247 248
f 229 248 249
f 229 249 250
f 229 250 251
f 229 251 252
f 229 252 253
f 229 253 254
f 229 254 203
g f1_room_b0
f 255 256 257
f 257 258 259
f 257 259 260
f 257 260 255
g f1_door_b0
f 260 259 206
f 260 206 205
g f1_room_b1
f 261 262 263
f 263 264 265
f 263 265 266
f 263 266 261
g f1_door_b1
f 266 265 208
f 266 208 207
g f1_room_b2
f 267 268 269
f 269 270 271
f 269 271 272
f 269 272 267
g f1_door_b2
f 272 271 212
f 272 212 211
g f1_room_b3
f 273 274 275
f 275 276 277
f 275 277 278
f 275 278 273
g f1_door_b3
f 278 277 214
f 278 214 213
g f1_room_b4
f 279 280 281
f 281 282 283
f 281 283 284
f 281 284 279
g f1_door_b4
f 284 283 216
f 284 216 215
g f1_room_b5
f 285 286 287
f 287 288 289
f 287 289 290
f 287 290 285
g f1_door_b5
f 290 289 218
f 290 218 217
g f1_room_b6
f 291 292 293
f 293 294 295
f 293 295 296
f 293 296 291
g f1_door_b6
f 296 295 220
f 296 220 219
g f1_room_b7
f 297 298 299
f 299 300 301
f 299 301 302
f 299 302 297
g f1_door_b7
f 302 301 222
f 302 222 221
g f1_room_b8
f 303 304 305
f 305 306 307
f 305 307 308
f 305 308 303
g f1_door_b8
f 308 307 224
f 308 224 223
g f1_room_b9
f 309 310 311
f 311 312 313
f 311 313 314
f 311 314 309
g f1_door_b9
f 314 313 226
f 314 226 225
g f1_room_b10
f 315 316 317
f 317 318 319
f 317 319 320
f 317 320 315
g f1_door_b10
f 320 319 228
f 320 228 227
g f1_room_t0
f 321 322 323
f 321 323 324
f 321 324 325
f 325 326 321
g f1_door_t0
f 254 253 324
f 254 324 323
g f1_room_t1
f 327 328 329
f 327 329 330
f 327 330 331
f 331 332 327
g f1_door_t1
f 252 251 330
f 252 330 329
g f1_room_t2
f 333 334 335
f 333 335 336
f 333 336 337
f 337 338 333
g f1_door_t2
f 250 249 336
f 250 336 335
g f1_room_t3
f 339 340 341
f 339 341 342
f 339 342 343
f 343 344 339
g f1_door_t3
f 248 247 342
f 248 342 341
g f1_room_t4
f 345 346 347
f 345 347 348
f 345 348 349
f 349 350 345
g f1_door_t4
f 246 245 348
f 246 348 347
g f1_room_t5
f 351 352 353
f 351 353 354
f 351 354 355
f 355 356 351
g f1_door_t5
f 244 243 354
f 244 354 353
g f1_room_t6
f 357 358 359
f 357 359 360
f 357 360 361
f 361 362 357
g f1_door_t6
f 242 241 360
f 242 360 359
g f1_room_t7
f 363 364 365
f 363 365 366
f 363 366 367
f 367 368 363
g f1_door_t7
f 240 239 366
f 240 366 365
g f1_room_t8
f 369 370 371
f 369 371 372
f 369 372 373
f 373 374 369
g f1_door_t8
f 238 237 372
f 238 372 371
g f1_room_t9
f 375 376 377
f 375 377 378
f 375 378 379
f 379 380 375
g f1_door_t9
f 234 233 378
f 234 378 377
g f1_room_t10
f 381 382 383
f 381 383 384
f 381 384 385
f 385 386 381
g f1_door_t10
f 232 231 384
f 232 384 383
g f1_landing_L
f 387 388 389
f 387 389 390
f 390 391 392
f 390 392 393
f 390 393 387
g f1_landing_L_door
f 393 392 210
f 393 210 209
g f1_landing_R
f 394 395 396
f 394 396 397
f 394 397 398
f 398 399 400
f 398 400 394
g f1_landing_R_door
f 236 235 397
f 236 397 396
g f2_corridor
f 401 402 403
f 401 403 404
f 401 404 405
f 401 405 406
f 401 406 407
f 401 407 408
f 401 408 409
f 401 409 410
f 401 410 411
f 401 411 412
f 401 412 413
f 401 413 414
f 401 414 415
f 401 415 416
f 401 416 417
f 401 417 418
f 401 418 419
f 401 419 420
f 401 420 421
f 401 421 422
f 401 422 423
f 401 423 424
f 401 424 425
f 401 425 426
f 401 426 427
f 427 428 429
f 427 429 430
f 427 430 431
f 427 431 432
f 427 432 433
f 427 433 434
f 427 434 435
f 427 435 436
f 427 436 437
f 427 437 438
f 427 438 439
f 427 439 440
f 427 440 441
f 427 441 442
f 427 442 443
f 427 443 444
f 427 444 445
f 427 445 446
f 427 446 447
f 427 447 448
f 427 448 449
f 427 449 450
f 427 450 451
f 427 451 452
f 427 452 401
g f2_room_b0
f 453 454 455
f 455 456 457
f 455 457 458
f 455 458 453
g f2_door_b0
f 458 457 404
f 458 404 403
g f2_room_b1
f 459 460 461
f 461 462 463
f 461 463 464
f 461 464 459
g f2_door_b1
f 464 463 406
f 464 406 405
g f2_room_b2
f 465 466 467
f 467 468 469
f 467 469 470
f 467 470 465
g f2_door_b2
f 470 469 410
f 470 410 409
g f2_room_b3
f 471 472 473
f 473 474 475
f 473 475 476
f 473 476 471
g f2_door_b3
f 476 475 412
f 476 412 411
g f2_room_b4
f 477 478 479
f 479 480 481
f 479 481 482
f 479 482 477
g f2_door_b4
f 482 481 414
f 482 414 413
g f2_room_b5
f 483 484 485
f 485 486 487
f 485 487 488
f 485 488 483
g f2_door_b5
f 488 487 416
f 488 416 415
g f2_room_b6
f 489 490 491
f 491 492 493
f 491 493 494
f 491 494 489
g f2_door_b6
f 494 493 418
f 494 418 417
g f2_room_b7
f 495 496 497
f 497 498 499
f 497 499 500
f 497 500 495
g f2_door_b7
f 500 499 420
f 500 420 419
g f2_room_b8
f 501 502 503
f 503 504 505
f 503 505 506
f 503 506 501
g f2_door_b8
f 506 505 422
f 506 422 421
g f2_room_b9
f 507 508 509
f 509 510 511
f 509 511 512
f 509 512 507
g f2_door_b9
f 512 511 424
f 512 424 423
g f2_room_b10
f 513 514 515
f 515 516 517
f 515 517 518
f 515 518 513
g f2_door_b10
f 518 517 426
f 518 426 425
g f2_room_t0
f 519 520 521
f 519 521 522
f 519 522 523
f 523 524 519
g f2_door_t0
f 452 451 522
f 452 522 521
g f2_room_t1
f 525 526 527
f 525 527 528
f 525 528 529
f 529 530 525
g f2_door_t1
f 450 449 528
f 450 528 527
g f2_room_t2
f 531 532 533
f 531 533 534
f 531 534 535
f 535 536 531
g f2_door_t2
f 448 447 534
f 448 534 533
g f2_room_t3
f 537 538 539
f 537 539 540
f 537 540 541
f 541 542 537
g f2_door_t3
f 446 445 540
f 446 540 539
g f2_room_t4
f 543 544 545
f 543 545 546
f 543 546 547
f 547 548 543
g f2_door_t4
f 444 443 546
f 444 546 545
g f2_room_t5
f 549 550 551
f 549 551 552
f 549 552 553
f 553 554 549
g f2_door_t5
f 442 441 552
f 442 552 551
g f2_room_t6
f 555 556 557
f 555 557 558
f 555 558 559
f 559 560 555
g f2_door_t6
f 440 439 558
f 440 558 557
g f2_room_t7
f 561 562 563
f 561 563 564
f 561 564 565
f 565 566 561
g f2_door_t7
f 438 437 564
f 438 564 563
g f2_room_t8
f 567 568 569
f 567 569 570
f 567 570 571
f 571 572 567
g f2_door_t8
f 436 435 570
f 436 570 569
g f2_room_t9
f 573 574 575
f 573 575 576
f 573 576 577
f 577 578 573
g f2_door_t9
f 432 431 576
f 432 576 575
g f2_room_t10
f 579 580 581
f 579 581 582
f 579 582 583
f 583 584 579
g f2_door_t10
f 430 429 582
f 430 582 581
g f2_landing_L
f 585 586 587
f 585 587 588
f 588 589 590
f 588 590 591
f 588 591 585
g f2_landing_L_door
f 591 590 408
f 591 408 407
g f2_landing_R
f 592 593 594
f 592 594 595
f 592 595 596
f 596 597 598
f 596 598 592
g f2_landing_R_door
f 434 433 595
f 434 595 594
g f3_corridor
f 599 600 601
f 599 601 602
f 599 602 603
f 599 603 604
f 599 604 605
f 599 605 606
f 599 606 607
f 599 607 608
f 599 608 609
f 599 609 610
f 599 610 611
f 599 611 612
f 599 612 613
f 599 613 614
f 599 614 615
f 599 615 616
f 599 616 617
f 599 617 618
f 599 618 619
f 599 619 620
f 599 620 621
f 599 621 622
f 599 622 623
f 599 623 624
f 599 624 625
f 625 626 627
f 625 627 628
f 625 628 629
f 625 629 630
f 625 630 631
f 625 631 632
f 625 632 633
f 625 633 634
f 625 634 635
f 625 635 636
f 625 636 637
f 625 637 638
f 625 638 639
f 625 639 640
f 625 640 641
f 625 641 642
f 625 642 643
f 625 643 644
f 625 644 645
f 625 645 646
f 625 646 647
f 625 647 648
f 625 648 649
f 625 649 650
f 625 650 599
g f3_room_b0
f 651 652 653
f 653 654 655
f 653 655 656
f 653 656 651
g f3_door_b0
f 656 655 602
f 656 602 601
g f3_room_b1
f 657 658 659
f 659 660 661
f 659 661 662
f 659 662 657
g f3_door_b1
f 662 661 604
f 662 604 603
g f3_room_b2
f 663 664 665
f 665 666 667
f 665 667 668
f 665 668 663
g f3_door_b2
f 668 667 608
f 668 608 607
g f3_room_b3
f 669 670 671
f 671 672 673
f 671 673 674
f 671 674 669
g f3_door_b3
f 674 673 610
f 674 610 609
g f3_room_b4
f 675 676 677
f 677 678 679
f 677 679 680
f 677 680 675
g f3_door_b4
f 680 679 612
f 680 612 611
g f3_room_b5
f 681 682 683
f 683 684 685
f 683 685 686
f 683 686 681
g f3_door_b5
f 686 685 614
f 686 614 613
g f3_room_b6
f 687 688 689
f 689 690 691
f 689 691 692
f 689 692 687
g f3_door_b6
f 692 691 616
f 692 616 615
g f3_room_b7
f 693 694 695
f 695 696 697
f 695 697 698
f 695 698 693
g f3_door_b7
f 698 697 618
f 698 618 617
g f3_room_b8
f 699 700 701
f 701 702 703
f 701 703 704
f 701 704 699
g f3_door_b8
f 704 703 620
f 704 620 619
g f3_room_b9
f 705 706 707
f 707 708 709
f 707 709 710
f 707 710 705
g f3_door_b9
f 710 709 622
f 710 622 621
g f3_room_b10
f 711 712 713
f 713 714 715
f 713 715 716
f 713 716 711
g f3_door_b10
f 716 715 624
f 716 624 623
g f3_room_t0
f 717 718 719
f 717 719 720
f 717 720 721
f 721 722 717
g f3_door_t0
f 650 649 720
f 650 720 719
g f3_room_t1
f 723 724 725
f 723 725 726
f 723 726 727
f 727 728 723
g f3_door_t1
f 648 647 726
f 648 726 725
g f3_room_t2
f 729 730 731
f 729 731 732
f 729 732 733
f 733 734 729
g f3_door_t2
f 646 645 732
f 646 732 731
g f3_room_t3
f 735 736 737
f 735 737 738
f 735 738 739
f 739 740 735
g f3_door_t3
f 644 643 738
f 644 738 737
g f3_room_t4
f 741 742 743
f 741 743 744
f 741 744 745
f 745 746 741
g f3_door_t4
f 642 641 744
f 642 744 743
g f3_room_t5
f 747 748 749
f 747 749 750
f 747 750 751
f 751 752 747
g f3_door_t5
f 640 639 750
f 640 750 749
g f3_room_t6
f 753 754 755
f 753 755 756
f 753 756 757
f 757 758 753
g f3_door_t6
f 638 637 756
f 638 756 755
g f3_room_t7
f 759 760 761
f 759 761 762
f 759 762 763
f 763 764 759
g f3_door_t7
f 636 635 762
f 636 762 761
g f3_room_t8
f 765 766 767
f 765 767 768
f 765 768 769
f 769 770 765
g f3_door_t8
f 634 633 768
f 634 768 767
g f3_room_t9
f 771 772 773
f 771 773 774
f 771 774 775
f 775 776 771
g f3_door_t9
f 630 629 774
f 630 774 773
g f3_room_t10
f 777 778 779
f 777 779 780
f 777 780 781
f 781 782 777
g f3_door_t10
f 628 627 780
f 628 780 779
g f3_landing_L
f 783 784 785
f 783 785 786
f 786 787 788
f 786 788 789
f 786 789 783
g f3_landing_L_door
f 789 788 606
f 789 606 605
g f3_landing_R
f 790 791 792
f 790 792 793
f 790 793 794
f 794 795 796
f 794 796 790
g f3_landing_R_door
f 632 631 793
f 632 793 792
g f4_corridor
f 797 798 799
f 797 799 800
f 797 800 801
f 797 801 802
f 797 802 803
f 797 803 804
f 797 804 805
f 797 805 806
f 797 806 807
f 797 807 808
f 797 808 809
f 797 809 810
f 797 810 811
f 797 811 812
f 797 812 813
f 797 813 814
f 797 814 815
f 797 815 816
f 797 816 817
f 797 817 818
f 797 818 819
f 797 819 820
f 797 820 821
f 797 821 822
f 797 822 823
f 823 824 825
f 823 825 826
f 823 826 827
f 823 827 828
f 823 828 829
f 823 829 830
f 823 830 831
f 823 831 832
f 823 832 833
f 823 833 834
f 823 834 835
f 823 835 836
f 823 836 837
f 823 837 838
f 823 838 839
f 823 839 840
f 823 840 841
f 823 841 842
f 823 842 843
f 823 843 844
f 823 844 845
f 823 845 846
f 823 846 847
f 823 847 848
f 823 848 797
g f4_room_b0
f 849 850 851
f 851 852 853
f 851 853 854
f 851 854 849
g f4_door_b0
f 854 853 800
f 854 800 799
g f4_room_b1
f 855 856 857
f 857 858 859
f 857 859 860
f 857 860 855
g f4_door_b1
f 860 859 802
f 860 802 801
g f4_room_b2
f 861 862 863
f 863 864 865
f 863 865 866
f 863 866 861
g f4_door_b2
f 866 865 806
f 866 806 805
g f4_room_b3
f 867 868 869
f 869 870 871
f 869 871 872
f 869 872 867
g f4_door_b3
f 872 871 808
f 872 808 807
g f4_room_b4
f 873 874 875
f 875 876 877
f 875 877 878
f 875 878 873
g f4_door_b4
f 878 877 810
f 878 810 809
g f4_room_b5
f 879 880 881
f 881 882 883
f 881 883 884
f 881 884 879
g f4_door_b5
f 884 883 812
f 884 812 811
g f4_room_b6
f 885 886 887
f 887 888 889
f 887 889 890
f 887 890 885
g f4_door_b6
f 890 889 814
f 890 814 813
g f4_room_b7
f 891 892 893
f 893 894 895
f 893 895 896
f 893 896 891
g f4_door_b7
f 896 895 816
f 896 816 815
g f4_room_b8
f 897 898 899
f 899 900 901
f 899 901 902
f 899 902 897
g f4_door_b8
f 902 901 818
f 902 818 817
g f4_room_b9
f 903 904 905
f 905 906 907
f 905 907 908
f 905 908 903
g f4_door_b9
f 908 907 820
f 908 820 819
g f4_room_b10
f 909 910 911
f 911 912 913
f 911 913 914
f 911 914 909
g f4_door_b10
f 914 913 822
f 914 822 821
g f4_room_t0
f 915 916 917
f 915 917 918
f 915 918 919
f 919 920 915
g f4_door_t0
f 848 847 918
f 848 918 917
g f4_room_t1
f 921 922 923
f 921 923 924
f 921 924 925
f 925 926 921
g f4_door_t1
f 846 845 924
f 846 924 923
g f4_room_t2
f 927 928 929
f 927 929 930
f 927 930 931
f 931 932 927
g f4_door_t2
f 844 843 930
f 844 930 929
g f4_room_t3
f 933 934 935
f 933 935 936
f 933 936 937
f 937 938 933
g f4_door_t3
f 842 841 936
f 842 936 935
g f4_room_t4
f 939 940 941
f 939 941 942
f 939 942 943
f 943 944 939
g f4_door_t4
f 840 839 942
f 840 942 941
g f4_room_t5
f 945 946 947
f 945 947 948
f 945 948 949
f 949 950 945
g f4_door_t5
f 838 837 948
f 838 948 947
g f4_room_t6
f 951 952 953
f 951 953 954
f 951 954 955
f 955 956 951
g f4_door_t6
f 836 835 954
f 836 954 953
g f4_room_t7
f 957 958 959
f 957 959 960
f 957 960 961
f 961 962 957
g f4_door_t7
f 834 833 960
f 834 960 959
g f4_room_t8
f 963 964 965
f 963 965 966
f 963 966 967
f 967 968 963
g f4_door_t8
f 832 831 966
f 832 966 965
g f4_room_t9
f 969 970 971
f 969 971 972
f 969 972 973
f 973 974 969
g f4_door_t9
f 828 827 972
f 828 972 971
g f4_room_t10
f 975 976 977
f 975 977 978
f 975 978 979
f 979 980 975
g f4_door_t10
f 826 825 978
f 826 978 977
g f4_landing_L
f 981 982 983
f 981 983 984
f 984 985 986
f 984 986 987
f 984 987 981
g f4_landing_L_door
f 987 986 804
f 987 804 803
g f4_landing_R
f 988 989 990
f 988 990 991
f 988 991 992
f 992 993 994
f 992 994 988
g f4_landing_R_door
f 830 829 991
f 830 991 990
g stair_L_0_1
f 186 187 995
f 186 995 996
f 996 995 998
f 995 997 998
f 996 998 999
f 995 997 390
f 995 390 389
g stair_R_0_1
f 192 198 1000
f 192 1000 1001
f 1001 1000 1003
f 1000 1002 1003
f 1001 1003 1004
f 1000 1002 399
f 1000 399 400
g stair_L_1_2
f 388 389 1005
f 388 1005 1006
f 1006 1005 1008
f 1005 1007 1008
f 1006 1008 1009
f 1005 1007 588
f 1005 588 587
g stair_R_1_2
f 394 400 1010
f 394 1010 1011
f 1011 1010 1013
f 1010 1012 1013
f 1011 1013 1014
f 1010 1012 597
f 1010 597 598
g stair_L_2_3
f 586 587 1015
f 586 1015 1016
f 1016 1015 1018
f 1015 1017 1018
f 1016 1018 1019
f 1015 1017 786
f 1015 786 785
g stair_R_2_3
f 592 598 1020
f 592 1020 1021
f 1021 1020 1023
f 1020 1022 1023
f 1021 1023 1024
f 1020 1022 795
f 1020 795 796
g stair_L_3_4
f 784 785 1025
f 784 1025 1026
f 1026 1025 1028
f 1025 1027 1028
f 1026 1028 1029
f 1025 1027 984
f 1025 984 983
g stair_R_3_4
f 790 796 1030
f 790 1030 1031
f 1031 1030 1033
f 1030 1032 1033
f 1031 1033 1034
f 1030 1032 993
f 1030 993 994
