<?xml version="1.0" encoding="UTF-8" standalone="no"?>
<!-- Created with Inkscape (http://www.inkscape.org/) -->

<svg
   width="161.60262mm"
   height="36.448853mm"
   viewBox="0 0 161.60261 36.448853"
   version="1.1"
   id="svg1"
   inkscape:version="1.3 (0e150ed6c4, 2023-07-21)"
   sodipodi:docname="queue.svg"
   xmlns:inkscape="http://www.inkscape.org/namespaces/inkscape"
   xmlns:sodipodi="http://sodipodi.sourceforge.net/DTD/sodipodi-0.dtd"
   xmlns="http://www.w3.org/2000/svg"
   xmlns:svg="http://www.w3.org/2000/svg">
  <sodipodi:namedview
     id="namedview1"
     pagecolor="#ffffff"
     bordercolor="#eeeeee"
     borderopacity="1"
     inkscape:showpageshadow="0"
     inkscape:pageopacity="0"
     inkscape:pagecheckerboard="0"
     inkscape:deskcolor="#d1d1d1"
     inkscape:document-units="mm"
     inkscape:zoom="2.202229"
     inkscape:cx="193.89446"
     inkscape:cy="159.15693"
     inkscape:window-width="2556"
     inkscape:window-height="1381"
     inkscape:window-x="0"
     inkscape:window-y="0"
     inkscape:window-maximized="1"
     inkscape:current-layer="layer1"
     showgrid="false" />
  <defs
     id="defs1">
    <marker
       style="overflow:visible"
       id="RoundedArrow"
       refX="0"
       refY="0"
       orient="auto-start-reverse"
       inkscape:stockid="Rounded arrow"
       markerWidth="1"
       markerHeight="1"
       viewBox="0 0 1 1"
       inkscape:isstock="true"
       inkscape:collect="always"
       preserveAspectRatio="xMidYMid">
      <path
         transform="scale(0.7)"
         d="m -0.21114562,-4.1055728 6.42229122,3.21114561 a 1,1 90 0 1 0,1.78885438 L -0.21114562,4.1055728 A 1.236068,1.236068 31.717474 0 1 -2,3 v -6 a 1.236068,1.236068 148.28253 0 1 1.78885438,-1.1055728 z"
         style="fill:context-stroke;fill-rule:evenodd;stroke:none"
         id="path8" />
    </marker>
    <marker
       style="overflow:visible"
       id="RoundedArrow-2"
       refX="0"
       refY="0"
       orient="auto-start-reverse"
       inkscape:stockid="Rounded arrow"
       markerWidth="1"
       markerHeight="1"
       viewBox="0 0 1 1"
       inkscape:isstock="true"
       inkscape:collect="always"
       preserveAspectRatio="xMidYMid">
      <path
         transform="scale(0.7)"
         d="m -0.21114562,-4.1055728 6.42229122,3.21114561 a 1,1 90 0 1 0,1.78885438 L -0.21114562,4.1055728 A 1.236068,1.236068 31.717474 0 1 -2,3 v -6 a 1.236068,1.236068 148.28253 0 1 1.78885438,-1.1055728 z"
         style="fill:context-stroke;fill-rule:evenodd;stroke:none"
         id="path8-0" />
    </marker>
    <marker
       style="overflow:visible"
       id="RoundedArrow-6"
       refX="0"
       refY="0"
       orient="auto-start-reverse"
       inkscape:stockid="Rounded arrow"
       markerWidth="1"
       markerHeight="1"
       viewBox="0 0 1 1"
       inkscape:isstock="true"
       inkscape:collect="always"
       preserveAspectRatio="xMidYMid">
      <path
         transform="scale(0.7)"
         d="m -0.21114562,-4.1055728 6.42229122,3.21114561 a 1,1 90 0 1 0,1.78885438 L -0.21114562,4.1055728 A 1.236068,1.236068 31.717474 0 1 -2,3 v -6 a 1.236068,1.236068 148.28253 0 1 1.78885438,-1.1055728 z"
         style="fill:context-stroke;fill-rule:evenodd;stroke:none"
         id="path8-6" />
    </marker>
    <marker
       style="overflow:visible"
       id="RoundedArrow-4"
       refX="0"
       refY="0"
       orient="auto-start-reverse"
       inkscape:stockid="Rounded arrow"
       markerWidth="1"
       markerHeight="1"
       viewBox="0 0 1 1"
       inkscape:isstock="true"
       inkscape:collect="always"
       preserveAspectRatio="xMidYMid">
      <path
         transform="scale(0.7)"
         d="m -0.21114562,-4.1055728 6.42229122,3.21114561 a 1,1 90 0 1 0,1.78885438 L -0.21114562,4.1055728 A 1.236068,1.236068 31.717474 0 1 -2,3 v -6 a 1.236068,1.236068 148.28253 0 1 1.78885438,-1.1055728 z"
         style="fill:context-stroke;fill-rule:evenodd;stroke:none"
         id="path8-8" />
    </marker>
    <marker
       style="overflow:visible"
       id="RoundedArrow-7"
       refX="0"
       refY="0"
       orient="auto-start-reverse"
       inkscape:stockid="Rounded arrow"
       markerWidth="1"
       markerHeight="1"
       viewBox="0 0 1 1"
       inkscape:isstock="true"
       inkscape:collect="always"
       preserveAspectRatio="xMidYMid">
      <path
         transform="scale(0.7)"
         d="m -0.21114562,-4.1055728 6.42229122,3.21114561 a 1,1 90 0 1 0,1.78885438 L -0.21114562,4.1055728 A 1.236068,1.236068 31.717474 0 1 -2,3 v -6 a 1.236068,1.236068 148.28253 0 1 1.78885438,-1.1055728 z"
         style="fill:context-stroke;fill-rule:evenodd;stroke:none"
         id="path8-2" />
    </marker>
    <marker
       style="overflow:visible"
       id="RoundedArrow-61"
       refX="0"
       refY="0"
       orient="auto-start-reverse"
       inkscape:stockid="Rounded arrow"
       markerWidth="1"
       markerHeight="1"
       viewBox="0 0 1 1"
       inkscape:isstock="true"
       inkscape:collect="always"
       preserveAspectRatio="xMidYMid">
      <path
         transform="scale(0.7)"
         d="m -0.21114562,-4.1055728 6.42229122,3.21114561 a 1,1 90 0 1 0,1.78885438 L -0.21114562,4.1055728 A 1.236068,1.236068 31.717474 0 1 -2,3 v -6 a 1.236068,1.236068 148.28253 0 1 1.78885438,-1.1055728 z"
         style="fill:context-stroke;fill-rule:evenodd;stroke:none"
         id="path8-5" />
    </marker>
    <marker
       style="overflow:visible"
       id="RoundedArrow-1"
       refX="0"
       refY="0"
       orient="auto-start-reverse"
       inkscape:stockid="Rounded arrow"
       markerWidth="1"
       markerHeight="1"
       viewBox="0 0 1 1"
       inkscape:isstock="true"
       inkscape:collect="always"
       preserveAspectRatio="xMidYMid">
      <path
         transform="scale(0.7)"
         d="m -0.21114562,-4.1055728 6.42229122,3.21114561 a 1,1 90 0 1 0,1.78885438 L -0.21114562,4.1055728 A 1.236068,1.236068 31.717474 0 1 -2,3 v -6 a 1.236068,1.236068 148.28253 0 1 1.78885438,-1.1055728 z"
         style="fill:context-stroke;fill-rule:evenodd;stroke:none"
         id="path8-7" />
    </marker>
    <marker
       style="overflow:visible"
       id="RoundedArrow-77"
       refX="0"
       refY="0"
       orient="auto-start-reverse"
       inkscape:stockid="Rounded arrow"
       markerWidth="1"
       markerHeight="1"
       viewBox="0 0 1 1"
       inkscape:isstock="true"
       inkscape:collect="always"
       preserveAspectRatio="xMidYMid">
      <path
         transform="scale(0.7)"
         d="m -0.21114562,-4.1055728 6.42229122,3.21114561 a 1,1 90 0 1 0,1.78885438 L -0.21114562,4.1055728 A 1.236068,1.236068 31.717474 0 1 -2,3 v -6 a 1.236068,1.236068 148.28253 0 1 1.78885438,-1.1055728 z"
         style="fill:context-stroke;fill-rule:evenodd;stroke:none"
         id="path8-67" />
    </marker>
  </defs>
  <g
     inkscape:label="Layer 1"
     inkscape:groupmode="layer"
     id="layer1"
     transform="translate(-63.697491,-88.456639)">
    <circle
       style="fill:#005676;fill-opacity:1;stroke:#005676;stroke-width:0.793999"
       id="path1-4"
       cx="82.724976"
       cy="101.69133"
       r="2.9116735" />
    <circle
       style="fill:#005676;fill-opacity:1;stroke:#005676;stroke-width:0.793999"
       id="path1-4-7"
       cx="108.82734"
       cy="95.073982"
       r="2.9116735" />
    <circle
       style="fill:#005676;fill-opacity:1;stroke:#005676;stroke-width:0.793999"
       id="path1-4-0"
       cx="131.25545"
       cy="98.382652"
       r="2.9116735" />
    <circle
       style="fill:#005676;fill-opacity:1;stroke:#005676;stroke-width:0.793999"
       id="path1-4-8"
       cx="148.5"
       cy="111.6708"
       r="2.9116735" />
    <circle
       style="fill:#005676;fill-opacity:1;stroke:#005676;stroke-width:0.793999"
       id="path1-4-1"
       cx="170.00423"
       cy="121.59682"
       r="2.9116735" />
    <circle
       style="fill:#005676;fill-opacity:1;stroke:#005676;stroke-width:0.793999"
       id="path1-4-06"
       cx="192.2226"
       cy="118.28815"
       r="2.9116735" />
    <circle
       style="fill:#005676;fill-opacity:1;stroke:#005676;stroke-width:0.793999"
       id="path1-4-6"
       cx="208.3654"
       cy="105"
       r="2.9116735" />
    <circle
       style="fill:#77b2d7;fill-opacity:1;stroke:#77b2d7;stroke-width:0.793999;stroke-opacity:1"
       id="path1-4-5"
       cx="221.99144"
       cy="91.765312"
       r="2.9116735" />
    <circle
       style="fill:#ec9929;fill-opacity:1;stroke:#ec9929;stroke-width:0.793999;stroke-opacity:1"
       id="path1-4-71"
       cx="67.006165"
       cy="114.97947"
       r="2.9116735" />
    <path
       style="fill:none;stroke:#e97586;stroke-width:0.686;stroke-dasharray:none;marker-end:url(#RoundedArrow)"
       d="m 219.34752,95.073985 -5.2253,5.220205"
       id="path1"
       sodipodi:nodetypes="cc" />
    <path
       style="fill:none;stroke:#e97586;stroke-width:0.686;stroke-dasharray:none;marker-end:url(#RoundedArrow-2)"
       d="m 205.05673,108.30867 -6.40948,6.6708"
       id="path1-8"
       sodipodi:nodetypes="cc" />
    <path
       style="fill:none;stroke:#e97586;stroke-width:0.686;stroke-dasharray:none;marker-end:url(#RoundedArrow-6)"
       d="m 186.77681,119.81577 -9.55234,1.78105"
       id="path1-9"
       sodipodi:nodetypes="cc" />
    <path
       style="fill:none;stroke:#e97586;stroke-width:0.686;stroke-dasharray:none;marker-end:url(#RoundedArrow-4)"
       d="m 164.47196,120.25965 -9.0666,-4.64583"
       id="path1-1"
       sodipodi:nodetypes="cc" />
    <path
       style="fill:none;stroke:#e97586;stroke-width:0.686;stroke-dasharray:none;marker-end:url(#RoundedArrow-7)"
       d="m 144.4988,108.36213 -7.07899,-5.47782"
       id="path1-6"
       sodipodi:nodetypes="cc" />
    <path
       style="fill:none;stroke:#e97586;stroke-width:0.686;stroke-dasharray:none;marker-end:url(#RoundedArrow-61)"
       d="m 126.01624,96.23822 -8.78173,-1.164238"
       id="path1-49"
       sodipodi:nodetypes="cc" />
    <path
       style="fill:none;stroke:#e97586;stroke-width:0.686;stroke-dasharray:none;marker-end:url(#RoundedArrow-1)"
       d="M 103.34512,95.073982 89.311811,98.382657"
       id="path1-11"
       sodipodi:nodetypes="cc" />
    <path
       style="fill:none;stroke:#e97586;stroke-width:0.686;stroke-dasharray:none;marker-end:url(#RoundedArrow-77)"
       d="m 79.416303,105 -6.566718,5.33364"
       id="path1-65"
       sodipodi:nodetypes="cc" />
  </g>
</svg>
